{"glyphs":{"0":{"ha":1071,"x_min":101,"x_max":1106,"o":"m 467 -26 q 282 19 365 -26 q 150 161 199 65 q 101 404 101 257 q 120 603 101 503 q 176 799 139 704 q 268 976 214 894 q 393 1122 322 1058 q 552 1219 464 1185 q 743 1254 640 1254 q 926 1208 844 1254 q 1057 1068 1008 1163 q 1106 825 1106 974 q 1086 625 1106 726 q 1031 428 1067 524 q 940 251 994 333 q 815 107 886 169 q 656 9 743 44 q 467 -26 569 -26 m 490 92 q 626 121 563 92 q 744 203 689 150 q 841 324 799 256 q 913 472 883 393 q 959 633 943 551 q 975 794 975 715 q 942 995 975 921 q 852 1103 910 1069 q 718 1136 794 1136 q 581 1107 644 1136 q 463 1025 517 1078 q 365 904 408 972 q 292 758 322 836 q 247 597 263 679 q 232 436 232 514 q 265 234 232 310 q 357 125 299 158 q 490 92 415 92 z "},"1":{"ha":632,"x_min":172,"x_max":629,"o":"m 256 -19 q 213 -9 226 -19 q 204 22 199 1 l 465 1071 q 398 1026 432 1047 q 333 985 364 1004 q 275 951 301 967 q 224 936 244 936 q 188 968 203 936 q 183 1015 172 999 q 228 1051 193 1032 q 303 1097 264 1072 q 383 1149 343 1121 q 460 1208 424 1178 q 497 1237 482 1228 q 529 1250 513 1246 q 574 1254 546 1254 q 616 1244 603 1254 q 624 1214 629 1233 l 329 19 q 306 -10 325 -1 q 256 -19 288 -19 z "},"2":{"ha":932,"x_min":-26,"x_max":979,"o":"m 17 0 q -15 15 -3 0 q -24 51 -26 31 q -4 89 -22 72 l 383 406 q 538 535 469 475 q 659 648 607 596 q 749 746 711 700 q 811 832 788 792 q 847 909 835 872 q 858 978 858 946 q 833 1070 858 1035 q 758 1123 807 1106 q 638 1140 710 1140 q 484 1109 551 1140 q 346 1026 417 1078 q 301 1006 319 1006 q 258 1032 282 1007 q 244 1069 239 1051 q 275 1111 249 1086 q 379 1183 319 1150 q 512 1235 439 1215 q 664 1254 585 1254 q 788 1236 731 1254 q 888 1183 846 1218 q 955 1101 931 1149 q 979 992 979 1053 q 967 901 979 947 q 928 808 954 856 q 861 707 903 760 q 761 594 819 654 q 625 465 703 535 q 450 317 547 396 l 200 111 l 749 111 q 771 103 764 111 q 778 78 778 96 q 763 22 778 43 q 726 0 747 0 l 17 0 z "},"3":{"ha":935,"x_min":26,"x_max":957,"o":"m 407 -26 q 256 3 326 -26 q 130 87 185 33 q 43 213 75 140 q 28 267 29 249 q 58 301 26 286 q 103 312 88 317 q 131 278 118 307 q 203 172 163 215 q 297 107 243 129 q 422 85 351 85 q 558 108 500 85 q 657 171 617 131 q 718 267 697 211 q 739 386 739 322 q 709 501 739 451 q 624 580 679 551 q 489 608 568 608 l 410 608 q 388 622 393 608 q 388 664 382 636 q 406 706 393 693 q 435 719 419 719 l 507 719 q 638 737 578 719 q 740 787 697 754 q 807 867 783 819 q 831 975 831 915 q 816 1047 831 1015 q 774 1099 801 1078 q 710 1132 747 1121 q 626 1143 672 1143 q 530 1128 575 1143 q 444 1088 485 1114 q 365 1028 403 1063 q 324 1006 340 1006 q 282 1028 307 1006 q 265 1067 260 1050 q 293 1111 269 1085 q 385 1183 331 1150 q 506 1235 440 1215 q 646 1254 572 1254 q 766 1235 710 1254 q 865 1181 822 1217 q 933 1096 908 1146 q 957 983 957 1046 q 940 870 957 924 q 888 774 922 817 q 803 701 854 732 q 682 653 751 669 q 783 596 742 635 q 845 505 824 557 q 867 393 867 453 q 834 228 867 304 q 741 95 801 153 q 595 6 681 38 q 407 -26 510 -26 z "},"4":{"ha":951,"x_min":40,"x_max":940,"o":"m 615 -19 q 569 -10 585 -19 q 560 22 554 0 l 635 315 l 88 315 q 49 342 58 315 q 61 394 40 368 l 689 1213 q 724 1244 706 1235 q 776 1254 743 1254 q 814 1248 797 1254 q 834 1228 831 1242 q 819 1192 838 1215 l 224 426 l 663 426 l 763 817 q 831 856 772 856 q 877 846 863 856 q 886 814 892 836 l 789 426 l 911 426 q 933 418 926 426 q 940 393 940 410 q 925 336 940 357 q 888 315 910 315 l 761 315 l 685 19 q 615 -19 675 -19 z "},"5":{"ha":935,"x_min":22,"x_max":1024,"o":"m 413 -26 q 314 -15 363 -26 q 220 20 265 -3 q 133 77 175 43 q 56 156 92 111 q 28 203 33 185 q 49 244 22 222 q 89 266 72 267 q 128 240 106 265 q 215 156 171 190 q 311 104 258 121 q 433 88 364 88 q 577 116 515 88 q 681 196 639 144 q 744 315 722 247 q 765 457 765 382 q 753 548 765 507 q 716 619 742 589 q 649 667 690 650 q 550 685 608 685 q 451 672 497 685 q 364 639 404 660 q 289 590 324 618 q 239 568 267 572 q 195 577 211 564 q 190 626 179 590 l 351 1203 q 366 1224 354 1214 q 394 1233 378 1233 l 994 1233 q 1016 1225 1008 1233 q 1024 1200 1024 1217 q 1008 1143 1024 1164 q 972 1122 993 1122 l 443 1122 l 331 724 q 399 761 363 746 q 474 786 435 776 q 556 796 514 796 q 742 752 667 796 q 855 635 817 708 q 893 472 893 561 q 857 259 893 351 q 756 103 821 167 q 604 6 692 39 q 413 -26 517 -26 z "},"6":{"ha":1004,"x_min":139,"x_max":1004,"o":"m 500 -26 q 307 26 388 -26 q 183 174 226 78 q 139 401 139 269 q 176 657 139 536 q 284 878 214 778 q 451 1056 354 979 q 670 1183 549 1133 q 929 1249 792 1232 q 983 1247 967 1254 q 1001 1206 999 1239 q 992 1160 1004 1171 q 947 1144 979 1149 q 708 1081 815 1126 q 519 964 601 1035 q 381 805 436 893 q 296 615 325 717 q 267 404 267 513 q 285 263 267 324 q 338 164 304 203 q 416 105 371 125 q 515 85 461 85 q 649 112 590 85 q 750 187 708 139 q 815 299 792 235 q 838 436 838 364 q 810 558 838 506 q 735 638 783 610 q 619 667 686 667 q 528 651 574 667 q 442 608 483 636 q 365 544 401 581 q 299 466 328 508 q 251 379 271 424 l 207 461 q 286 593 240 535 q 388 693 332 651 q 508 756 444 735 q 642 778 572 778 q 774 754 714 778 q 876 688 833 731 q 941 586 918 644 q 964 458 964 528 q 931 263 964 351 q 838 109 899 174 q 691 9 776 44 q 500 -26 606 -26 z "},"7":{"ha":758,"x_min":60,"x_max":944,"o":"m 118 -18 q 66 3 72 -15 q 82 54 60 21 l 764 1122 l 217 1122 q 194 1131 201 1122 q 188 1156 188 1139 q 203 1212 188 1190 q 239 1233 218 1233 l 893 1233 q 929 1212 914 1233 q 925 1160 944 1190 l 210 39 q 172 -6 192 8 q 118 -18 151 -21 z "},"8":{"ha":935,"x_min":32,"x_max":979,"o":"m 404 -26 q 251 -6 319 -26 q 134 55 183 15 q 58 151 85 94 q 32 279 32 208 q 60 406 32 347 q 140 515 89 465 q 261 603 192 564 q 411 668 331 642 q 316 752 353 708 q 262 843 279 796 q 244 939 244 890 q 274 1075 244 1017 q 358 1174 304 1133 q 486 1235 413 1214 q 647 1256 560 1256 q 776 1239 715 1256 q 882 1190 836 1222 q 953 1113 928 1158 q 979 1008 979 1067 q 956 891 979 944 q 892 795 933 838 q 797 720 851 753 q 679 665 742 688 q 780 582 736 629 q 849 476 824 535 q 874 351 874 418 q 838 186 874 257 q 739 68 803 115 q 590 -3 675 21 q 404 -26 504 -26 m 428 85 q 553 102 496 85 q 655 153 611 119 q 722 235 699 186 q 746 346 746 283 q 719 457 746 408 q 643 544 693 506 q 524 613 593 582 q 384 553 450 588 q 267 478 318 519 q 188 387 217 436 q 160 281 160 338 q 183 189 160 226 q 246 128 207 151 q 332 95 285 106 q 428 85 379 85 m 568 719 q 718 786 654 746 q 818 877 782 826 q 854 982 854 928 q 835 1056 854 1025 q 783 1106 815 1088 q 711 1135 751 1125 q 629 1144 671 1144 q 531 1133 578 1144 q 449 1099 485 1122 q 391 1039 413 1076 q 369 949 369 1001 q 397 851 369 893 q 469 776 424 808 q 568 719 514 744 z "},"9":{"ha":1004,"x_min":138,"x_max":1001,"o":"m 642 1260 q 834 1208 754 1260 q 958 1060 914 1156 q 1001 832 1001 964 q 964 576 1001 697 q 857 355 926 456 q 690 177 788 254 q 472 51 592 100 q 211 -15 351 1 q 158 -12 174 -19 q 139 28 142 -6 q 149 74 138 63 q 193 89 161 85 q 432 153 325 107 q 622 269 539 199 q 760 428 704 340 q 845 619 817 517 q 874 829 874 721 q 856 970 874 910 q 804 1069 838 1031 q 725 1128 771 1108 q 625 1149 679 1149 q 492 1122 551 1149 q 391 1047 433 1094 q 326 935 349 999 q 304 797 304 871 q 331 676 304 728 q 406 596 357 625 q 522 567 456 567 q 613 582 568 567 q 699 625 658 597 q 776 689 740 653 q 841 767 813 725 q 890 854 869 810 l 935 772 q 856 640 903 699 q 753 540 810 582 q 632 477 696 499 q 500 456 568 456 q 368 479 428 456 q 266 546 308 503 q 201 647 224 589 q 178 775 178 706 q 210 971 178 882 q 304 1124 243 1060 q 450 1224 365 1189 q 642 1260 535 1260 z "},"\r":{"ha":417,"x_min":0,"x_max":0,"o":""}," ":{"ha":417,"x_min":0,"x_max":0,"o":""}," ":{"ha":139,"x_min":0,"x_max":0,"o":""}," ":{"ha":417,"x_min":0,"x_max":0,"o":""},"B":{"ha":1018,"x_min":88,"x_max":1057,"o":"m 150 0 q 99 39 88 0 l 392 1196 q 464 1233 401 1233 l 725 1233 q 899 1209 824 1233 q 1015 1131 974 1185 q 1057 989 1057 1076 q 1024 858 1057 917 q 935 756 990 799 q 815 687 881 713 q 683 656 749 661 l 682 650 q 790 629 739 647 q 882 581 842 611 q 946 506 922 550 q 969 404 969 461 q 942 255 969 321 q 867 141 915 189 q 751 62 818 93 q 601 15 683 31 q 429 0 519 0 l 150 0 m 239 111 l 435 111 q 592 127 518 111 q 721 178 665 143 q 808 267 776 213 q 840 399 840 322 q 822 476 840 440 q 767 540 803 513 q 680 582 732 567 q 561 597 628 597 l 361 597 l 239 111 m 390 708 l 572 708 q 700 727 638 708 q 814 781 763 746 q 894 863 865 815 q 924 969 924 911 q 900 1058 924 1025 q 826 1107 876 1092 q 697 1122 776 1122 l 496 1122 l 390 708 z "},"C":{"ha":1090,"x_min":163,"x_max":1200,"o":"m 593 -26 q 414 8 493 -26 q 278 106 335 42 q 192 263 221 171 q 163 468 163 354 q 181 643 163 553 q 238 822 200 733 q 334 988 276 910 q 467 1126 392 1065 q 636 1220 542 1186 q 843 1254 731 1254 q 984 1238 919 1254 q 1100 1188 1049 1222 q 1189 1101 1151 1154 q 1194 1074 1200 1086 q 1169 1047 1188 1063 q 1136 1030 1150 1032 q 1104 1043 1122 1028 q 1034 1094 1074 1074 q 944 1126 994 1115 q 826 1136 893 1136 q 676 1109 746 1136 q 546 1033 606 1082 q 440 922 486 985 q 360 785 393 858 q 310 636 326 713 q 293 485 293 560 q 313 314 293 388 q 372 191 332 240 q 471 117 411 142 q 610 92 531 92 q 709 108 663 92 q 799 152 756 124 q 883 220 842 181 q 967 307 925 260 q 998 318 982 324 q 1031 297 1014 313 q 1052 266 1050 279 q 1040 233 1054 253 q 884 78 963 135 q 732 -3 806 21 q 593 -26 658 -26 z "},"D":{"ha":1222,"x_min":88,"x_max":1203,"o":"m 150 0 q 99 39 88 0 l 392 1196 q 415 1224 397 1215 q 463 1233 432 1233 l 686 1233 q 915 1199 818 1233 q 1077 1106 1013 1165 q 1172 969 1142 1046 q 1203 807 1203 893 q 1163 540 1203 664 q 1050 318 1124 417 q 876 148 976 219 q 652 38 775 76 q 393 0 529 0 l 150 0 m 240 118 l 393 118 q 601 148 501 118 q 787 236 701 178 q 935 378 872 294 q 1032 570 997 463 q 1067 807 1067 678 q 1040 935 1067 878 q 964 1032 1014 992 q 843 1094 914 1072 q 685 1115 772 1115 l 493 1115 l 240 118 z "},"F":{"ha":878,"x_min":85,"x_max":1076,"o":"m 144 -19 q 94 19 85 -19 l 390 1196 q 414 1224 396 1215 q 463 1233 432 1233 l 1047 1233 q 1070 1220 1064 1233 q 1072 1178 1076 1207 q 1053 1136 1065 1150 q 1024 1122 1040 1122 l 494 1122 l 379 672 l 829 672 q 851 658 846 672 q 849 615 857 643 q 829 574 842 588 q 800 561 817 561 l 353 561 l 218 19 q 193 -10 213 0 q 144 -19 174 -19 z "},"H":{"ha":1247,"x_min":85,"x_max":1301,"o":"m 146 -19 q 94 19 85 -19 l 396 1217 q 419 1245 401 1236 q 465 1254 436 1254 q 517 1217 529 1254 l 389 703 l 1039 703 l 1168 1217 q 1191 1245 1174 1236 q 1239 1254 1208 1254 q 1290 1217 1301 1254 l 988 19 q 966 -10 983 0 q 918 -19 949 -19 q 867 19 857 -19 l 1011 592 l 360 592 l 215 19 q 194 -10 211 0 q 146 -19 176 -19 z "},"K":{"ha":967,"x_min":89,"x_max":1124,"o":"m 144 -19 q 101 -10 114 -19 q 93 19 89 0 l 396 1217 q 467 1254 406 1254 q 518 1217 528 1254 l 393 722 l 1031 1236 q 1072 1251 1056 1256 q 1106 1225 1089 1247 q 1122 1185 1124 1200 q 1096 1151 1121 1171 l 457 642 q 589 426 524 525 q 722 239 654 326 q 865 67 790 151 q 881 28 885 46 q 849 -12 876 10 q 810 -24 829 -26 q 778 -6 792 -21 q 659 138 717 63 q 549 290 601 213 q 451 446 497 367 q 363 603 404 525 l 214 19 q 192 -10 210 0 q 144 -19 175 -19 z "},"O":{"ha":1300,"x_min":167,"x_max":1267,"o":"m 617 -26 q 432 10 515 -26 q 290 113 349 46 q 199 274 231 181 q 167 481 167 367 q 185 655 167 565 q 240 831 203 744 q 331 994 276 918 q 458 1129 386 1071 q 622 1221 531 1188 q 819 1254 713 1254 q 1003 1218 921 1254 q 1144 1115 1085 1182 q 1235 954 1203 1047 q 1267 747 1267 861 q 1247 564 1267 656 q 1190 385 1228 472 q 1097 224 1151 299 q 969 93 1042 149 q 808 6 896 38 q 617 -26 721 -26 m 633 92 q 782 118 714 92 q 906 192 850 144 q 1006 301 963 239 q 1078 436 1050 364 q 1122 583 1107 508 q 1138 731 1138 657 q 1115 905 1138 829 q 1050 1032 1093 981 q 945 1110 1007 1083 q 803 1136 883 1136 q 656 1109 724 1136 q 531 1034 588 1082 q 430 924 474 986 q 356 790 386 861 q 311 644 326 718 q 296 497 296 569 q 318 324 296 400 q 383 197 340 249 q 489 119 426 146 q 633 92 551 92 z "},"P":{"ha":983,"x_min":86,"x_max":1086,"o":"m 151 -19 q 96 22 86 -19 l 390 1196 q 413 1224 396 1215 q 460 1233 429 1233 l 689 1233 q 909 1202 821 1233 q 1042 1108 997 1171 q 1086 950 1086 1046 q 1045 765 1086 843 q 931 633 1004 686 q 759 548 857 581 q 547 500 661 515 q 438 491 494 494 q 335 488 382 488 l 218 19 q 197 -10 213 0 q 151 -19 182 -19 m 363 599 q 431 600 394 599 q 504 605 467 601 q 576 613 542 608 q 781 672 694 632 q 914 778 867 713 q 961 939 961 843 q 931 1044 961 1004 q 837 1103 900 1085 q 674 1122 774 1122 l 494 1122 l 363 599 z "},"R":{"ha":975,"x_min":90,"x_max":1056,"o":"m 151 -19 q 106 -10 121 -19 q 96 22 90 0 l 390 1196 q 413 1224 396 1215 q 460 1233 429 1233 l 647 1233 q 880 1208 789 1233 q 1013 1123 971 1182 q 1056 965 1056 1064 q 1038 854 1056 906 q 985 758 1019 803 q 902 678 951 713 q 788 617 853 643 q 645 574 724 590 q 476 554 567 558 q 585 390 526 471 q 711 229 643 308 q 860 72 779 150 q 876 42 872 61 q 850 -6 881 22 q 810 -21 831 -24 q 772 -1 790 -18 q 617 163 694 74 q 471 349 540 251 q 347 540 401 446 l 218 19 q 197 -10 213 0 q 151 -19 182 -19 m 374 651 q 518 658 451 651 q 641 677 585 664 q 743 710 697 690 q 824 754 789 729 q 883 810 860 779 q 919 878 907 842 q 931 957 931 915 q 904 1057 931 1021 q 813 1108 878 1093 q 636 1122 749 1122 l 494 1122 l 374 651 z "},"S":{"ha":967,"x_min":49,"x_max":994,"o":"m 435 -26 q 317 -12 372 -26 q 214 26 261 1 q 128 85 167 51 q 61 157 90 118 q 55 187 49 172 q 76 215 61 201 q 110 236 96 232 q 140 224 125 240 q 215 159 172 189 q 313 110 258 129 q 435 92 368 92 q 558 106 503 92 q 655 150 614 121 q 719 226 696 179 q 742 333 742 272 q 728 407 742 374 q 688 468 714 440 q 625 520 663 496 q 538 569 588 544 q 449 618 492 592 q 371 675 407 644 q 308 744 335 706 q 267 829 282 782 q 251 936 251 876 q 279 1064 251 1006 q 360 1165 307 1122 q 485 1231 413 1208 q 650 1254 558 1254 q 782 1234 722 1254 q 891 1181 842 1214 q 979 1110 940 1149 q 991 1081 994 1096 q 969 1049 988 1065 q 938 1030 954 1033 q 907 1036 921 1026 q 838 1086 874 1064 q 756 1122 801 1108 q 649 1136 711 1136 q 540 1124 590 1136 q 455 1086 490 1111 q 400 1024 419 1061 q 381 936 381 986 q 392 854 381 890 q 430 789 404 818 q 497 733 456 760 q 597 679 539 706 q 708 615 658 650 q 795 539 758 581 q 851 447 832 497 q 869 333 869 396 q 838 185 869 251 q 747 72 806 119 q 610 -1 689 24 q 435 -26 531 -26 z "},"T":{"ha":969,"x_min":224,"x_max":1167,"o":"m 392 -21 q 340 18 333 -21 l 621 1122 l 256 1122 q 229 1135 235 1122 q 231 1178 224 1147 q 252 1222 240 1210 q 285 1233 264 1233 l 1135 1233 q 1161 1222 1156 1233 q 1158 1178 1167 1210 q 1138 1135 1150 1147 q 1106 1122 1126 1122 l 742 1122 l 461 18 q 440 -11 457 -1 q 392 -21 422 -21 z "},"Z":{"ha":861,"x_min":-62,"x_max":1049,"o":"m -25 0 q -52 13 -42 0 q -62 46 -62 26 q -47 81 -61 65 l 843 1122 l 292 1122 q 269 1135 275 1122 q 268 1178 263 1149 q 288 1219 275 1206 q 317 1233 300 1233 l 1006 1233 q 1040 1206 1032 1233 q 1028 1154 1049 1178 l 138 111 l 749 111 q 772 98 765 111 q 772 56 778 85 q 753 14 765 28 q 725 0 742 0 l -25 0 z "},"Ð":{"ha":1219,"x_min":88,"x_max":1203,"o":"m 150 0 q 99 39 88 0 l 392 1196 q 415 1224 397 1215 q 463 1233 432 1233 l 686 1233 q 915 1199 818 1233 q 1077 1106 1013 1165 q 1172 969 1142 1046 q 1203 807 1203 893 q 1163 540 1203 664 q 1050 318 1124 417 q 876 148 976 219 q 652 38 775 76 q 393 0 529 0 l 150 0 m 240 118 l 393 118 q 601 148 501 118 q 787 236 701 178 q 935 378 872 294 q 1032 570 997 463 q 1067 807 1067 678 q 1040 935 1067 878 q 964 1032 1014 992 q 843 1094 914 1072 q 685 1115 772 1115 l 493 1115 l 240 118 m 126 572 q 98 588 101 572 q 97 621 94 603 q 109 657 100 640 q 144 674 118 674 l 656 674 q 684 657 681 674 q 685 621 688 640 q 673 588 682 603 q 639 572 664 572 l 126 572 z "},"Ŋ":{"ha":1247,"x_min":85,"x_max":1301,"o":"m 944 -154 q 892 -285 922 -240 q 826 -344 863 -329 q 746 -360 790 -360 q 660 -335 701 -360 q 592 -268 619 -311 q 578 -231 578 -247 q 604 -197 579 -215 q 643 -182 626 -182 q 672 -199 660 -182 q 701 -231 689 -218 q 727 -250 714 -244 q 753 -256 740 -256 q 786 -243 774 -256 q 808 -203 799 -231 q 829 -132 818 -176 l 867 19 l 471 1026 l 215 19 q 194 -10 211 0 q 146 -19 176 -19 q 94 19 85 -19 l 396 1217 q 419 1245 401 1236 q 465 1254 436 1254 q 504 1245 490 1254 q 526 1217 518 1236 l 917 224 l 1168 1217 q 1191 1245 1174 1236 q 1239 1254 1208 1254 q 1290 1217 1301 1254 l 944 -154 z "},"Þ":{"ha":1018,"x_min":90,"x_max":1044,"o":"m 151 -19 q 106 -10 121 -19 q 96 22 90 0 l 397 1217 q 418 1245 403 1236 q 464 1254 433 1254 q 510 1244 494 1254 q 519 1214 525 1235 l 482 1074 l 647 1074 q 867 1042 779 1074 q 1000 949 956 1011 q 1044 790 1044 886 q 1003 605 1044 683 q 889 473 963 526 q 717 387 815 419 q 507 340 619 354 q 397 331 454 333 q 294 328 340 328 l 218 19 q 197 -10 213 0 q 151 -19 182 -19 m 321 439 q 389 440 353 439 q 463 444 425 442 q 535 453 500 447 q 740 511 653 471 q 873 617 826 551 q 919 778 919 683 q 889 884 919 843 q 795 944 858 925 q 632 963 732 963 l 453 963 l 321 439 z "},"ẞ":{"ha":1246,"x_min":83,"x_max":1111,"o":"m 668 -26 q 570 -19 618 -26 q 479 4 522 -11 q 400 40 436 19 q 372 68 378 53 q 379 110 367 83 q 406 144 392 136 q 447 139 421 151 q 516 113 482 124 q 590 97 550 103 q 675 92 629 92 q 792 108 738 92 q 888 158 847 125 q 953 239 929 190 q 976 350 976 288 q 963 439 976 399 q 924 514 949 479 q 871 580 900 549 q 810 641 842 611 q 750 700 779 671 q 697 762 721 729 q 660 831 674 794 q 647 908 647 867 q 665 998 647 957 q 714 1072 682 1039 q 788 1128 746 1104 q 615 1067 685 1107 q 500 972 544 1028 q 428 849 456 917 q 381 704 400 782 l 208 19 q 187 -10 204 0 q 139 -19 169 -19 q 96 -10 108 -19 q 88 19 83 0 l 260 704 q 322 892 285 806 q 415 1044 358 978 q 557 1158 472 1111 q 763 1230 642 1206 q 1049 1254 883 1254 l 1081 1254 q 1106 1242 1101 1254 q 1103 1197 1111 1229 q 1084 1153 1096 1167 q 1051 1140 1072 1140 q 946 1127 996 1140 q 856 1088 896 1114 q 794 1023 817 1061 q 772 933 771 985 q 787 866 772 897 q 825 806 801 835 q 878 749 849 778 q 940 690 908 721 q 1001 626 971 660 q 1053 551 1031 592 q 1090 460 1076 510 q 1104 350 1104 411 q 1071 197 1104 267 q 978 77 1038 128 q 839 0 918 26 q 668 -26 760 -26 z "},"ŋ":{"ha":851,"x_min":42,"x_max":775,"o":"m 599 -151 q 547 -281 576 -237 q 481 -339 517 -324 q 401 -354 446 -354 q 317 -330 358 -354 q 250 -264 276 -306 q 237 -228 236 -244 q 261 -193 238 -211 q 300 -178 283 -178 q 331 -196 317 -179 q 372 -237 354 -224 q 410 -250 390 -250 q 452 -222 438 -250 q 485 -129 467 -194 l 640 481 q 649 547 650 518 q 631 593 647 576 q 574 610 614 610 q 480 578 529 610 q 381 486 431 546 q 285 343 331 426 q 201 160 239 260 l 168 15 q 149 -12 164 -3 q 103 -21 135 -21 q 60 -11 79 -21 q 50 22 42 -1 l 211 672 q 233 707 219 699 q 274 715 246 715 q 326 703 314 715 q 331 665 339 690 l 285 481 q 360 585 321 540 q 442 661 400 631 q 527 706 485 692 q 613 721 569 721 q 718 690 679 721 q 766 601 757 660 q 753 454 775 542 l 599 -151 z "},"$":{"ha":939,"x_min":35,"x_max":979,"o":"m 421 -26 q 303 -12 358 -26 q 200 26 247 1 q 114 85 153 51 q 46 157 75 118 q 41 187 35 172 q 63 215 47 201 q 97 236 82 232 q 128 224 111 240 q 201 159 158 189 q 299 110 244 129 q 421 92 354 92 q 544 106 489 92 q 641 150 600 121 q 705 226 682 179 q 728 333 728 272 q 714 407 728 374 q 674 468 700 440 q 611 520 649 496 q 524 569 574 544 q 435 619 478 593 q 356 676 392 644 q 294 744 321 707 q 253 829 267 782 q 239 936 239 876 q 267 1064 239 1006 q 347 1165 294 1122 q 472 1231 399 1208 q 636 1254 544 1254 q 768 1234 708 1254 q 877 1181 828 1214 q 965 1110 926 1149 q 976 1081 979 1096 q 956 1049 974 1065 q 924 1030 940 1033 q 893 1036 907 1026 q 824 1086 860 1064 q 743 1122 788 1108 q 636 1136 699 1136 q 526 1124 576 1136 q 441 1086 476 1111 q 386 1024 406 1061 q 367 936 367 986 q 378 854 367 890 q 416 789 390 818 q 483 733 442 760 q 583 679 524 706 q 694 615 644 649 q 781 539 744 581 q 836 447 817 497 q 856 333 856 396 q 824 185 856 251 q 733 72 792 119 q 596 -1 675 24 q 421 -26 517 -26 m 322 -208 q 275 -169 265 -208 l 676 1419 q 742 1457 686 1457 q 788 1419 797 1457 l 386 -169 q 322 -208 376 -208 z "},"€":{"ha":1089,"x_min":75,"x_max":1157,"o":"m 579 -26 q 418 12 488 -26 q 303 117 349 50 q 233 272 257 183 q 210 463 210 361 q 231 644 210 551 q 290 826 251 738 q 385 992 329 914 q 511 1128 440 1069 q 665 1221 582 1188 q 840 1254 747 1254 q 961 1237 904 1254 q 1065 1184 1018 1219 q 1147 1094 1111 1149 q 1154 1066 1157 1081 q 1131 1038 1151 1051 q 1094 1023 1110 1022 q 1067 1038 1079 1024 q 999 1092 1036 1069 q 921 1126 963 1114 q 832 1138 879 1138 q 695 1108 760 1138 q 575 1028 631 1079 q 475 910 519 976 q 399 767 431 843 q 351 614 368 692 q 335 464 335 536 q 351 309 335 378 q 400 192 368 240 q 480 117 432 143 q 589 90 528 90 q 676 99 633 90 q 759 126 718 108 q 838 167 800 143 q 910 222 875 192 q 942 237 928 238 q 974 221 957 236 q 994 190 992 206 q 982 157 997 175 q 852 52 919 93 q 716 -8 785 11 q 579 -26 647 -26 m 161 681 q 134 692 140 681 q 136 733 128 703 q 156 776 144 765 q 188 788 167 788 l 894 788 q 922 776 915 788 q 919 733 928 765 q 901 692 913 703 q 868 681 889 681 l 161 681 m 107 471 q 81 482 86 471 q 83 524 75 493 q 103 567 92 556 q 135 578 114 578 l 842 578 q 869 567 863 578 q 867 524 875 556 q 848 482 860 493 q 815 471 836 471 l 107 471 z "},"¢":{"ha":744,"x_min":71,"x_max":733,"o":"m 338 -26 q 189 10 249 -26 q 100 111 129 47 q 71 258 71 175 q 88 390 71 322 q 138 518 104 457 q 221 627 172 579 q 335 703 269 675 q 478 732 400 732 q 570 720 528 732 q 649 685 613 708 q 714 628 685 663 q 728 588 733 604 q 706 556 722 571 q 669 538 688 540 q 633 554 651 536 q 590 590 614 575 q 537 613 567 604 q 468 621 507 621 q 371 599 414 621 q 295 541 328 578 q 240 458 263 504 q 207 361 218 411 q 196 264 196 311 q 213 169 196 210 q 265 108 231 129 q 350 85 299 86 q 435 103 397 85 q 506 151 474 121 q 571 217 539 181 q 609 231 589 235 q 644 211 629 226 q 665 180 663 196 q 651 143 667 164 q 549 42 601 79 q 442 -10 496 6 q 338 -26 389 -26 m 254 -208 q 208 -169 199 -208 l 479 896 q 543 933 489 933 q 590 896 600 933 l 319 -169 q 254 -208 310 -208 z "},"£":{"ha":949,"x_min":-29,"x_max":1056,"o":"m 3 0 q -25 15 -21 0 q -21 60 -29 31 q -1 101 -12 92 q 31 111 11 111 l 201 111 l 294 478 l 153 478 q 126 490 132 478 q 128 533 121 503 q 149 576 138 565 q 181 586 160 586 l 322 586 l 418 957 q 486 1119 443 1053 q 595 1219 529 1185 q 753 1254 661 1254 q 917 1222 840 1254 q 1039 1142 994 1189 q 1056 1107 1056 1125 q 1033 1069 1056 1089 q 994 1049 1011 1049 q 956 1067 976 1050 q 854 1122 910 1103 q 749 1142 799 1142 q 611 1094 661 1142 q 536 949 561 1046 l 443 586 l 736 586 q 763 576 757 586 q 761 533 768 565 q 741 490 753 503 q 708 478 729 478 l 415 478 l 322 111 l 835 111 q 861 100 854 111 q 860 60 868 89 q 842 15 853 29 q 807 0 831 0 l 3 0 z "},"¥":{"ha":939,"x_min":99,"x_max":1117,"o":"m 374 -19 q 322 19 313 -19 l 389 285 l 131 285 q 104 297 110 285 q 107 339 99 308 q 126 382 114 371 q 158 393 138 393 l 417 393 l 443 494 l 182 494 q 156 506 161 494 q 157 549 151 518 q 178 592 165 581 q 211 603 190 603 l 433 603 l 254 1189 q 260 1231 247 1214 q 308 1251 274 1249 q 351 1244 339 1254 q 371 1211 364 1235 l 540 668 l 969 1211 q 1008 1245 990 1236 q 1060 1251 1026 1254 q 1105 1228 1093 1249 q 1094 1182 1117 1207 l 631 603 l 864 603 q 890 592 885 603 q 886 549 896 581 q 868 506 881 518 q 835 494 856 494 l 567 494 l 540 393 l 811 393 q 838 382 832 393 q 836 339 843 371 q 816 297 828 308 q 783 285 804 285 l 513 285 l 446 19 q 374 -19 436 -19 z "},"%":{"ha":1158,"x_min":83,"x_max":1189,"o":"m 396 713 q 282 741 329 713 q 209 819 235 769 q 183 931 183 869 q 197 1019 183 974 q 234 1107 210 1065 q 293 1182 258 1149 q 372 1235 328 1215 q 467 1254 415 1254 q 581 1226 533 1254 q 653 1151 628 1199 q 678 1042 678 1104 q 665 953 678 999 q 627 864 651 907 q 569 786 603 821 q 491 732 535 751 q 396 713 447 713 m 406 818 q 458 831 433 818 q 501 865 482 843 q 533 915 519 888 q 552 974 546 943 q 558 1033 558 1004 q 531 1122 558 1094 q 460 1149 503 1149 q 404 1135 429 1149 q 360 1100 379 1122 q 328 1050 340 1078 q 308 993 315 1022 q 301 936 301 964 q 330 847 301 876 q 406 818 358 818 m 175 -12 q 146 -28 161 -28 q 110 -12 131 -29 q 85 17 88 6 q 97 46 83 29 l 1097 1240 q 1125 1256 1111 1256 q 1161 1240 1139 1257 q 1186 1211 1183 1224 q 1175 1182 1189 1199 l 175 -12 m 822 -26 q 710 3 757 -26 q 637 81 663 32 q 611 193 611 131 q 624 281 611 236 q 662 369 638 326 q 721 444 686 411 q 799 497 756 478 q 894 515 843 515 q 1007 488 960 515 q 1080 413 1054 461 q 1106 306 1106 365 q 1092 215 1106 261 q 1055 126 1079 168 q 997 49 1031 83 q 918 -6 963 14 q 822 -26 874 -26 m 832 81 q 885 93 861 81 q 928 128 910 106 q 960 178 947 150 q 980 236 974 206 q 986 296 986 267 q 958 383 986 356 q 888 410 931 410 q 832 397 857 410 q 788 362 807 383 q 755 313 768 340 q 735 256 742 285 q 729 197 729 226 q 758 110 729 139 q 832 81 786 81 z "},".":{"ha":435,"x_min":54,"x_max":229,"o":"m 135 -47 q 74 -27 93 -47 q 54 31 54 -7 q 76 107 54 81 q 146 133 99 133 q 208 113 188 133 q 229 57 229 93 q 206 -20 229 7 q 135 -47 182 -47 z "},",":{"ha":435,"x_min":-26,"x_max":215,"o":"m 21 -256 q -10 -242 6 -256 q -26 -214 -26 -228 q -24 -200 -26 -207 q -17 -185 -22 -193 q 39 -97 19 -135 q 67 -22 58 -60 q 78 64 76 17 q 97 107 79 90 q 150 124 115 124 q 199 108 182 124 q 215 68 215 92 q 196 -35 215 21 q 142 -144 176 -92 q 61 -236 107 -197 q 41 -251 51 -246 q 21 -256 31 -256 z "},":":{"ha":435,"x_min":54,"x_max":374,"o":"m 135 -47 q 74 -27 93 -47 q 54 31 54 -7 q 76 107 54 81 q 146 133 99 133 q 208 113 188 133 q 229 57 229 93 q 206 -20 229 7 q 135 -47 182 -47 m 279 558 q 218 578 238 558 q 199 636 199 599 q 221 713 199 686 q 290 739 243 739 q 353 719 332 739 q 374 663 374 699 q 350 585 374 613 q 279 558 326 558 z "},";":{"ha":435,"x_min":-12,"x_max":374,"o":"m 279 558 q 218 578 238 558 q 199 636 199 599 q 221 713 199 686 q 290 739 243 739 q 353 719 332 739 q 374 663 374 699 q 350 585 374 613 q 279 558 326 558 m 35 -256 q 3 -242 19 -256 q -12 -214 -12 -228 q -10 -200 -12 -207 q -3 -185 -8 -193 q 53 -97 33 -135 q 81 -22 72 -60 q 92 64 90 17 q 111 107 93 90 q 164 124 129 124 q 213 108 196 124 q 229 68 229 92 q 210 -35 229 21 q 156 -144 190 -92 q 75 -236 121 -197 q 55 -251 65 -246 q 35 -256 44 -256 z "},"…":{"ha":1178,"x_min":54,"x_max":972,"o":"m 507 -47 q 446 -27 465 -47 q 426 31 426 -7 q 449 107 426 81 q 518 133 471 133 q 581 113 560 133 q 601 57 601 93 q 578 -20 601 7 q 507 -47 554 -47 m 878 -47 q 817 -27 836 -47 q 797 31 797 -7 q 819 107 797 81 q 889 133 842 133 q 951 113 931 133 q 972 57 972 93 q 949 -20 972 7 q 878 -47 925 -47 m 135 -47 q 74 -27 93 -47 q 54 31 54 -7 q 76 107 54 81 q 146 133 99 133 q 208 113 188 133 q 229 57 229 93 q 206 -20 229 7 q 135 -47 182 -47 z "},"!":{"ha":479,"x_min":93,"x_max":521,"o":"m 232 300 q 181 339 169 300 l 390 1217 q 413 1245 396 1236 q 460 1254 429 1254 q 511 1217 521 1254 l 301 339 q 279 310 297 319 q 232 300 261 300 m 164 -19 q 113 0 133 -19 q 93 56 93 19 q 117 126 93 96 q 189 157 140 157 q 238 138 218 157 q 257 81 257 119 q 236 11 260 42 q 164 -19 213 -19 z "},"¡":{"ha":479,"x_min":-28,"x_max":400,"o":"m 33 -558 q -18 -521 -28 -558 l 192 357 q 215 386 197 376 q 261 396 232 396 q 313 357 324 396 l 103 -521 q 81 -549 99 -539 q 33 -558 64 -558 m 304 539 q 254 558 274 539 q 235 615 235 578 q 257 685 233 654 q 329 715 281 715 q 379 697 360 715 q 399 640 399 678 q 377 570 400 601 q 304 539 354 539 z "},"?":{"ha":694,"x_min":121,"x_max":831,"o":"m 249 299 q 206 308 219 299 q 197 338 193 318 l 267 608 q 287 634 272 625 q 324 646 301 643 q 506 688 432 654 q 624 772 581 722 q 686 874 667 821 q 706 975 706 928 q 685 1064 706 1026 q 624 1122 664 1101 q 526 1143 585 1143 q 426 1126 472 1143 q 342 1085 381 1110 q 272 1035 304 1060 q 240 1029 257 1024 q 208 1053 222 1035 q 194 1089 194 1074 q 211 1118 193 1104 q 318 1195 265 1165 q 424 1240 371 1225 q 526 1254 476 1254 q 693 1218 625 1254 q 796 1118 761 1182 q 831 975 831 1054 q 801 829 831 899 q 713 701 771 760 q 568 601 654 643 q 369 540 482 560 l 319 338 q 297 308 315 318 q 249 299 279 299 m 189 -19 q 140 0 160 -19 q 121 56 121 19 q 143 126 121 96 q 214 157 165 157 q 265 138 244 157 q 285 81 285 119 q 262 11 285 42 q 189 -19 239 -19 z "},"¿":{"ha":694,"x_min":-142,"x_max":569,"o":"m 440 397 q 483 388 469 397 q 492 358 497 378 l 422 88 q 404 62 418 71 q 367 50 390 53 q 183 8 257 42 q 66 -76 110 -26 q 3 -178 22 -125 q -17 -279 -17 -232 q 4 -367 -17 -329 q 65 -426 25 -406 q 164 -447 106 -447 q 264 -431 218 -447 q 348 -389 310 -414 q 418 -339 386 -364 q 451 -332 433 -326 q 481 -357 469 -337 q 495 -393 494 -378 q 479 -422 496 -408 q 372 -499 425 -468 q 267 -544 318 -529 q 163 -558 215 -558 q -3 -522 65 -558 q -106 -422 -71 -486 q -142 -279 -142 -358 q -112 -133 -142 -203 q -23 -6 -82 -64 q 122 94 36 53 q 319 156 207 136 l 369 358 q 392 388 375 378 q 440 397 410 397 m 500 715 q 550 697 531 715 q 569 640 569 678 q 547 570 569 601 q 475 539 525 539 q 426 558 446 539 q 406 615 406 578 q 428 685 406 654 q 500 715 451 715 z "},"'":{"ha":235,"x_min":222,"x_max":411,"o":"m 258 910 q 225 923 228 910 q 225 953 222 936 l 275 1235 q 297 1274 279 1257 q 350 1290 315 1290 q 400 1274 389 1290 q 404 1235 411 1257 l 313 953 q 295 923 307 936 q 258 910 283 910 z "},"\"":{"ha":457,"x_min":222,"x_max":633,"o":"m 258 910 q 225 923 228 910 q 225 953 222 936 l 275 1235 q 297 1274 279 1257 q 350 1290 315 1290 q 400 1274 389 1290 q 404 1235 411 1257 l 313 953 q 295 923 307 936 q 258 910 283 910 m 481 910 q 447 923 450 910 q 447 953 444 936 l 497 1235 q 519 1274 501 1257 q 572 1290 538 1290 q 622 1274 611 1290 q 626 1235 633 1257 l 535 953 q 517 923 529 936 q 481 910 506 910 z "},"‘":{"ha":297,"x_min":225,"x_max":467,"o":"m 290 911 q 242 927 258 911 q 225 967 225 943 q 236 1043 225 1003 q 267 1125 247 1083 q 316 1205 288 1167 q 378 1272 344 1243 q 399 1285 389 1281 q 418 1290 408 1290 q 451 1277 435 1290 q 467 1249 467 1264 q 464 1235 467 1243 q 456 1219 461 1228 q 401 1133 422 1171 q 372 1057 381 1094 q 363 971 364 1019 q 342 928 361 944 q 290 911 324 911 z "},"’":{"ha":299,"x_min":206,"x_max":449,"o":"m 382 1290 q 432 1274 415 1290 q 449 1235 449 1258 q 438 1158 449 1199 q 406 1076 426 1118 q 357 996 385 1033 q 294 929 329 958 q 274 916 285 921 q 254 911 264 911 q 222 925 239 911 q 206 953 206 939 q 209 967 206 960 q 218 982 213 974 q 272 1069 253 1031 q 301 1145 292 1107 q 311 1231 310 1183 q 330 1274 311 1257 q 382 1290 349 1290 z "},"‚":{"ha":300,"x_min":-81,"x_max":161,"o":"m -33 -256 q -65 -242 -49 -256 q -81 -214 -81 -228 q -78 -200 -81 -207 q -71 -185 -76 -193 q -15 -97 -35 -135 q 13 -22 4 -60 q 24 64 22 17 q 43 107 25 90 q 96 124 61 124 q 144 108 128 124 q 161 68 161 92 q 142 -35 161 21 q 88 -144 122 -92 q 7 -236 53 -197 q -13 -251 -3 -246 q -33 -256 -24 -256 z "},"“":{"ha":540,"x_min":225,"x_max":711,"o":"m 290 911 q 242 927 258 911 q 225 967 225 943 q 236 1043 225 1003 q 267 1125 247 1083 q 316 1205 288 1167 q 378 1272 344 1243 q 399 1285 389 1281 q 418 1290 408 1290 q 451 1277 435 1290 q 467 1249 467 1264 q 464 1235 467 1243 q 456 1219 461 1228 q 401 1133 422 1171 q 372 1057 381 1094 q 363 971 364 1019 q 342 928 361 944 q 290 911 324 911 m 533 911 q 485 927 501 911 q 468 967 468 943 q 479 1043 468 1003 q 510 1125 490 1083 q 559 1205 531 1167 q 621 1272 588 1243 q 642 1285 632 1281 q 661 1290 651 1290 q 694 1277 678 1290 q 710 1249 710 1264 q 707 1235 710 1243 q 699 1219 704 1228 q 644 1133 665 1171 q 615 1057 624 1094 q 606 971 607 1019 q 585 928 604 944 q 533 911 567 911 z "},"”":{"ha":543,"x_min":206,"x_max":692,"o":"m 625 1290 q 675 1274 658 1290 q 692 1235 692 1258 q 681 1158 692 1199 q 649 1076 669 1118 q 600 996 628 1033 q 538 929 572 958 q 517 916 528 921 q 497 911 507 911 q 465 925 482 911 q 449 953 449 939 q 452 967 449 960 q 461 982 456 974 q 515 1069 496 1031 q 544 1145 535 1107 q 554 1231 553 1183 q 573 1274 554 1257 q 625 1290 592 1290 m 382 1290 q 432 1274 415 1290 q 449 1235 449 1258 q 438 1158 449 1199 q 406 1076 426 1118 q 357 996 385 1033 q 294 929 329 958 q 274 916 285 921 q 254 911 264 911 q 222 925 239 911 q 206 953 206 939 q 209 967 206 960 q 218 982 213 974 q 272 1069 253 1031 q 301 1145 292 1107 q 311 1231 310 1183 q 330 1274 311 1257 q 382 1290 349 1290 z "},"„":{"ha":544,"x_min":-81,"x_max":406,"o":"m 211 -256 q 180 -242 196 -256 q 164 -214 164 -228 q 166 -200 164 -207 q 174 -185 168 -193 q 229 -97 210 -135 q 258 -22 249 -60 q 268 64 267 17 q 288 107 269 90 q 340 124 306 124 q 389 108 372 124 q 406 68 406 92 q 386 -35 406 21 q 332 -144 367 -92 q 251 -236 297 -197 q 231 -251 242 -246 q 211 -256 221 -256 m -33 -256 q -65 -242 -49 -256 q -81 -214 -81 -228 q -78 -200 -81 -207 q -71 -185 -76 -193 q -15 -97 -35 -135 q 13 -22 4 -60 q 24 64 22 17 q 43 107 25 90 q 96 124 61 124 q 144 108 128 124 q 161 68 161 92 q 142 -35 161 21 q 88 -144 122 -92 q 7 -236 53 -197 q -13 -251 -3 -246 q -33 -256 -24 -256 z "},"«":{"ha":1007,"x_min":129,"x_max":968,"o":"m 365 -19 q 328 -11 344 -19 q 300 19 313 -3 l 150 297 q 133 327 138 317 q 129 343 129 338 q 140 366 129 354 q 176 401 151 378 l 468 678 q 511 707 492 699 q 551 715 531 715 q 595 703 578 715 q 617 675 613 692 q 601 640 621 658 l 272 328 l 419 56 q 419 3 436 26 q 365 -19 403 -19 m 713 -19 q 676 -11 692 -19 q 647 19 660 -3 l 497 297 q 481 327 485 317 q 476 343 476 338 q 488 366 476 354 q 524 401 499 378 l 815 678 q 858 707 839 699 q 899 715 878 715 q 942 703 925 715 q 964 675 960 692 q 949 640 968 658 l 619 328 l 767 56 q 767 3 783 26 q 713 -19 750 -19 z "},"»":{"ha":1007,"x_min":40,"x_max":879,"o":"m 108 -21 q 65 -9 83 -21 q 44 20 47 3 q 58 54 40 38 l 388 368 l 240 639 q 241 692 225 669 q 294 714 257 714 q 332 706 315 714 q 360 675 349 699 l 510 399 q 527 369 522 379 q 532 351 532 360 q 521 331 532 343 q 483 294 510 318 l 192 18 q 149 -12 169 -3 q 108 -21 129 -21 m 456 -21 q 413 -9 431 -21 q 391 20 394 3 q 406 54 388 38 l 735 368 l 588 639 q 588 692 572 669 q 642 714 604 714 q 679 706 663 714 q 707 675 696 699 l 857 399 q 874 369 869 379 q 879 351 879 360 q 868 331 879 343 q 831 294 857 318 l 539 18 q 497 -12 517 -3 q 456 -21 476 -21 z "},"‹":{"ha":660,"x_min":129,"x_max":621,"o":"m 365 -19 q 328 -11 344 -19 q 300 19 313 -3 l 150 297 q 133 327 138 317 q 129 343 129 338 q 140 366 129 354 q 176 401 151 378 l 468 678 q 511 707 492 699 q 551 715 531 715 q 595 703 578 715 q 617 675 613 692 q 601 640 621 658 l 272 328 l 419 56 q 419 3 436 26 q 365 -19 403 -19 z "},"›":{"ha":660,"x_min":40,"x_max":532,"o":"m 108 -21 q 65 -9 83 -21 q 44 20 47 3 q 58 54 40 38 l 388 368 l 240 639 q 241 692 225 669 q 294 714 257 714 q 332 706 315 714 q 360 675 349 699 l 510 399 q 527 369 522 379 q 532 351 532 360 q 521 331 532 343 q 483 294 510 318 l 192 18 q 149 -12 169 -3 q 108 -21 129 -21 z "},"Á":{"ha":1056,"x_min":-61,"x_max":950,"o":"m -1 -19 q -49 1 -37 -19 q -43 51 -61 22 l 649 1199 q 688 1242 668 1231 q 740 1254 707 1254 q 784 1241 768 1254 q 803 1186 800 1228 l 944 43 q 934 -2 950 15 q 882 -19 918 -19 q 841 -8 851 -19 q 825 32 831 4 l 790 339 l 267 339 l 83 35 q 47 -9 61 1 q -1 -19 33 -19 m 335 450 l 776 450 l 700 1061 l 335 450 m 671 1311 q 638 1331 657 1311 q 619 1364 619 1350 q 621 1374 619 1369 q 631 1388 622 1379 l 836 1586 q 849 1597 844 1593 q 863 1601 854 1601 q 894 1589 876 1601 q 926 1560 913 1576 q 939 1529 939 1543 q 936 1513 939 1519 q 918 1494 933 1506 l 697 1325 q 683 1315 689 1319 q 671 1311 676 1311 z "},"Ă":{"ha":1056,"x_min":-61,"x_max":1038,"o":"m -1 -19 q -49 1 -37 -19 q -43 51 -61 22 l 649 1199 q 688 1242 668 1231 q 740 1254 707 1254 q 784 1241 768 1254 q 803 1186 800 1228 l 944 43 q 934 -2 950 15 q 882 -19 918 -19 q 841 -8 851 -19 q 825 32 831 4 l 790 339 l 267 339 l 83 35 q 47 -9 61 1 q -1 -19 33 -19 m 335 450 l 776 450 l 700 1061 l 335 450 m 743 1310 q 586 1372 642 1310 q 539 1561 531 1435 q 553 1590 540 1581 q 589 1600 567 1600 q 622 1590 610 1600 q 635 1561 633 1579 q 672 1462 638 1493 q 760 1431 706 1431 q 867 1466 824 1431 q 935 1560 911 1501 q 956 1592 944 1583 q 988 1600 967 1600 q 1024 1588 1011 1600 q 1032 1554 1038 1575 q 968 1410 1007 1464 q 874 1333 929 1356 q 743 1310 819 1310 z "},"Ǎ":{"ha":1056,"x_min":-61,"x_max":1035,"o":"m -1 -19 q -49 1 -37 -19 q -43 51 -61 22 l 649 1199 q 688 1242 668 1231 q 740 1254 707 1254 q 784 1241 768 1254 q 803 1186 800 1228 l 944 43 q 934 -2 950 15 q 882 -19 918 -19 q 841 -8 851 -19 q 825 32 831 4 l 790 339 l 267 339 l 83 35 q 47 -9 61 1 q -1 -19 33 -19 m 335 450 l 776 450 l 700 1061 l 335 450 m 990 1601 q 1021 1585 1007 1601 q 1035 1553 1035 1568 q 1031 1535 1035 1542 q 1021 1522 1028 1528 l 806 1343 q 770 1319 788 1328 q 729 1311 753 1311 q 696 1321 710 1311 q 671 1347 682 1331 l 532 1531 q 524 1547 525 1540 q 522 1558 522 1554 q 542 1588 522 1575 q 575 1601 563 1601 q 596 1594 589 1601 q 611 1579 603 1588 l 750 1453 l 951 1581 q 970 1594 961 1586 q 990 1601 979 1601 z "},"Â":{"ha":1056,"x_min":-61,"x_max":1007,"o":"m -1 -19 q -49 1 -37 -19 q -43 51 -61 22 l 649 1199 q 688 1242 668 1231 q 740 1254 707 1254 q 784 1241 768 1254 q 803 1186 800 1228 l 944 43 q 934 -2 950 15 q 882 -19 918 -19 q 841 -8 851 -19 q 825 32 831 4 l 790 339 l 267 339 l 83 35 q 47 -9 61 1 q -1 -19 33 -19 m 335 450 l 776 450 l 700 1061 l 335 450 m 536 1311 q 508 1328 521 1311 q 494 1360 494 1344 q 498 1378 494 1371 q 508 1390 501 1385 l 722 1569 q 759 1594 742 1586 q 799 1601 776 1601 q 833 1592 819 1601 q 857 1567 847 1582 l 997 1383 q 1006 1367 1004 1374 q 1007 1353 1007 1360 q 989 1324 1007 1338 q 958 1311 971 1311 q 935 1318 944 1311 q 915 1333 926 1325 l 778 1461 l 576 1326 q 557 1316 567 1321 q 536 1311 547 1311 z "},"Ä":{"ha":1056,"x_min":-61,"x_max":1014,"o":"m -1 -19 q -49 1 -37 -19 q -43 51 -61 22 l 649 1199 q 688 1242 668 1231 q 740 1254 707 1254 q 784 1241 768 1254 q 803 1186 800 1228 l 944 43 q 934 -2 950 15 q 882 -19 918 -19 q 841 -8 851 -19 q 825 32 831 4 l 790 339 l 267 339 l 83 35 q 47 -9 61 1 q -1 -19 33 -19 m 335 450 l 776 450 l 700 1061 l 335 450 m 579 1356 q 528 1374 547 1356 q 508 1431 508 1393 q 533 1500 508 1469 q 604 1531 557 1531 q 654 1513 635 1531 q 674 1457 674 1494 q 651 1386 674 1417 q 579 1356 628 1356 m 918 1356 q 868 1374 888 1356 q 849 1431 849 1393 q 872 1500 849 1469 q 944 1531 896 1531 q 994 1513 974 1531 q 1014 1457 1014 1494 q 991 1386 1014 1417 q 918 1356 968 1356 z "},"Ǽ":{"ha":1354,"x_min":-60,"x_max":1513,"o":"m 1178 0 l 656 0 q 606 13 621 0 q 599 56 592 25 l 725 561 l 463 561 l 65 3 q 31 -19 51 -15 q -17 -17 11 -24 q -51 10 -42 -8 q -46 47 -60 28 l 774 1189 q 807 1223 790 1213 q 853 1233 824 1233 l 1483 1233 q 1506 1220 1500 1233 q 1507 1178 1513 1207 q 1488 1136 1500 1150 q 1458 1122 1475 1122 l 989 1122 l 876 672 l 1254 672 q 1277 659 1271 672 q 1278 617 1283 646 q 1259 575 1272 589 q 1229 561 1246 561 l 849 561 l 736 111 l 1203 111 q 1226 98 1219 111 q 1225 56 1232 85 q 1207 14 1219 28 q 1178 0 1194 0 m 542 672 l 754 672 l 867 1128 l 542 672 m 1108 1311 q 1076 1331 1094 1311 q 1057 1364 1057 1350 q 1058 1374 1057 1369 q 1068 1388 1060 1379 l 1274 1586 q 1287 1597 1282 1593 q 1300 1601 1292 1601 q 1332 1589 1314 1601 q 1363 1560 1350 1576 q 1376 1529 1376 1543 q 1374 1513 1376 1519 q 1356 1494 1371 1506 l 1135 1325 q 1120 1315 1126 1319 q 1108 1311 1114 1311 z "},"À":{"ha":1056,"x_min":-61,"x_max":950,"o":"m -1 -19 q -49 1 -37 -19 q -43 51 -61 22 l 649 1199 q 688 1242 668 1231 q 740 1254 707 1254 q 784 1241 768 1254 q 803 1186 800 1228 l 944 43 q 934 -2 950 15 q 882 -19 918 -19 q 841 -8 851 -19 q 825 32 831 4 l 790 339 l 267 339 l 83 35 q 47 -9 61 1 q -1 -19 33 -19 m 335 450 l 776 450 l 700 1061 l 335 450 m 807 1311 q 794 1315 801 1311 q 781 1325 788 1319 l 588 1496 q 570 1514 574 1507 q 567 1531 567 1521 q 581 1561 567 1544 q 613 1590 594 1578 q 643 1601 631 1601 q 658 1597 651 1601 q 671 1586 664 1593 l 849 1386 q 858 1373 857 1378 q 860 1363 860 1368 q 840 1331 860 1350 q 807 1311 821 1311 z "},"Ā":{"ha":1056,"x_min":-61,"x_max":996,"o":"m -1 -19 q -49 1 -37 -19 q -43 51 -61 22 l 649 1199 q 688 1242 668 1231 q 740 1254 707 1254 q 784 1241 768 1254 q 803 1186 800 1228 l 944 43 q 934 -2 950 15 q 882 -19 918 -19 q 841 -8 851 -19 q 825 32 831 4 l 790 339 l 267 339 l 83 35 q 47 -9 61 1 q -1 -19 33 -19 m 335 450 l 776 450 l 700 1061 l 335 450 m 571 1397 q 538 1413 544 1397 q 538 1454 532 1429 q 554 1500 543 1485 q 590 1515 565 1515 l 957 1515 q 990 1498 983 1515 q 990 1454 996 1481 q 974 1412 985 1426 q 938 1397 963 1397 l 571 1397 z "},"Ą":{"ha":1056,"x_min":-61,"x_max":950,"o":"m -1 -19 q -49 1 -37 -19 q -43 51 -61 22 l 649 1199 q 688 1242 668 1231 q 740 1254 707 1254 q 784 1241 768 1254 q 803 1186 800 1228 l 944 43 q 934 -2 950 15 q 882 -19 918 -19 q 841 -8 851 -19 q 825 32 831 4 l 790 339 l 267 339 l 83 35 q 47 -9 61 1 q -1 -19 33 -19 m 335 450 l 776 450 l 700 1061 l 335 450 m 697 -357 q 627 -333 653 -357 q 601 -267 601 -310 q 619 -197 601 -232 q 671 -126 638 -161 q 751 -53 704 -90 q 854 26 797 -15 l 940 25 l 940 17 q 857 -53 896 -19 q 789 -118 818 -87 q 743 -174 760 -149 q 726 -221 726 -200 q 734 -244 726 -236 q 756 -251 742 -251 q 804 -235 781 -251 q 860 -189 828 -218 q 883 -178 868 -181 q 913 -190 897 -176 q 928 -215 924 -201 q 924 -243 932 -229 q 861 -302 900 -276 q 779 -342 822 -328 q 697 -357 736 -357 z "},"Å":{"ha":1056,"x_min":-61,"x_max":965,"o":"m -1 -19 q -49 1 -37 -19 q -43 51 -61 22 l 649 1199 q 688 1242 668 1231 q 740 1254 707 1254 q 784 1241 768 1254 q 803 1186 800 1228 l 944 43 q 934 -2 950 15 q 882 -19 918 -19 q 841 -8 851 -19 q 825 32 831 4 l 790 339 l 267 339 l 83 35 q 47 -9 61 1 q -1 -19 33 -19 m 335 450 l 776 450 l 700 1061 l 335 450 m 747 1300 q 653 1319 693 1300 q 593 1372 614 1338 q 572 1454 572 1407 q 601 1547 572 1506 q 678 1613 629 1589 q 786 1638 726 1638 q 882 1619 842 1638 q 944 1566 922 1600 q 965 1483 965 1532 q 936 1389 965 1431 q 858 1324 907 1347 q 747 1300 810 1300 m 753 1383 q 832 1412 800 1383 q 864 1482 864 1440 q 843 1535 864 1515 q 782 1554 822 1554 q 705 1526 736 1554 q 674 1457 674 1497 q 695 1403 674 1424 q 753 1383 717 1383 z "},"Ã":{"ha":1056,"x_min":-61,"x_max":1029,"o":"m -1 -19 q -49 1 -37 -19 q -43 51 -61 22 l 649 1199 q 688 1242 668 1231 q 740 1254 707 1254 q 784 1241 768 1254 q 803 1186 800 1228 l 944 43 q 934 -2 950 15 q 882 -19 918 -19 q 841 -8 851 -19 q 825 32 831 4 l 790 339 l 267 339 l 83 35 q 47 -9 61 1 q -1 -19 33 -19 m 335 450 l 776 450 l 700 1061 l 335 450 m 547 1351 q 504 1389 503 1351 q 545 1523 511 1481 q 642 1565 579 1565 q 719 1551 683 1565 q 784 1516 754 1536 q 840 1481 814 1496 q 889 1467 867 1467 q 915 1482 903 1467 q 932 1532 926 1497 q 988 1567 936 1567 q 1020 1558 1011 1567 q 1028 1529 1029 1549 q 990 1397 1022 1440 q 892 1353 957 1353 q 813 1367 849 1353 q 747 1401 776 1382 q 692 1435 717 1421 q 643 1450 667 1450 q 614 1435 625 1450 q 599 1386 603 1419 q 584 1360 597 1368 q 547 1351 571 1351 z "},"Ắ":{"ha":1056,"x_min":-61,"x_max":1038,"o":"m -1 -19 q -49 1 -37 -19 q -43 51 -61 22 l 649 1199 q 688 1242 668 1231 q 740 1254 707 1254 q 784 1241 768 1254 q 803 1186 800 1228 l 944 43 q 934 -2 950 15 q 882 -19 918 -19 q 841 -8 851 -19 q 825 32 831 4 l 790 339 l 267 339 l 83 35 q 47 -9 61 1 q -1 -19 33 -19 m 335 450 l 776 450 l 700 1061 l 335 450 m 743 1310 q 586 1372 642 1310 q 539 1561 531 1435 q 553 1590 540 1581 q 589 1600 567 1600 q 622 1590 610 1600 q 635 1561 633 1579 q 672 1462 638 1493 q 760 1431 706 1431 q 867 1466 824 1431 q 935 1560 911 1501 q 956 1592 944 1583 q 988 1600 967 1600 q 1024 1588 1011 1600 q 1032 1554 1038 1575 q 968 1410 1007 1464 q 874 1333 929 1356 q 743 1310 819 1310 m 729 1579 q 696 1599 715 1579 q 676 1632 676 1618 q 678 1642 676 1638 q 689 1656 679 1647 l 894 1854 q 907 1865 901 1861 q 921 1869 913 1869 q 953 1857 935 1869 q 984 1828 971 1844 q 997 1797 997 1811 q 994 1781 997 1788 q 975 1763 990 1774 l 756 1593 q 741 1583 747 1588 q 729 1579 735 1579 z "},"Ặ":{"ha":1056,"x_min":-61,"x_max":1038,"o":"m -1 -19 q -49 1 -37 -19 q -43 51 -61 22 l 649 1199 q 688 1242 668 1231 q 740 1254 707 1254 q 784 1241 768 1254 q 803 1186 800 1228 l 944 43 q 934 -2 950 15 q 882 -19 918 -19 q 841 -8 851 -19 q 825 32 831 4 l 790 339 l 267 339 l 83 35 q 47 -9 61 1 q -1 -19 33 -19 m 335 450 l 776 450 l 700 1061 l 335 450 m 365 -324 q 315 -305 335 -324 q 296 -249 296 -286 q 319 -179 296 -210 q 392 -149 343 -149 q 442 -167 422 -149 q 461 -222 461 -186 q 438 -293 461 -262 q 365 -324 415 -324 m 743 1310 q 586 1372 642 1310 q 539 1561 531 1435 q 553 1590 540 1581 q 589 1600 567 1600 q 622 1590 610 1600 q 635 1561 633 1579 q 672 1462 638 1493 q 760 1431 706 1431 q 867 1466 824 1431 q 935 1560 911 1501 q 956 1592 944 1583 q 988 1600 967 1600 q 1024 1588 1011 1600 q 1032 1554 1038 1575 q 968 1410 1007 1464 q 874 1333 929 1356 q 743 1310 819 1310 z "},"Ằ":{"ha":1056,"x_min":-61,"x_max":1038,"o":"m -1 -19 q -49 1 -37 -19 q -43 51 -61 22 l 649 1199 q 688 1242 668 1231 q 740 1254 707 1254 q 784 1241 768 1254 q 803 1186 800 1228 l 944 43 q 934 -2 950 15 q 882 -19 918 -19 q 841 -8 851 -19 q 825 32 831 4 l 790 339 l 267 339 l 83 35 q 47 -9 61 1 q -1 -19 33 -19 m 335 450 l 776 450 l 700 1061 l 335 450 m 743 1310 q 586 1372 642 1310 q 539 1561 531 1435 q 553 1590 540 1581 q 589 1600 567 1600 q 622 1590 610 1600 q 635 1561 633 1579 q 672 1462 638 1493 q 760 1431 706 1431 q 867 1466 824 1431 q 935 1560 911 1501 q 956 1592 944 1583 q 988 1600 967 1600 q 1024 1588 1011 1600 q 1032 1554 1038 1575 q 968 1410 1007 1464 q 874 1333 929 1356 q 743 1310 819 1310 m 851 1575 q 839 1579 846 1575 q 825 1589 832 1583 l 632 1758 q 615 1776 618 1769 q 611 1793 611 1783 q 624 1824 611 1807 q 656 1853 638 1840 q 688 1865 674 1865 q 702 1861 696 1865 q 714 1850 708 1857 l 892 1650 q 903 1636 901 1640 q 904 1626 904 1632 q 885 1594 904 1613 q 851 1575 865 1575 z "},"Ẳ":{"ha":1056,"x_min":-61,"x_max":1038,"o":"m -1 -19 q -49 1 -37 -19 q -43 51 -61 22 l 649 1199 q 688 1242 668 1231 q 740 1254 707 1254 q 784 1241 768 1254 q 803 1186 800 1228 l 944 43 q 934 -2 950 15 q 882 -19 918 -19 q 841 -8 851 -19 q 825 32 831 4 l 790 339 l 267 339 l 83 35 q 47 -9 61 1 q -1 -19 33 -19 m 335 450 l 776 450 l 700 1061 l 335 450 m 743 1310 q 586 1372 642 1310 q 539 1561 531 1435 q 553 1590 540 1581 q 589 1600 567 1600 q 622 1590 610 1600 q 635 1561 633 1579 q 672 1462 638 1493 q 760 1431 706 1431 q 867 1466 824 1431 q 935 1560 911 1501 q 956 1592 944 1583 q 988 1600 967 1600 q 1024 1588 1011 1600 q 1032 1554 1038 1575 q 968 1410 1007 1464 q 874 1333 929 1356 q 743 1310 819 1310 m 828 1890 q 929 1861 892 1890 q 967 1781 967 1832 q 947 1711 967 1742 q 886 1653 926 1681 q 853 1626 863 1639 q 843 1600 844 1614 l 842 1583 q 827 1556 842 1565 q 794 1547 813 1547 q 762 1553 776 1546 q 743 1576 747 1561 l 738 1610 q 745 1667 732 1643 q 788 1711 758 1692 q 822 1740 811 1726 q 832 1765 832 1754 q 823 1783 832 1776 q 796 1789 814 1789 q 761 1783 781 1789 q 721 1769 742 1778 q 665 1794 686 1751 q 685 1853 650 1832 q 752 1881 717 1871 q 828 1890 788 1890 z "},"Ẵ":{"ha":1056,"x_min":-61,"x_max":1076,"o":"m -1 -19 q -49 1 -37 -19 q -43 51 -61 22 l 649 1199 q 688 1242 668 1231 q 740 1254 707 1254 q 784 1241 768 1254 q 803 1186 800 1228 l 944 43 q 934 -2 950 15 q 882 -19 918 -19 q 841 -8 851 -19 q 825 32 831 4 l 790 339 l 267 339 l 83 35 q 47 -9 61 1 q -1 -19 33 -19 m 335 450 l 776 450 l 700 1061 l 335 450 m 743 1310 q 586 1372 642 1310 q 539 1561 531 1435 q 553 1590 540 1581 q 589 1600 567 1600 q 622 1590 610 1600 q 635 1561 633 1579 q 672 1462 638 1493 q 760 1431 706 1431 q 867 1466 824 1431 q 935 1560 911 1501 q 956 1592 944 1583 q 988 1600 967 1600 q 1024 1588 1011 1600 q 1032 1554 1038 1575 q 968 1410 1007 1464 q 874 1333 929 1356 q 743 1310 819 1310 m 594 1643 q 551 1682 550 1643 q 592 1815 558 1774 q 689 1857 626 1857 q 766 1842 731 1857 q 831 1808 801 1828 q 888 1773 861 1788 q 936 1758 914 1758 q 962 1774 950 1758 q 979 1824 974 1790 q 1033 1858 983 1858 q 1067 1849 1057 1858 q 1075 1822 1076 1840 q 1037 1688 1069 1732 q 939 1644 1004 1644 q 860 1659 896 1644 q 794 1693 824 1674 q 739 1727 764 1713 q 690 1742 714 1742 q 661 1726 672 1742 q 646 1678 650 1711 q 631 1652 644 1661 q 594 1643 618 1643 z "},"Ấ":{"ha":1056,"x_min":-61,"x_max":1236,"o":"m -1 -19 q -49 1 -37 -19 q -43 51 -61 22 l 649 1199 q 688 1242 668 1231 q 740 1254 707 1254 q 784 1241 768 1254 q 803 1186 800 1228 l 944 43 q 934 -2 950 15 q 882 -19 918 -19 q 841 -8 851 -19 q 825 32 831 4 l 790 339 l 267 339 l 83 35 q 47 -9 61 1 q -1 -19 33 -19 m 335 450 l 776 450 l 700 1061 l 335 450 m 536 1311 q 508 1328 521 1311 q 494 1360 494 1344 q 498 1378 494 1371 q 508 1390 501 1385 l 722 1569 q 759 1594 742 1586 q 799 1601 776 1601 q 833 1592 819 1601 q 857 1567 847 1582 l 997 1383 q 1006 1367 1004 1374 q 1007 1353 1007 1360 q 989 1324 1007 1338 q 958 1311 971 1311 q 935 1318 944 1311 q 915 1333 926 1325 l 778 1461 l 576 1326 q 557 1316 567 1321 q 536 1311 547 1311 m 999 1531 q 965 1549 985 1531 q 946 1582 946 1568 q 947 1592 946 1588 q 958 1607 949 1597 l 1135 1782 q 1147 1794 1142 1790 q 1161 1799 1153 1799 q 1193 1786 1175 1799 q 1224 1756 1211 1774 q 1238 1725 1238 1739 q 1234 1708 1238 1715 q 1215 1690 1231 1701 l 1025 1544 q 1010 1534 1017 1538 q 999 1531 1004 1531 z "},"Ậ":{"ha":1056,"x_min":-61,"x_max":1007,"o":"m -1 -19 q -49 1 -37 -19 q -43 51 -61 22 l 649 1199 q 688 1242 668 1231 q 740 1254 707 1254 q 784 1241 768 1254 q 803 1186 800 1228 l 944 43 q 934 -2 950 15 q 882 -19 918 -19 q 841 -8 851 -19 q 825 32 831 4 l 790 339 l 267 339 l 83 35 q 47 -9 61 1 q -1 -19 33 -19 m 335 450 l 776 450 l 700 1061 l 335 450 m 365 -324 q 315 -305 335 -324 q 296 -249 296 -286 q 319 -179 296 -210 q 392 -149 343 -149 q 442 -167 422 -149 q 461 -222 461 -186 q 438 -293 461 -262 q 365 -324 415 -324 m 536 1311 q 508 1328 521 1311 q 494 1360 494 1344 q 498 1378 494 1371 q 508 1390 501 1385 l 722 1569 q 759 1594 742 1586 q 799 1601 776 1601 q 833 1592 819 1601 q 857 1567 847 1582 l 997 1383 q 1006 1367 1004 1374 q 1007 1353 1007 1360 q 989 1324 1007 1338 q 958 1311 971 1311 q 935 1318 944 1311 q 915 1333 926 1325 l 778 1461 l 576 1326 q 557 1316 567 1321 q 536 1311 547 1311 z "},"Ầ":{"ha":1056,"x_min":-61,"x_max":1128,"o":"m -1 -19 q -49 1 -37 -19 q -43 51 -61 22 l 649 1199 q 688 1242 668 1231 q 740 1254 707 1254 q 784 1241 768 1254 q 803 1186 800 1228 l 944 43 q 934 -2 950 15 q 882 -19 918 -19 q 841 -8 851 -19 q 825 32 831 4 l 790 339 l 267 339 l 83 35 q 47 -9 61 1 q -1 -19 33 -19 m 335 450 l 776 450 l 700 1061 l 335 450 m 536 1311 q 508 1328 521 1311 q 494 1360 494 1344 q 498 1378 494 1371 q 508 1390 501 1385 l 722 1569 q 759 1594 742 1586 q 799 1601 776 1601 q 833 1592 819 1601 q 857 1567 847 1582 l 997 1383 q 1006 1367 1004 1374 q 1007 1353 1007 1360 q 989 1324 1007 1338 q 958 1311 971 1311 q 935 1318 944 1311 q 915 1333 926 1325 l 778 1461 l 576 1326 q 557 1316 567 1321 q 536 1311 547 1311 m 1074 1507 q 1062 1510 1068 1507 q 1049 1521 1056 1514 l 876 1710 q 860 1728 865 1722 q 856 1744 856 1735 q 869 1776 856 1760 q 901 1803 882 1793 q 936 1814 921 1814 q 951 1810 943 1814 q 964 1799 958 1806 l 1117 1586 q 1126 1569 1124 1574 q 1128 1558 1128 1564 q 1110 1526 1128 1544 q 1074 1507 1092 1507 z "},"Ẩ":{"ha":1056,"x_min":-61,"x_max":1199,"o":"m -1 -19 q -49 1 -37 -19 q -43 51 -61 22 l 649 1199 q 688 1242 668 1231 q 740 1254 707 1254 q 784 1241 768 1254 q 803 1186 800 1228 l 944 43 q 934 -2 950 15 q 882 -19 918 -19 q 841 -8 851 -19 q 825 32 831 4 l 790 339 l 267 339 l 83 35 q 47 -9 61 1 q -1 -19 33 -19 m 335 450 l 776 450 l 700 1061 l 335 450 m 536 1311 q 508 1328 521 1311 q 494 1360 494 1344 q 498 1378 494 1371 q 508 1390 501 1385 l 722 1569 q 759 1594 742 1586 q 799 1601 776 1601 q 833 1592 819 1601 q 857 1567 847 1582 l 997 1383 q 1006 1367 1004 1374 q 1007 1353 1007 1360 q 989 1324 1007 1338 q 958 1311 971 1311 q 935 1318 944 1311 q 915 1333 926 1325 l 778 1461 l 576 1326 q 557 1316 567 1321 q 536 1311 547 1311 m 1060 1832 q 1161 1803 1124 1832 q 1199 1722 1199 1774 q 1178 1653 1199 1683 q 1118 1596 1158 1622 q 1085 1569 1094 1581 q 1075 1542 1076 1557 l 1074 1525 q 1059 1499 1074 1508 q 1026 1489 1044 1490 q 994 1495 1008 1488 q 975 1519 979 1503 l 969 1553 q 977 1609 964 1585 q 1019 1654 990 1633 q 1053 1682 1043 1668 q 1064 1707 1064 1696 q 1055 1724 1064 1718 q 1028 1731 1046 1731 q 993 1725 1013 1731 q 953 1711 974 1719 q 897 1738 918 1693 q 917 1796 882 1774 q 984 1822 949 1813 q 1060 1832 1019 1832 z "},"Ẫ":{"ha":1056,"x_min":-61,"x_max":1079,"o":"m -1 -19 q -49 1 -37 -19 q -43 51 -61 22 l 649 1199 q 688 1242 668 1231 q 740 1254 707 1254 q 784 1241 768 1254 q 803 1186 800 1228 l 944 43 q 934 -2 950 15 q 882 -19 918 -19 q 841 -8 851 -19 q 825 32 831 4 l 790 339 l 267 339 l 83 35 q 47 -9 61 1 q -1 -19 33 -19 m 335 450 l 776 450 l 700 1061 l 335 450 m 536 1311 q 508 1328 521 1311 q 494 1360 494 1344 q 498 1378 494 1371 q 508 1390 501 1385 l 722 1569 q 759 1594 742 1586 q 799 1601 776 1601 q 833 1592 819 1601 q 857 1567 847 1582 l 997 1383 q 1006 1367 1004 1374 q 1007 1353 1007 1360 q 989 1324 1007 1338 q 958 1311 971 1311 q 935 1318 944 1311 q 915 1333 926 1325 l 778 1461 l 576 1326 q 557 1316 567 1321 q 536 1311 547 1311 m 597 1618 q 554 1656 553 1618 q 594 1790 560 1747 q 690 1832 628 1832 q 768 1817 732 1832 q 834 1783 804 1803 q 890 1748 864 1763 q 939 1733 917 1733 q 965 1749 953 1733 q 981 1799 976 1765 q 1036 1833 986 1833 q 1069 1824 1060 1833 q 1078 1797 1079 1815 q 1040 1663 1072 1707 q 942 1619 1007 1619 q 862 1634 897 1619 q 797 1668 826 1649 q 742 1702 767 1688 q 692 1717 717 1717 q 664 1701 675 1717 q 649 1653 653 1686 q 633 1627 647 1636 q 597 1618 619 1618 z "},"Ạ":{"ha":1056,"x_min":-61,"x_max":950,"o":"m -1 -19 q -49 1 -37 -19 q -43 51 -61 22 l 649 1199 q 688 1242 668 1231 q 740 1254 707 1254 q 784 1241 768 1254 q 803 1186 800 1228 l 944 43 q 934 -2 950 15 q 882 -19 918 -19 q 841 -8 851 -19 q 825 32 831 4 l 790 339 l 267 339 l 83 35 q 47 -9 61 1 q -1 -19 33 -19 m 335 450 l 776 450 l 700 1061 l 335 450 m 365 -324 q 315 -305 335 -324 q 296 -249 296 -286 q 319 -179 296 -210 q 392 -149 343 -149 q 442 -167 422 -149 q 461 -222 461 -186 q 438 -293 461 -262 q 365 -324 415 -324 z "},"Ả":{"ha":1056,"x_min":-61,"x_max":950,"o":"m -1 -19 q -49 1 -37 -19 q -43 51 -61 22 l 649 1199 q 688 1242 668 1231 q 740 1254 707 1254 q 784 1241 768 1254 q 803 1186 800 1228 l 944 43 q 934 -2 950 15 q 882 -19 918 -19 q 841 -8 851 -19 q 825 32 831 4 l 790 339 l 267 339 l 83 35 q 47 -9 61 1 q -1 -19 33 -19 m 335 450 l 776 450 l 700 1061 l 335 450 m 786 1640 q 888 1611 851 1640 q 925 1531 925 1582 q 906 1461 925 1492 q 844 1404 886 1431 q 812 1377 821 1389 q 803 1351 803 1365 l 801 1333 q 786 1308 800 1317 q 754 1297 772 1299 q 722 1304 736 1296 q 703 1328 707 1313 l 697 1361 q 705 1419 692 1394 q 747 1463 718 1443 q 781 1491 769 1478 q 792 1515 792 1504 q 783 1533 792 1526 q 756 1539 774 1539 q 720 1534 740 1539 q 679 1519 700 1529 q 624 1546 646 1501 q 643 1604 610 1583 q 712 1631 676 1621 q 786 1640 747 1640 z "},"Ć":{"ha":1090,"x_min":163,"x_max":1200,"o":"m 593 -26 q 414 8 493 -26 q 278 106 335 42 q 192 263 221 171 q 163 468 163 354 q 181 643 163 553 q 238 822 200 733 q 334 988 276 910 q 467 1126 392 1065 q 636 1220 542 1186 q 843 1254 731 1254 q 984 1238 919 1254 q 1100 1188 1049 1222 q 1189 1101 1151 1154 q 1194 1074 1200 1086 q 1169 1047 1188 1063 q 1136 1030 1150 1032 q 1104 1043 1122 1028 q 1034 1094 1074 1074 q 944 1126 994 1115 q 826 1136 893 1136 q 676 1109 746 1136 q 546 1033 606 1082 q 440 922 486 985 q 360 785 393 858 q 310 636 326 713 q 293 485 293 560 q 313 314 293 388 q 372 191 332 240 q 471 117 411 142 q 610 92 531 92 q 709 108 663 92 q 799 152 756 124 q 883 220 842 181 q 967 307 925 260 q 998 318 982 324 q 1031 297 1014 313 q 1052 266 1050 279 q 1040 233 1054 253 q 884 78 963 135 q 732 -3 806 21 q 593 -26 658 -26 m 793 1311 q 760 1331 779 1311 q 742 1364 742 1350 q 743 1374 742 1369 q 753 1388 744 1379 l 958 1586 q 972 1597 967 1593 q 985 1601 976 1601 q 1017 1589 999 1601 q 1048 1560 1035 1576 q 1061 1529 1061 1543 q 1058 1513 1061 1519 q 1040 1494 1056 1506 l 819 1325 q 805 1315 811 1319 q 793 1311 799 1311 z "},"Č":{"ha":1090,"x_min":163,"x_max":1200,"o":"m 593 -26 q 414 8 493 -26 q 278 106 335 42 q 192 263 221 171 q 163 468 163 354 q 181 643 163 553 q 238 822 200 733 q 334 988 276 910 q 467 1126 392 1065 q 636 1220 542 1186 q 843 1254 731 1254 q 984 1238 919 1254 q 1100 1188 1049 1222 q 1189 1101 1151 1154 q 1194 1074 1200 1086 q 1169 1047 1188 1063 q 1136 1030 1150 1032 q 1104 1043 1122 1028 q 1034 1094 1074 1074 q 944 1126 994 1115 q 826 1136 893 1136 q 676 1109 746 1136 q 546 1033 606 1082 q 440 922 486 985 q 360 785 393 858 q 310 636 326 713 q 293 485 293 560 q 313 314 293 388 q 372 191 332 240 q 471 117 411 142 q 610 92 531 92 q 709 108 663 92 q 799 152 756 124 q 883 220 842 181 q 967 307 925 260 q 998 318 982 324 q 1031 297 1014 313 q 1052 266 1050 279 q 1040 233 1054 253 q 884 78 963 135 q 732 -3 806 21 q 593 -26 658 -26 m 1113 1601 q 1143 1585 1129 1601 q 1157 1553 1157 1568 q 1153 1535 1157 1542 q 1143 1522 1150 1528 l 928 1343 q 892 1319 910 1328 q 851 1311 875 1311 q 818 1321 832 1311 q 793 1347 804 1331 l 654 1531 q 646 1547 647 1540 q 644 1558 644 1554 q 665 1588 644 1575 q 697 1601 685 1601 q 718 1594 711 1601 q 733 1579 725 1588 l 872 1453 l 1074 1581 q 1092 1594 1083 1586 q 1113 1601 1101 1601 z "},"Ç":{"ha":1090,"x_min":163,"x_max":1200,"o":"m 593 -26 q 414 8 493 -26 q 278 106 335 42 q 192 263 221 171 q 163 468 163 354 q 181 643 163 553 q 238 822 200 733 q 334 988 276 910 q 467 1126 392 1065 q 636 1220 542 1186 q 843 1254 731 1254 q 984 1238 919 1254 q 1100 1188 1049 1222 q 1189 1101 1151 1154 q 1194 1074 1200 1086 q 1169 1047 1188 1063 q 1136 1030 1150 1032 q 1104 1043 1122 1028 q 1034 1094 1074 1074 q 944 1126 994 1115 q 826 1136 893 1136 q 676 1109 746 1136 q 546 1033 606 1082 q 440 922 486 985 q 360 785 393 858 q 310 636 326 713 q 293 485 293 560 q 313 314 293 388 q 372 191 332 240 q 471 117 411 142 q 610 92 531 92 q 709 108 663 92 q 799 152 756 124 q 883 220 842 181 q 967 307 925 260 q 998 318 982 324 q 1031 297 1014 313 q 1052 266 1050 279 q 1040 233 1054 253 q 884 78 963 135 q 732 -3 806 21 q 593 -26 658 -26 m 467 -374 q 381 -364 422 -374 q 313 -335 339 -354 q 301 -307 300 -324 q 308 -276 301 -290 q 330 -252 318 -258 q 357 -253 342 -246 q 400 -269 374 -260 q 467 -278 426 -278 q 523 -267 504 -278 q 542 -229 542 -257 q 516 -192 542 -201 q 447 -187 490 -182 q 425 -185 432 -189 q 413 -172 418 -181 q 408 -153 407 -162 q 415 -135 410 -144 l 510 18 l 600 18 l 501 -146 l 461 -124 q 567 -111 522 -103 q 635 -148 611 -119 q 658 -218 658 -176 q 633 -303 658 -268 q 565 -356 608 -337 q 467 -374 521 -374 z "},"Ĉ":{"ha":1090,"x_min":163,"x_max":1200,"o":"m 593 -26 q 414 8 493 -26 q 278 106 335 42 q 192 263 221 171 q 163 468 163 354 q 181 643 163 553 q 238 822 200 733 q 334 988 276 910 q 467 1126 392 1065 q 636 1220 542 1186 q 843 1254 731 1254 q 984 1238 919 1254 q 1100 1188 1049 1222 q 1189 1101 1151 1154 q 1194 1074 1200 1086 q 1169 1047 1188 1063 q 1136 1030 1150 1032 q 1104 1043 1122 1028 q 1034 1094 1074 1074 q 944 1126 994 1115 q 826 1136 893 1136 q 676 1109 746 1136 q 546 1033 606 1082 q 440 922 486 985 q 360 785 393 858 q 310 636 326 713 q 293 485 293 560 q 313 314 293 388 q 372 191 332 240 q 471 117 411 142 q 610 92 531 92 q 709 108 663 92 q 799 152 756 124 q 883 220 842 181 q 967 307 925 260 q 998 318 982 324 q 1031 297 1014 313 q 1052 266 1050 279 q 1040 233 1054 253 q 884 78 963 135 q 732 -3 806 21 q 593 -26 658 -26 m 658 1311 q 630 1328 643 1311 q 617 1360 617 1344 q 620 1378 617 1371 q 631 1390 624 1385 l 844 1569 q 881 1594 864 1586 q 921 1601 899 1601 q 956 1592 942 1601 q 979 1567 969 1582 l 1119 1383 q 1128 1367 1126 1374 q 1129 1353 1129 1360 q 1111 1324 1129 1338 q 1081 1311 1093 1311 q 1058 1318 1067 1311 q 1038 1333 1049 1325 l 900 1461 l 699 1326 q 679 1316 689 1321 q 658 1311 669 1311 z "},"Ċ":{"ha":1090,"x_min":163,"x_max":1200,"o":"m 593 -26 q 414 8 493 -26 q 278 106 335 42 q 192 263 221 171 q 163 468 163 354 q 181 643 163 553 q 238 822 200 733 q 334 988 276 910 q 467 1126 392 1065 q 636 1220 542 1186 q 843 1254 731 1254 q 984 1238 919 1254 q 1100 1188 1049 1222 q 1189 1101 1151 1154 q 1194 1074 1200 1086 q 1169 1047 1188 1063 q 1136 1030 1150 1032 q 1104 1043 1122 1028 q 1034 1094 1074 1074 q 944 1126 994 1115 q 826 1136 893 1136 q 676 1109 746 1136 q 546 1033 606 1082 q 440 922 486 985 q 360 785 393 858 q 310 636 326 713 q 293 485 293 560 q 313 314 293 388 q 372 191 332 240 q 471 117 411 142 q 610 92 531 92 q 709 108 663 92 q 799 152 756 124 q 883 220 842 181 q 967 307 925 260 q 998 318 982 324 q 1031 297 1014 313 q 1052 266 1050 279 q 1040 233 1054 253 q 884 78 963 135 q 732 -3 806 21 q 593 -26 658 -26 m 872 1356 q 822 1374 842 1356 q 803 1431 803 1393 q 826 1500 803 1469 q 899 1531 850 1531 q 947 1513 928 1531 q 967 1457 967 1494 q 945 1386 968 1417 q 872 1356 922 1356 z "},"Ď":{"ha":1222,"x_min":88,"x_max":1203,"o":"m 150 0 q 99 39 88 0 l 392 1196 q 415 1224 397 1215 q 463 1233 432 1233 l 686 1233 q 915 1199 818 1233 q 1077 1106 1013 1165 q 1172 969 1142 1046 q 1203 807 1203 893 q 1163 540 1203 664 q 1050 318 1124 417 q 876 148 976 219 q 652 38 775 76 q 393 0 529 0 l 150 0 m 240 118 l 393 118 q 601 148 501 118 q 787 236 701 178 q 935 378 872 294 q 1032 570 997 463 q 1067 807 1067 678 q 1040 935 1067 878 q 964 1032 1014 992 q 843 1094 914 1072 q 685 1115 772 1115 l 493 1115 l 240 118 m 1057 1601 q 1088 1585 1074 1601 q 1101 1553 1101 1568 q 1098 1535 1101 1542 q 1088 1522 1094 1528 l 872 1343 q 837 1319 854 1328 q 796 1311 819 1311 q 763 1321 776 1311 q 738 1347 749 1331 l 599 1531 q 590 1547 592 1540 q 589 1558 589 1554 q 609 1588 589 1575 q 642 1601 629 1601 q 663 1594 656 1601 q 678 1579 669 1588 l 817 1453 l 1018 1581 q 1037 1594 1028 1586 q 1057 1601 1046 1601 z "},"Đ":{"ha":1219,"x_min":88,"x_max":1203,"o":"m 150 0 q 99 39 88 0 l 392 1196 q 415 1224 397 1215 q 463 1233 432 1233 l 686 1233 q 915 1199 818 1233 q 1077 1106 1013 1165 q 1172 969 1142 1046 q 1203 807 1203 893 q 1163 540 1203 664 q 1050 318 1124 417 q 876 148 976 219 q 652 38 775 76 q 393 0 529 0 l 150 0 m 240 118 l 393 118 q 601 148 501 118 q 787 236 701 178 q 935 378 872 294 q 1032 570 997 463 q 1067 807 1067 678 q 1040 935 1067 878 q 964 1032 1014 992 q 843 1094 914 1072 q 685 1115 772 1115 l 493 1115 l 240 118 m 126 572 q 98 588 101 572 q 97 621 94 603 q 109 657 100 640 q 144 674 118 674 l 656 674 q 684 657 681 674 q 685 621 688 640 q 673 588 682 603 q 639 572 664 572 l 126 572 z "},"É":{"ha":932,"x_min":97,"x_max":1090,"o":"m 161 0 q 112 13 126 0 q 106 56 97 25 l 390 1196 q 410 1224 394 1214 q 454 1233 426 1233 l 1061 1233 q 1084 1220 1078 1233 q 1083 1178 1090 1207 q 1065 1136 1078 1150 q 1036 1122 1053 1122 l 494 1122 l 389 708 l 839 708 q 862 694 856 708 q 864 653 868 681 q 844 610 857 624 q 815 597 831 597 l 363 597 l 242 111 l 779 111 q 802 98 796 111 q 803 56 808 85 q 784 14 797 28 q 756 0 771 0 l 161 0 m 693 1311 q 660 1331 679 1311 q 642 1364 642 1350 q 643 1374 642 1369 q 653 1388 644 1379 l 858 1586 q 872 1597 867 1593 q 885 1601 876 1601 q 917 1589 899 1601 q 948 1560 935 1576 q 961 1529 961 1543 q 958 1513 961 1519 q 940 1494 956 1506 l 719 1325 q 705 1315 711 1319 q 693 1311 699 1311 z "},"Ĕ":{"ha":932,"x_min":97,"x_max":1090,"o":"m 161 0 q 112 13 126 0 q 106 56 97 25 l 390 1196 q 410 1224 394 1214 q 454 1233 426 1233 l 1061 1233 q 1084 1220 1078 1233 q 1083 1178 1090 1207 q 1065 1136 1078 1150 q 1036 1122 1053 1122 l 494 1122 l 389 708 l 839 708 q 862 694 856 708 q 864 653 868 681 q 844 610 857 624 q 815 597 831 597 l 363 597 l 242 111 l 779 111 q 802 98 796 111 q 803 56 808 85 q 784 14 797 28 q 756 0 771 0 l 161 0 m 765 1310 q 608 1372 664 1310 q 561 1561 553 1435 q 576 1590 563 1581 q 611 1600 589 1600 q 644 1590 632 1600 q 657 1561 656 1579 q 694 1462 660 1493 q 782 1431 728 1431 q 890 1466 846 1431 q 957 1560 933 1501 q 978 1592 967 1583 q 1010 1600 989 1600 q 1047 1588 1033 1600 q 1054 1554 1060 1575 q 990 1410 1029 1464 q 897 1333 951 1356 q 765 1310 842 1310 z "},"Ě":{"ha":932,"x_min":97,"x_max":1090,"o":"m 161 0 q 112 13 126 0 q 106 56 97 25 l 390 1196 q 410 1224 394 1214 q 454 1233 426 1233 l 1061 1233 q 1084 1220 1078 1233 q 1083 1178 1090 1207 q 1065 1136 1078 1150 q 1036 1122 1053 1122 l 494 1122 l 389 708 l 839 708 q 862 694 856 708 q 864 653 868 681 q 844 610 857 624 q 815 597 831 597 l 363 597 l 242 111 l 779 111 q 802 98 796 111 q 803 56 808 85 q 784 14 797 28 q 756 0 771 0 l 161 0 m 1013 1601 q 1043 1585 1029 1601 q 1057 1553 1057 1568 q 1053 1535 1057 1542 q 1043 1522 1050 1528 l 828 1343 q 792 1319 810 1328 q 751 1311 775 1311 q 718 1321 732 1311 q 693 1347 704 1331 l 554 1531 q 546 1547 547 1540 q 544 1558 544 1554 q 565 1588 544 1575 q 597 1601 585 1601 q 618 1594 611 1601 q 633 1579 625 1588 l 772 1453 l 974 1581 q 992 1594 983 1586 q 1013 1601 1001 1601 z "},"Ê":{"ha":932,"x_min":97,"x_max":1090,"o":"m 161 0 q 112 13 126 0 q 106 56 97 25 l 390 1196 q 410 1224 394 1214 q 454 1233 426 1233 l 1061 1233 q 1084 1220 1078 1233 q 1083 1178 1090 1207 q 1065 1136 1078 1150 q 1036 1122 1053 1122 l 494 1122 l 389 708 l 839 708 q 862 694 856 708 q 864 653 868 681 q 844 610 857 624 q 815 597 831 597 l 363 597 l 242 111 l 779 111 q 802 98 796 111 q 803 56 808 85 q 784 14 797 28 q 756 0 771 0 l 161 0 m 558 1311 q 530 1328 543 1311 q 517 1360 517 1344 q 520 1378 517 1371 q 531 1390 524 1385 l 744 1569 q 781 1594 764 1586 q 821 1601 799 1601 q 856 1592 842 1601 q 879 1567 869 1582 l 1019 1383 q 1028 1367 1026 1374 q 1029 1353 1029 1360 q 1011 1324 1029 1338 q 981 1311 993 1311 q 958 1318 967 1311 q 938 1333 949 1325 l 800 1461 l 599 1326 q 579 1316 589 1321 q 558 1311 569 1311 z "},"Ë":{"ha":932,"x_min":97,"x_max":1090,"o":"m 161 0 q 112 13 126 0 q 106 56 97 25 l 390 1196 q 410 1224 394 1214 q 454 1233 426 1233 l 1061 1233 q 1084 1220 1078 1233 q 1083 1178 1090 1207 q 1065 1136 1078 1150 q 1036 1122 1053 1122 l 494 1122 l 389 708 l 839 708 q 862 694 856 708 q 864 653 868 681 q 844 610 857 624 q 815 597 831 597 l 363 597 l 242 111 l 779 111 q 802 98 796 111 q 803 56 808 85 q 784 14 797 28 q 756 0 771 0 l 161 0 m 601 1356 q 550 1374 569 1356 q 531 1431 531 1393 q 555 1500 531 1469 q 626 1531 579 1531 q 676 1513 657 1531 q 696 1457 696 1494 q 673 1386 696 1417 q 601 1356 650 1356 m 940 1356 q 890 1374 910 1356 q 871 1431 871 1393 q 894 1500 871 1469 q 967 1531 918 1531 q 1016 1513 996 1531 q 1036 1457 1036 1494 q 1013 1386 1036 1417 q 940 1356 990 1356 z "},"Ė":{"ha":932,"x_min":97,"x_max":1090,"o":"m 161 0 q 112 13 126 0 q 106 56 97 25 l 390 1196 q 410 1224 394 1214 q 454 1233 426 1233 l 1061 1233 q 1084 1220 1078 1233 q 1083 1178 1090 1207 q 1065 1136 1078 1150 q 1036 1122 1053 1122 l 494 1122 l 389 708 l 839 708 q 862 694 856 708 q 864 653 868 681 q 844 610 857 624 q 815 597 831 597 l 363 597 l 242 111 l 779 111 q 802 98 796 111 q 803 56 808 85 q 784 14 797 28 q 756 0 771 0 l 161 0 m 772 1356 q 722 1374 742 1356 q 703 1431 703 1393 q 726 1500 703 1469 q 799 1531 750 1531 q 847 1513 828 1531 q 867 1457 867 1494 q 845 1386 868 1417 q 772 1356 822 1356 z "},"È":{"ha":932,"x_min":97,"x_max":1090,"o":"m 161 0 q 112 13 126 0 q 106 56 97 25 l 390 1196 q 410 1224 394 1214 q 454 1233 426 1233 l 1061 1233 q 1084 1220 1078 1233 q 1083 1178 1090 1207 q 1065 1136 1078 1150 q 1036 1122 1053 1122 l 494 1122 l 389 708 l 839 708 q 862 694 856 708 q 864 653 868 681 q 844 610 857 624 q 815 597 831 597 l 363 597 l 242 111 l 779 111 q 802 98 796 111 q 803 56 808 85 q 784 14 797 28 q 756 0 771 0 l 161 0 m 829 1311 q 817 1315 824 1311 q 803 1325 810 1319 l 610 1496 q 592 1514 596 1507 q 589 1531 589 1521 q 603 1561 589 1544 q 635 1590 617 1578 q 665 1601 653 1601 q 680 1597 674 1601 q 693 1586 686 1593 l 871 1386 q 881 1373 879 1378 q 882 1363 882 1368 q 863 1331 882 1350 q 829 1311 843 1311 z "},"Ē":{"ha":932,"x_min":97,"x_max":1090,"o":"m 161 0 q 112 13 126 0 q 106 56 97 25 l 390 1196 q 410 1224 394 1214 q 454 1233 426 1233 l 1061 1233 q 1084 1220 1078 1233 q 1083 1178 1090 1207 q 1065 1136 1078 1150 q 1036 1122 1053 1122 l 494 1122 l 389 708 l 839 708 q 862 694 856 708 q 864 653 868 681 q 844 610 857 624 q 815 597 831 597 l 363 597 l 242 111 l 779 111 q 802 98 796 111 q 803 56 808 85 q 784 14 797 28 q 756 0 771 0 l 161 0 m 593 1397 q 560 1413 567 1397 q 560 1454 554 1429 q 576 1500 565 1485 q 613 1515 588 1515 l 979 1515 q 1012 1498 1006 1515 q 1013 1454 1018 1481 q 996 1412 1007 1426 q 960 1397 985 1397 l 593 1397 z "},"Ę":{"ha":932,"x_min":97,"x_max":1090,"o":"m 161 0 q 112 13 126 0 q 106 56 97 25 l 390 1196 q 410 1224 394 1214 q 454 1233 426 1233 l 1061 1233 q 1084 1220 1078 1233 q 1083 1178 1090 1207 q 1065 1136 1078 1150 q 1036 1122 1053 1122 l 494 1122 l 389 708 l 839 708 q 862 694 856 708 q 864 653 868 681 q 844 610 857 624 q 815 597 831 597 l 363 597 l 242 111 l 779 111 q 802 98 796 111 q 803 56 808 85 q 784 14 797 28 q 756 0 771 0 l 161 0 m 543 -350 q 473 -326 499 -350 q 447 -260 447 -303 q 465 -190 447 -225 q 517 -119 483 -154 q 597 -46 550 -83 q 700 33 643 -8 l 786 32 l 786 24 q 703 -47 742 -12 q 635 -111 664 -81 q 589 -167 606 -142 q 572 -214 572 -193 q 580 -237 572 -229 q 601 -244 588 -244 q 650 -228 626 -244 q 706 -182 674 -211 q 728 -172 714 -174 q 758 -183 743 -169 q 774 -208 769 -194 q 769 -236 778 -222 q 707 -295 746 -269 q 625 -335 668 -321 q 543 -350 582 -350 z "},"Ế":{"ha":932,"x_min":97,"x_max":1258,"o":"m 161 0 q 112 13 126 0 q 106 56 97 25 l 390 1196 q 410 1224 394 1214 q 454 1233 426 1233 l 1061 1233 q 1084 1220 1078 1233 q 1083 1178 1090 1207 q 1065 1136 1078 1150 q 1036 1122 1053 1122 l 494 1122 l 389 708 l 839 708 q 862 694 856 708 q 864 653 868 681 q 844 610 857 624 q 815 597 831 597 l 363 597 l 242 111 l 779 111 q 802 98 796 111 q 803 56 808 85 q 784 14 797 28 q 756 0 771 0 l 161 0 m 558 1311 q 530 1328 543 1311 q 517 1360 517 1344 q 520 1378 517 1371 q 531 1390 524 1385 l 744 1569 q 781 1594 764 1586 q 821 1601 799 1601 q 856 1592 842 1601 q 879 1567 869 1582 l 1019 1383 q 1028 1367 1026 1374 q 1029 1353 1029 1360 q 1011 1324 1029 1338 q 981 1311 993 1311 q 958 1318 967 1311 q 938 1333 949 1325 l 800 1461 l 599 1326 q 579 1316 589 1321 q 558 1311 569 1311 m 1021 1531 q 988 1549 1007 1531 q 968 1582 968 1568 q 969 1592 968 1588 q 981 1607 971 1597 l 1157 1782 q 1169 1794 1164 1790 q 1183 1799 1175 1799 q 1215 1786 1197 1799 q 1247 1756 1233 1774 q 1260 1725 1260 1739 q 1256 1708 1260 1715 q 1238 1690 1253 1701 l 1047 1544 q 1033 1534 1039 1538 q 1021 1531 1026 1531 z "},"Ệ":{"ha":932,"x_min":97,"x_max":1090,"o":"m 161 0 q 112 13 126 0 q 106 56 97 25 l 390 1196 q 410 1224 394 1214 q 454 1233 426 1233 l 1061 1233 q 1084 1220 1078 1233 q 1083 1178 1090 1207 q 1065 1136 1078 1150 q 1036 1122 1053 1122 l 494 1122 l 389 708 l 839 708 q 862 694 856 708 q 864 653 868 681 q 844 610 857 624 q 815 597 831 597 l 363 597 l 242 111 l 779 111 q 802 98 796 111 q 803 56 808 85 q 784 14 797 28 q 756 0 771 0 l 161 0 m 388 -324 q 338 -305 357 -324 q 318 -249 318 -286 q 342 -179 318 -210 q 414 -149 365 -149 q 464 -167 444 -149 q 483 -222 483 -186 q 460 -293 483 -262 q 388 -324 438 -324 m 558 1311 q 530 1328 543 1311 q 517 1360 517 1344 q 520 1378 517 1371 q 531 1390 524 1385 l 744 1569 q 781 1594 764 1586 q 821 1601 799 1601 q 856 1592 842 1601 q 879 1567 869 1582 l 1019 1383 q 1028 1367 1026 1374 q 1029 1353 1029 1360 q 1011 1324 1029 1338 q 981 1311 993 1311 q 958 1318 967 1311 q 938 1333 949 1325 l 800 1461 l 599 1326 q 579 1316 589 1321 q 558 1311 569 1311 z "},"Ề":{"ha":932,"x_min":97,"x_max":1150,"o":"m 161 0 q 112 13 126 0 q 106 56 97 25 l 390 1196 q 410 1224 394 1214 q 454 1233 426 1233 l 1061 1233 q 1084 1220 1078 1233 q 1083 1178 1090 1207 q 1065 1136 1078 1150 q 1036 1122 1053 1122 l 494 1122 l 389 708 l 839 708 q 862 694 856 708 q 864 653 868 681 q 844 610 857 624 q 815 597 831 597 l 363 597 l 242 111 l 779 111 q 802 98 796 111 q 803 56 808 85 q 784 14 797 28 q 756 0 771 0 l 161 0 m 558 1311 q 530 1328 543 1311 q 517 1360 517 1344 q 520 1378 517 1371 q 531 1390 524 1385 l 744 1569 q 781 1594 764 1586 q 821 1601 799 1601 q 856 1592 842 1601 q 879 1567 869 1582 l 1019 1383 q 1028 1367 1026 1374 q 1029 1353 1029 1360 q 1011 1324 1029 1338 q 981 1311 993 1311 q 958 1318 967 1311 q 938 1333 949 1325 l 800 1461 l 599 1326 q 579 1316 589 1321 q 558 1311 569 1311 m 1096 1507 q 1084 1510 1090 1507 q 1071 1521 1078 1514 l 899 1710 q 883 1728 888 1722 q 878 1744 878 1735 q 891 1776 878 1760 q 924 1803 904 1793 q 958 1814 943 1814 q 973 1810 965 1814 q 986 1799 981 1806 l 1139 1586 q 1148 1569 1146 1574 q 1150 1558 1150 1564 q 1132 1526 1150 1544 q 1096 1507 1114 1507 z "},"Ể":{"ha":932,"x_min":97,"x_max":1221,"o":"m 161 0 q 112 13 126 0 q 106 56 97 25 l 390 1196 q 410 1224 394 1214 q 454 1233 426 1233 l 1061 1233 q 1084 1220 1078 1233 q 1083 1178 1090 1207 q 1065 1136 1078 1150 q 1036 1122 1053 1122 l 494 1122 l 389 708 l 839 708 q 862 694 856 708 q 864 653 868 681 q 844 610 857 624 q 815 597 831 597 l 363 597 l 242 111 l 779 111 q 802 98 796 111 q 803 56 808 85 q 784 14 797 28 q 756 0 771 0 l 161 0 m 558 1311 q 530 1328 543 1311 q 517 1360 517 1344 q 520 1378 517 1371 q 531 1390 524 1385 l 744 1569 q 781 1594 764 1586 q 821 1601 799 1601 q 856 1592 842 1601 q 879 1567 869 1582 l 1019 1383 q 1028 1367 1026 1374 q 1029 1353 1029 1360 q 1011 1324 1029 1338 q 981 1311 993 1311 q 958 1318 967 1311 q 938 1333 949 1325 l 800 1461 l 599 1326 q 579 1316 589 1321 q 558 1311 569 1311 m 1082 1832 q 1183 1803 1146 1832 q 1221 1722 1221 1774 q 1201 1653 1221 1683 q 1140 1596 1181 1622 q 1108 1569 1117 1581 q 1097 1542 1099 1557 l 1096 1525 q 1081 1499 1096 1508 q 1049 1489 1067 1490 q 1016 1495 1031 1488 q 997 1519 1001 1503 l 992 1553 q 999 1609 986 1585 q 1042 1654 1013 1633 q 1076 1682 1065 1668 q 1086 1707 1086 1696 q 1077 1724 1086 1718 q 1050 1731 1068 1731 q 1015 1725 1035 1731 q 975 1711 996 1719 q 919 1738 940 1693 q 939 1796 904 1774 q 1006 1822 971 1813 q 1082 1832 1042 1832 z "},"Ễ":{"ha":932,"x_min":97,"x_max":1101,"o":"m 161 0 q 112 13 126 0 q 106 56 97 25 l 390 1196 q 410 1224 394 1214 q 454 1233 426 1233 l 1061 1233 q 1084 1220 1078 1233 q 1083 1178 1090 1207 q 1065 1136 1078 1150 q 1036 1122 1053 1122 l 494 1122 l 389 708 l 839 708 q 862 694 856 708 q 864 653 868 681 q 844 610 857 624 q 815 597 831 597 l 363 597 l 242 111 l 779 111 q 802 98 796 111 q 803 56 808 85 q 784 14 797 28 q 756 0 771 0 l 161 0 m 558 1311 q 530 1328 543 1311 q 517 1360 517 1344 q 520 1378 517 1371 q 531 1390 524 1385 l 744 1569 q 781 1594 764 1586 q 821 1601 799 1601 q 856 1592 842 1601 q 879 1567 869 1582 l 1019 1383 q 1028 1367 1026 1374 q 1029 1353 1029 1360 q 1011 1324 1029 1338 q 981 1311 993 1311 q 958 1318 967 1311 q 938 1333 949 1325 l 800 1461 l 599 1326 q 579 1316 589 1321 q 558 1311 569 1311 m 619 1618 q 576 1656 575 1618 q 616 1790 582 1747 q 713 1832 650 1832 q 790 1817 754 1832 q 856 1783 826 1803 q 913 1748 886 1763 q 961 1733 939 1733 q 987 1749 975 1733 q 1003 1799 999 1765 q 1058 1833 1008 1833 q 1092 1824 1082 1833 q 1100 1797 1101 1815 q 1062 1663 1094 1707 q 964 1619 1029 1619 q 884 1634 919 1619 q 819 1668 849 1649 q 764 1702 789 1688 q 714 1717 739 1717 q 686 1701 697 1717 q 671 1653 675 1686 q 656 1627 669 1636 q 619 1618 642 1618 z "},"Ẹ":{"ha":932,"x_min":97,"x_max":1090,"o":"m 161 0 q 112 13 126 0 q 106 56 97 25 l 390 1196 q 410 1224 394 1214 q 454 1233 426 1233 l 1061 1233 q 1084 1220 1078 1233 q 1083 1178 1090 1207 q 1065 1136 1078 1150 q 1036 1122 1053 1122 l 494 1122 l 389 708 l 839 708 q 862 694 856 708 q 864 653 868 681 q 844 610 857 624 q 815 597 831 597 l 363 597 l 242 111 l 779 111 q 802 98 796 111 q 803 56 808 85 q 784 14 797 28 q 756 0 771 0 l 161 0 m 388 -324 q 338 -305 357 -324 q 318 -249 318 -286 q 342 -179 318 -210 q 414 -149 365 -149 q 464 -167 444 -149 q 483 -222 483 -186 q 460 -293 483 -262 q 388 -324 438 -324 z "},"Ẻ":{"ha":932,"x_min":97,"x_max":1090,"o":"m 161 0 q 112 13 126 0 q 106 56 97 25 l 390 1196 q 410 1224 394 1214 q 454 1233 426 1233 l 1061 1233 q 1084 1220 1078 1233 q 1083 1178 1090 1207 q 1065 1136 1078 1150 q 1036 1122 1053 1122 l 494 1122 l 389 708 l 839 708 q 862 694 856 708 q 864 653 868 681 q 844 610 857 624 q 815 597 831 597 l 363 597 l 242 111 l 779 111 q 802 98 796 111 q 803 56 808 85 q 784 14 797 28 q 756 0 771 0 l 161 0 m 808 1640 q 910 1611 874 1640 q 947 1531 947 1582 q 928 1461 947 1492 q 867 1404 908 1431 q 834 1377 843 1389 q 825 1351 825 1365 l 824 1333 q 808 1308 822 1317 q 776 1297 794 1299 q 744 1304 758 1296 q 725 1328 729 1313 l 719 1361 q 727 1419 714 1394 q 769 1463 740 1443 q 803 1491 792 1478 q 814 1515 814 1504 q 805 1533 814 1526 q 778 1539 796 1539 q 742 1534 763 1539 q 701 1519 722 1529 q 646 1546 668 1501 q 665 1604 632 1583 q 734 1631 699 1621 q 808 1640 769 1640 z "},"Ẽ":{"ha":932,"x_min":97,"x_max":1090,"o":"m 161 0 q 112 13 126 0 q 106 56 97 25 l 390 1196 q 410 1224 394 1214 q 454 1233 426 1233 l 1061 1233 q 1084 1220 1078 1233 q 1083 1178 1090 1207 q 1065 1136 1078 1150 q 1036 1122 1053 1122 l 494 1122 l 389 708 l 839 708 q 862 694 856 708 q 864 653 868 681 q 844 610 857 624 q 815 597 831 597 l 363 597 l 242 111 l 779 111 q 802 98 796 111 q 803 56 808 85 q 784 14 797 28 q 756 0 771 0 l 161 0 m 569 1351 q 526 1389 525 1351 q 567 1523 533 1481 q 664 1565 601 1565 q 741 1551 706 1565 q 806 1516 776 1536 q 863 1481 836 1496 q 911 1467 889 1467 q 937 1482 925 1467 q 954 1532 949 1497 q 1010 1567 958 1567 q 1042 1558 1033 1567 q 1050 1529 1051 1549 q 1012 1397 1044 1440 q 914 1353 979 1353 q 835 1367 871 1353 q 769 1401 799 1382 q 714 1435 739 1421 q 665 1450 689 1450 q 636 1435 647 1450 q 621 1386 625 1419 q 606 1360 619 1368 q 569 1351 593 1351 z "},"Ğ":{"ha":1231,"x_min":163,"x_max":1200,"o":"m 593 -26 q 413 9 493 -25 q 277 108 333 43 q 192 263 221 172 q 163 468 163 354 q 181 643 163 553 q 238 822 200 733 q 334 988 276 910 q 467 1126 392 1065 q 636 1220 542 1186 q 843 1254 731 1254 q 984 1238 919 1254 q 1100 1188 1049 1222 q 1189 1101 1151 1154 q 1194 1074 1200 1086 q 1168 1047 1188 1061 q 1136 1030 1150 1032 q 1104 1043 1122 1028 q 1034 1094 1074 1074 q 944 1126 994 1115 q 826 1136 893 1136 q 676 1109 746 1136 q 546 1033 606 1082 q 440 922 486 985 q 360 785 393 858 q 310 636 326 713 q 293 485 293 560 q 313 314 293 388 q 372 191 332 240 q 470 117 411 142 q 608 92 529 92 q 717 109 664 92 q 817 160 769 126 q 906 249 864 194 q 981 377 947 303 q 1040 549 1015 451 l 721 549 q 695 561 700 549 q 699 604 690 574 q 718 648 707 636 q 750 660 729 660 l 1156 660 q 1181 648 1176 660 q 1181 604 1186 636 q 1079 302 1143 424 q 935 108 1015 181 q 767 4 854 35 q 593 -26 679 -26 m 867 1310 q 710 1372 765 1310 q 663 1561 654 1435 q 677 1590 664 1581 q 713 1600 690 1600 q 745 1590 733 1600 q 758 1561 757 1579 q 795 1462 761 1493 q 883 1431 829 1431 q 991 1466 947 1431 q 1058 1560 1035 1501 q 1079 1592 1068 1583 q 1111 1600 1090 1600 q 1148 1588 1135 1600 q 1156 1554 1161 1575 q 1092 1410 1131 1464 q 998 1333 1053 1356 q 867 1310 943 1310 z "},"Ĝ":{"ha":1231,"x_min":163,"x_max":1200,"o":"m 593 -26 q 413 9 493 -25 q 277 108 333 43 q 192 263 221 172 q 163 468 163 354 q 181 643 163 553 q 238 822 200 733 q 334 988 276 910 q 467 1126 392 1065 q 636 1220 542 1186 q 843 1254 731 1254 q 984 1238 919 1254 q 1100 1188 1049 1222 q 1189 1101 1151 1154 q 1194 1074 1200 1086 q 1168 1047 1188 1061 q 1136 1030 1150 1032 q 1104 1043 1122 1028 q 1034 1094 1074 1074 q 944 1126 994 1115 q 826 1136 893 1136 q 676 1109 746 1136 q 546 1033 606 1082 q 440 922 486 985 q 360 785 393 858 q 310 636 326 713 q 293 485 293 560 q 313 314 293 388 q 372 191 332 240 q 470 117 411 142 q 608 92 529 92 q 717 109 664 92 q 817 160 769 126 q 906 249 864 194 q 981 377 947 303 q 1040 549 1015 451 l 721 549 q 695 561 700 549 q 699 604 690 574 q 718 648 707 636 q 750 660 729 660 l 1156 660 q 1181 648 1176 660 q 1181 604 1186 636 q 1079 302 1143 424 q 935 108 1015 181 q 767 4 854 35 q 593 -26 679 -26 m 660 1311 q 631 1328 644 1311 q 618 1360 618 1344 q 622 1378 618 1371 q 632 1390 625 1385 l 846 1569 q 883 1594 865 1586 q 922 1601 900 1601 q 957 1592 943 1601 q 981 1567 971 1582 l 1121 1383 q 1129 1367 1128 1374 q 1131 1353 1131 1360 q 1113 1324 1131 1338 q 1082 1311 1094 1311 q 1059 1318 1068 1311 q 1039 1333 1050 1325 l 901 1461 l 700 1326 q 681 1316 690 1321 q 660 1311 671 1311 z "},"Ģ":{"ha":1231,"x_min":163,"x_max":1200,"o":"m 593 -26 q 413 9 493 -25 q 277 108 333 43 q 192 263 221 172 q 163 468 163 354 q 181 643 163 553 q 238 822 200 733 q 334 988 276 910 q 467 1126 392 1065 q 636 1220 542 1186 q 843 1254 731 1254 q 984 1238 919 1254 q 1100 1188 1049 1222 q 1189 1101 1151 1154 q 1194 1074 1200 1086 q 1168 1047 1188 1061 q 1136 1030 1150 1032 q 1104 1043 1122 1028 q 1034 1094 1074 1074 q 944 1126 994 1115 q 826 1136 893 1136 q 676 1109 746 1136 q 546 1033 606 1082 q 440 922 486 985 q 360 785 393 858 q 310 636 326 713 q 293 485 293 560 q 313 314 293 388 q 372 191 332 240 q 470 117 411 142 q 608 92 529 92 q 717 109 664 92 q 817 160 769 126 q 906 249 864 194 q 981 377 947 303 q 1040 549 1015 451 l 721 549 q 695 561 700 549 q 699 604 690 574 q 718 648 707 636 q 750 660 729 660 l 1156 660 q 1181 648 1176 660 q 1181 604 1186 636 q 1079 302 1143 424 q 935 108 1015 181 q 767 4 854 35 q 593 -26 679 -26 m 406 -400 q 386 -376 389 -390 q 394 -344 383 -361 q 433 -276 418 -307 q 455 -214 447 -246 q 467 -140 463 -182 q 483 -107 468 -117 q 525 -97 499 -97 q 573 -112 557 -97 q 586 -154 589 -128 q 568 -228 585 -189 q 526 -306 551 -268 q 472 -378 501 -344 q 440 -403 456 -397 q 406 -400 424 -410 z "},"Ġ":{"ha":1231,"x_min":163,"x_max":1200,"o":"m 593 -26 q 413 9 493 -25 q 277 108 333 43 q 192 263 221 172 q 163 468 163 354 q 181 643 163 553 q 238 822 200 733 q 334 988 276 910 q 467 1126 392 1065 q 636 1220 542 1186 q 843 1254 731 1254 q 984 1238 919 1254 q 1100 1188 1049 1222 q 1189 1101 1151 1154 q 1194 1074 1200 1086 q 1168 1047 1188 1061 q 1136 1030 1150 1032 q 1104 1043 1122 1028 q 1034 1094 1074 1074 q 944 1126 994 1115 q 826 1136 893 1136 q 676 1109 746 1136 q 546 1033 606 1082 q 440 922 486 985 q 360 785 393 858 q 310 636 326 713 q 293 485 293 560 q 313 314 293 388 q 372 191 332 240 q 470 117 411 142 q 608 92 529 92 q 717 109 664 92 q 817 160 769 126 q 906 249 864 194 q 981 377 947 303 q 1040 549 1015 451 l 721 549 q 695 561 700 549 q 699 604 690 574 q 718 648 707 636 q 750 660 729 660 l 1156 660 q 1181 648 1176 660 q 1181 604 1186 636 q 1079 302 1143 424 q 935 108 1015 181 q 767 4 854 35 q 593 -26 679 -26 m 874 1356 q 824 1374 843 1356 q 804 1431 804 1393 q 828 1500 804 1469 q 900 1531 851 1531 q 949 1513 929 1531 q 968 1457 968 1494 q 947 1386 969 1417 q 874 1356 924 1356 z "},"Ħ":{"ha":1247,"x_min":85,"x_max":1358,"o":"m 146 -19 q 94 19 85 -19 l 396 1217 q 419 1245 401 1236 q 465 1254 436 1254 q 517 1217 529 1254 l 389 703 l 1039 703 l 1168 1217 q 1191 1245 1174 1236 q 1239 1254 1208 1254 q 1290 1217 1301 1254 l 988 19 q 966 -10 983 0 q 918 -19 949 -19 q 867 19 857 -19 l 1011 592 l 360 592 l 215 19 q 194 -10 211 0 q 146 -19 176 -19 m 229 901 q 201 916 204 901 q 200 950 197 931 q 212 987 203 971 q 247 1003 221 1003 l 1324 1003 q 1353 987 1350 1003 q 1354 950 1357 971 q 1342 916 1351 931 q 1307 901 1332 901 l 229 901 z "},"Ĥ":{"ha":1247,"x_min":85,"x_max":1301,"o":"m 146 -19 q 94 19 85 -19 l 396 1217 q 419 1245 401 1236 q 465 1254 436 1254 q 517 1217 529 1254 l 389 703 l 1039 703 l 1168 1217 q 1191 1245 1174 1236 q 1239 1254 1208 1254 q 1290 1217 1301 1254 l 988 19 q 966 -10 983 0 q 918 -19 949 -19 q 867 19 857 -19 l 1011 592 l 360 592 l 215 19 q 194 -10 211 0 q 146 -19 176 -19 m 656 1311 q 627 1328 640 1311 q 614 1360 614 1344 q 617 1378 614 1371 q 628 1390 621 1385 l 842 1569 q 878 1594 861 1586 q 918 1601 896 1601 q 953 1592 939 1601 q 976 1567 967 1582 l 1117 1383 q 1125 1367 1124 1374 q 1126 1353 1126 1360 q 1108 1324 1126 1338 q 1078 1311 1090 1311 q 1055 1318 1064 1311 q 1035 1333 1046 1325 l 897 1461 l 696 1326 q 676 1316 686 1321 q 656 1311 667 1311 z "},"Í":{"ha":475,"x_min":90,"x_max":683,"o":"m 150 -19 q 105 -10 119 -19 q 94 22 90 0 l 393 1217 q 415 1245 399 1236 q 463 1254 432 1254 q 508 1244 494 1254 q 517 1214 522 1235 l 218 19 q 198 -10 214 0 q 150 -19 182 -19 m 415 1311 q 383 1331 401 1311 q 364 1364 364 1350 q 365 1374 364 1369 q 375 1388 367 1379 l 581 1586 q 594 1597 589 1593 q 607 1601 599 1601 q 639 1589 621 1601 q 670 1560 657 1576 q 683 1529 683 1543 q 681 1513 683 1519 q 663 1494 678 1506 l 442 1325 q 427 1315 433 1319 q 415 1311 421 1311 z "},"Ĭ":{"ha":475,"x_min":90,"x_max":782,"o":"m 150 -19 q 105 -10 119 -19 q 94 22 90 0 l 393 1217 q 415 1245 399 1236 q 463 1254 432 1254 q 508 1244 494 1254 q 517 1214 522 1235 l 218 19 q 198 -10 214 0 q 150 -19 182 -19 m 488 1310 q 331 1372 386 1310 q 283 1561 275 1435 q 298 1590 285 1581 q 333 1600 311 1600 q 366 1590 354 1600 q 379 1561 378 1579 q 416 1462 382 1493 q 504 1431 450 1431 q 612 1466 568 1431 q 679 1560 656 1501 q 700 1592 689 1583 q 732 1600 711 1600 q 769 1588 756 1600 q 776 1554 782 1575 q 713 1410 751 1464 q 619 1333 674 1356 q 488 1310 564 1310 z "},"Ǐ":{"ha":475,"x_min":90,"x_max":779,"o":"m 150 -19 q 105 -10 119 -19 q 94 22 90 0 l 393 1217 q 415 1245 399 1236 q 463 1254 432 1254 q 508 1244 494 1254 q 517 1214 522 1235 l 218 19 q 198 -10 214 0 q 150 -19 182 -19 m 735 1601 q 765 1585 751 1601 q 779 1553 779 1568 q 776 1535 779 1542 q 765 1522 772 1528 l 550 1343 q 515 1319 532 1328 q 474 1311 497 1311 q 440 1321 454 1311 q 415 1347 426 1331 l 276 1531 q 268 1547 269 1540 q 267 1558 267 1554 q 287 1588 267 1575 q 319 1601 307 1601 q 340 1594 333 1601 q 356 1579 347 1588 l 494 1453 l 696 1581 q 715 1594 706 1586 q 735 1601 724 1601 z "},"Î":{"ha":475,"x_min":90,"x_max":751,"o":"m 150 -19 q 105 -10 119 -19 q 94 22 90 0 l 393 1217 q 415 1245 399 1236 q 463 1254 432 1254 q 508 1244 494 1254 q 517 1214 522 1235 l 218 19 q 198 -10 214 0 q 150 -19 182 -19 m 281 1311 q 252 1328 265 1311 q 239 1360 239 1344 q 242 1378 239 1371 q 253 1390 246 1385 l 467 1569 q 503 1594 486 1586 q 543 1601 521 1601 q 578 1592 564 1601 q 601 1567 592 1582 l 742 1383 q 750 1367 749 1374 q 751 1353 751 1360 q 733 1324 751 1338 q 703 1311 715 1311 q 680 1318 689 1311 q 660 1333 671 1325 l 522 1461 l 321 1326 q 301 1316 311 1321 q 281 1311 292 1311 z "},"Ï":{"ha":475,"x_min":90,"x_max":758,"o":"m 150 -19 q 105 -10 119 -19 q 94 22 90 0 l 393 1217 q 415 1245 399 1236 q 463 1254 432 1254 q 508 1244 494 1254 q 517 1214 522 1235 l 218 19 q 198 -10 214 0 q 150 -19 182 -19 m 324 1356 q 272 1374 292 1356 q 253 1431 253 1393 q 277 1500 253 1469 q 349 1531 301 1531 q 399 1513 379 1531 q 418 1457 418 1494 q 395 1386 418 1417 q 324 1356 372 1356 m 663 1356 q 613 1374 632 1356 q 593 1431 593 1393 q 617 1500 593 1469 q 689 1531 640 1531 q 738 1513 718 1531 q 758 1457 758 1494 q 735 1386 758 1417 q 663 1356 713 1356 z "},"İ":{"ha":475,"x_min":90,"x_max":590,"o":"m 150 -19 q 105 -10 119 -19 q 94 22 90 0 l 393 1217 q 415 1245 399 1236 q 463 1254 432 1254 q 508 1244 494 1254 q 517 1214 522 1235 l 218 19 q 198 -10 214 0 q 150 -19 182 -19 m 494 1356 q 444 1374 464 1356 q 425 1431 425 1393 q 449 1500 425 1469 q 521 1531 472 1531 q 569 1513 550 1531 q 589 1457 589 1494 q 567 1386 590 1417 q 494 1356 544 1356 z "},"Ì":{"ha":475,"x_min":90,"x_max":604,"o":"m 150 -19 q 105 -10 119 -19 q 94 22 90 0 l 393 1217 q 415 1245 399 1236 q 463 1254 432 1254 q 508 1244 494 1254 q 517 1214 522 1235 l 218 19 q 198 -10 214 0 q 150 -19 182 -19 m 551 1311 q 539 1315 546 1311 q 525 1325 532 1319 l 332 1496 q 315 1514 318 1507 q 311 1531 311 1521 q 325 1561 311 1544 q 357 1590 339 1578 q 388 1601 375 1601 q 402 1597 396 1601 q 415 1586 408 1593 l 593 1386 q 603 1373 601 1378 q 604 1363 604 1368 q 585 1331 604 1350 q 551 1311 565 1311 z "},"Ī":{"ha":475,"x_min":90,"x_max":740,"o":"m 150 -19 q 105 -10 119 -19 q 94 22 90 0 l 393 1217 q 415 1245 399 1236 q 463 1254 432 1254 q 508 1244 494 1254 q 517 1214 522 1235 l 218 19 q 198 -10 214 0 q 150 -19 182 -19 m 315 1397 q 283 1413 289 1397 q 282 1454 276 1429 q 299 1500 288 1485 q 335 1515 310 1515 l 701 1515 q 734 1498 728 1515 q 735 1454 740 1481 q 718 1412 729 1426 q 682 1397 707 1397 l 315 1397 z "},"Į":{"ha":475,"x_min":-137,"x_max":522,"o":"m 150 -19 q 105 -10 119 -19 q 94 22 90 0 l 393 1217 q 415 1245 399 1236 q 463 1254 432 1254 q 508 1244 494 1254 q 517 1214 522 1235 l 218 19 q 198 -10 214 0 q 150 -19 182 -19 m -40 -365 q -110 -342 -85 -365 q -136 -275 -136 -318 q -118 -205 -136 -240 q -67 -134 -100 -169 q 13 -61 -33 -99 q 117 18 60 -24 l 203 17 l 203 8 q 119 -62 158 -28 q 51 -126 81 -96 q 6 -183 22 -157 q -11 -229 -11 -208 q -3 -252 -11 -244 q 18 -260 4 -260 q 67 -243 43 -260 q 122 -197 90 -226 q 145 -187 131 -189 q 175 -199 160 -185 q 190 -224 186 -210 q 186 -251 194 -237 q 124 -310 163 -285 q 42 -351 85 -336 q -40 -365 -1 -365 z "},"Ĩ":{"ha":475,"x_min":90,"x_max":774,"o":"m 150 -19 q 105 -10 119 -19 q 94 22 90 0 l 393 1217 q 415 1245 399 1236 q 463 1254 432 1254 q 508 1244 494 1254 q 517 1214 522 1235 l 218 19 q 198 -10 214 0 q 150 -19 182 -19 m 292 1351 q 249 1389 247 1351 q 290 1523 256 1481 q 386 1565 324 1565 q 463 1551 428 1565 q 528 1516 499 1536 q 585 1481 558 1496 q 633 1467 611 1467 q 659 1482 647 1467 q 676 1532 671 1497 q 732 1567 681 1567 q 765 1558 756 1567 q 772 1529 774 1549 q 734 1397 767 1440 q 636 1353 701 1353 q 557 1367 593 1353 q 491 1401 521 1382 q 436 1435 461 1421 q 388 1450 411 1450 q 358 1435 369 1450 q 343 1386 347 1419 q 328 1360 342 1368 q 292 1351 315 1351 z "},"Ị":{"ha":475,"x_min":7,"x_max":522,"o":"m 150 -19 q 105 -10 119 -19 q 94 22 90 0 l 393 1217 q 415 1245 399 1236 q 463 1254 432 1254 q 508 1244 494 1254 q 517 1214 522 1235 l 218 19 q 198 -10 214 0 q 150 -19 182 -19 m 76 -324 q 26 -305 46 -324 q 7 -249 7 -286 q 31 -179 7 -210 q 103 -149 54 -149 q 153 -167 133 -149 q 172 -222 172 -186 q 149 -293 172 -262 q 76 -324 126 -324 z "},"Ỉ":{"ha":475,"x_min":90,"x_max":669,"o":"m 150 -19 q 105 -10 119 -19 q 94 22 90 0 l 393 1217 q 415 1245 399 1236 q 463 1254 432 1254 q 508 1244 494 1254 q 517 1214 522 1235 l 218 19 q 198 -10 214 0 q 150 -19 182 -19 m 531 1640 q 633 1611 596 1640 q 669 1531 669 1582 q 650 1461 669 1492 q 589 1404 631 1431 q 556 1377 565 1389 q 547 1351 547 1365 l 546 1333 q 531 1308 544 1317 q 499 1297 517 1299 q 466 1304 481 1296 q 447 1328 451 1313 l 442 1361 q 449 1419 436 1394 q 492 1463 463 1443 q 525 1491 514 1478 q 536 1515 536 1504 q 527 1533 536 1526 q 500 1539 518 1539 q 465 1534 485 1539 q 424 1519 444 1529 q 368 1546 390 1501 q 388 1604 354 1583 q 456 1631 421 1621 q 531 1640 492 1640 z "},"Ĵ":{"ha":913,"x_min":18,"x_max":1215,"o":"m 353 -26 q 214 2 283 -26 q 92 87 144 31 q 22 222 40 143 q 28 256 18 244 q 63 272 39 267 q 108 274 93 279 q 132 243 124 269 q 178 162 147 196 q 253 110 208 128 q 353 92 297 92 q 430 99 394 92 q 497 124 465 107 q 556 172 529 142 q 605 249 583 203 q 644 361 626 296 l 860 1217 q 883 1245 865 1236 q 929 1254 900 1254 q 973 1245 960 1254 q 981 1217 986 1236 l 765 360 q 713 210 743 274 q 643 101 682 146 q 559 27 604 56 q 463 -14 514 -1 q 353 -26 411 -26 m 744 1311 q 716 1328 729 1311 q 703 1360 703 1344 q 706 1378 703 1371 q 717 1390 710 1385 l 931 1569 q 967 1594 950 1586 q 1007 1601 985 1601 q 1042 1592 1028 1601 q 1065 1567 1056 1582 l 1206 1383 q 1214 1367 1213 1374 q 1215 1353 1215 1360 q 1197 1324 1215 1338 q 1167 1311 1179 1311 q 1144 1318 1153 1311 q 1124 1333 1135 1325 l 986 1461 l 785 1326 q 765 1316 775 1321 q 744 1311 756 1311 z "},"Ķ":{"ha":967,"x_min":89,"x_max":1124,"o":"m 144 -19 q 101 -10 114 -19 q 93 19 89 0 l 396 1217 q 467 1254 406 1254 q 518 1217 528 1254 l 393 722 l 1031 1236 q 1072 1251 1056 1256 q 1106 1225 1089 1247 q 1122 1185 1124 1200 q 1096 1151 1121 1171 l 457 642 q 589 426 524 525 q 722 239 654 326 q 865 67 790 151 q 881 28 885 46 q 849 -12 876 10 q 810 -24 829 -26 q 778 -6 792 -21 q 659 138 717 63 q 549 290 601 213 q 451 446 497 367 q 363 603 404 525 l 214 19 q 192 -10 210 0 q 144 -19 175 -19 m 307 -400 q 288 -376 290 -390 q 296 -344 285 -361 q 334 -276 319 -307 q 356 -214 349 -246 q 368 -140 364 -182 q 385 -107 369 -117 q 426 -97 400 -97 q 474 -112 458 -97 q 488 -154 490 -128 q 469 -228 486 -189 q 428 -306 453 -268 q 374 -378 403 -344 q 341 -403 357 -397 q 307 -400 325 -410 z "},"Ĺ":{"ha":878,"x_min":90,"x_max":781,"o":"m 153 0 q 106 56 90 0 l 396 1217 q 415 1245 401 1236 q 460 1254 429 1254 q 507 1244 492 1254 q 515 1214 522 1235 l 240 111 l 751 111 q 774 98 768 111 q 774 56 781 85 q 756 14 768 28 q 726 0 743 0 l 153 0 m 422 1311 q 390 1331 408 1311 q 371 1364 371 1350 q 372 1374 371 1369 q 382 1388 374 1379 l 588 1586 q 601 1597 596 1593 q 614 1601 606 1601 q 646 1589 628 1601 q 677 1560 664 1576 q 690 1529 690 1543 q 688 1513 690 1519 q 669 1494 685 1506 l 449 1325 q 434 1315 440 1319 q 422 1311 428 1311 z "},"Ľ":{"ha":878,"x_min":90,"x_max":786,"o":"m 153 0 q 106 56 90 0 l 396 1217 q 415 1245 401 1236 q 460 1254 429 1254 q 507 1244 492 1254 q 515 1214 522 1235 l 240 111 l 751 111 q 774 98 768 111 q 774 56 781 85 q 756 14 768 28 q 726 0 743 0 l 153 0 m 608 919 q 581 942 586 929 q 588 979 575 956 q 615 1046 600 1004 q 642 1133 629 1088 q 660 1217 654 1178 q 674 1249 661 1238 q 721 1260 688 1260 q 771 1249 756 1260 q 785 1217 786 1238 q 761 1124 779 1175 q 719 1023 743 1074 q 669 933 694 972 q 648 916 663 924 q 608 919 633 908 z "},"Ļ":{"ha":878,"x_min":90,"x_max":781,"o":"m 153 0 q 106 56 90 0 l 396 1217 q 415 1245 401 1236 q 460 1254 429 1254 q 507 1244 492 1254 q 515 1214 522 1235 l 240 111 l 751 111 q 774 98 768 111 q 774 56 781 85 q 756 14 768 28 q 726 0 743 0 l 153 0 m 297 -400 q 278 -376 281 -390 q 286 -344 275 -361 q 324 -276 310 -307 q 347 -214 339 -246 q 358 -140 354 -182 q 375 -107 360 -117 q 417 -97 390 -97 q 465 -112 449 -97 q 478 -154 481 -128 q 460 -228 476 -189 q 418 -306 443 -268 q 364 -378 393 -344 q 331 -403 347 -397 q 297 -400 315 -410 z "},"Ŀ":{"ha":878,"x_min":90,"x_max":814,"o":"m 153 0 q 106 56 90 0 l 396 1217 q 415 1245 401 1236 q 460 1254 429 1254 q 507 1244 492 1254 q 515 1214 522 1235 l 240 111 l 751 111 q 774 98 768 111 q 774 56 781 85 q 756 14 768 28 q 726 0 743 0 l 153 0 m 718 549 q 667 568 688 549 q 647 624 647 588 q 672 694 647 664 q 744 724 696 724 q 794 706 774 724 q 814 650 814 688 q 791 580 814 611 q 718 549 768 549 z "},"Ł":{"ha":878,"x_min":79,"x_max":781,"o":"m 153 0 q 106 56 90 0 l 396 1217 q 415 1245 401 1236 q 460 1254 429 1254 q 507 1244 492 1254 q 515 1214 522 1235 l 240 111 l 751 111 q 774 98 768 111 q 774 56 781 85 q 756 14 768 28 q 726 0 743 0 l 153 0 m 146 511 q 111 510 125 503 q 86 539 97 517 q 81 576 79 557 q 103 603 83 594 l 589 797 q 621 799 608 804 q 643 778 633 794 q 635 711 669 726 l 146 511 z "},"Ń":{"ha":1247,"x_min":85,"x_max":1301,"o":"m 146 -19 q 94 19 85 -19 l 396 1217 q 419 1245 401 1236 q 465 1254 436 1254 q 504 1245 490 1254 q 526 1217 518 1236 l 917 224 l 1168 1217 q 1191 1245 1174 1236 q 1239 1254 1208 1254 q 1290 1217 1301 1254 l 988 19 q 966 -10 983 0 q 919 -19 949 -19 q 886 -12 897 -19 q 867 19 875 -6 l 471 1026 l 215 19 q 194 -10 211 0 q 146 -19 176 -19 m 810 1311 q 777 1331 796 1311 q 758 1364 758 1350 q 760 1374 758 1369 q 769 1388 761 1379 l 975 1586 q 988 1597 983 1593 q 1001 1601 993 1601 q 1033 1589 1015 1601 q 1065 1560 1051 1576 q 1078 1529 1078 1543 q 1075 1513 1078 1519 q 1057 1494 1072 1506 l 836 1325 q 822 1315 828 1319 q 810 1311 815 1311 z "},"Ň":{"ha":1247,"x_min":85,"x_max":1301,"o":"m 146 -19 q 94 19 85 -19 l 396 1217 q 419 1245 401 1236 q 465 1254 436 1254 q 504 1245 490 1254 q 526 1217 518 1236 l 917 224 l 1168 1217 q 1191 1245 1174 1236 q 1239 1254 1208 1254 q 1290 1217 1301 1254 l 988 19 q 966 -10 983 0 q 919 -19 949 -19 q 886 -12 897 -19 q 867 19 875 -6 l 471 1026 l 215 19 q 194 -10 211 0 q 146 -19 176 -19 m 1129 1601 q 1160 1585 1146 1601 q 1174 1553 1174 1568 q 1170 1535 1174 1542 q 1160 1522 1167 1528 l 944 1343 q 909 1319 926 1328 q 868 1311 892 1311 q 835 1321 849 1311 q 810 1347 821 1331 l 671 1531 q 663 1547 664 1540 q 661 1558 661 1554 q 681 1588 661 1575 q 714 1601 701 1601 q 735 1594 728 1601 q 750 1579 742 1588 l 889 1453 l 1090 1581 q 1109 1594 1100 1586 q 1129 1601 1118 1601 z "},"Ņ":{"ha":1247,"x_min":85,"x_max":1301,"o":"m 146 -19 q 94 19 85 -19 l 396 1217 q 419 1245 401 1236 q 465 1254 436 1254 q 504 1245 490 1254 q 526 1217 518 1236 l 917 224 l 1168 1217 q 1191 1245 1174 1236 q 1239 1254 1208 1254 q 1290 1217 1301 1254 l 988 19 q 966 -10 983 0 q 919 -19 949 -19 q 886 -12 897 -19 q 867 19 875 -6 l 471 1026 l 215 19 q 194 -10 211 0 q 146 -19 176 -19 m 394 -400 q 375 -376 378 -390 q 383 -344 372 -361 q 422 -276 407 -307 q 444 -214 436 -246 q 456 -140 451 -182 q 472 -107 457 -117 q 514 -97 488 -97 q 562 -112 546 -97 q 575 -154 578 -128 q 557 -228 574 -189 q 515 -306 540 -268 q 461 -378 490 -344 q 428 -403 444 -397 q 394 -400 413 -410 z "},"Ñ":{"ha":1247,"x_min":85,"x_max":1301,"o":"m 146 -19 q 94 19 85 -19 l 396 1217 q 419 1245 401 1236 q 465 1254 436 1254 q 504 1245 490 1254 q 526 1217 518 1236 l 917 224 l 1168 1217 q 1191 1245 1174 1236 q 1239 1254 1208 1254 q 1290 1217 1301 1254 l 988 19 q 966 -10 983 0 q 919 -19 949 -19 q 886 -12 897 -19 q 867 19 875 -6 l 471 1026 l 215 19 q 194 -10 211 0 q 146 -19 176 -19 m 686 1351 q 643 1389 642 1351 q 684 1523 650 1481 q 781 1565 718 1565 q 858 1551 822 1565 q 923 1516 893 1536 q 979 1481 953 1496 q 1028 1467 1006 1467 q 1053 1482 1042 1467 q 1071 1532 1065 1497 q 1126 1567 1075 1567 q 1159 1558 1150 1567 q 1167 1529 1168 1549 q 1128 1397 1161 1440 q 1031 1353 1096 1353 q 951 1367 988 1353 q 885 1401 915 1382 q 831 1435 856 1421 q 782 1450 806 1450 q 753 1435 764 1450 q 738 1386 742 1419 q 723 1360 736 1368 q 686 1351 710 1351 z "},"Ó":{"ha":1300,"x_min":167,"x_max":1267,"o":"m 617 -26 q 432 10 515 -26 q 290 113 349 46 q 199 274 231 181 q 167 481 167 367 q 185 655 167 565 q 240 831 203 744 q 331 994 276 918 q 458 1129 386 1071 q 622 1221 531 1188 q 819 1254 713 1254 q 1003 1218 921 1254 q 1144 1115 1085 1182 q 1235 954 1203 1047 q 1267 747 1267 861 q 1247 564 1267 656 q 1190 385 1228 472 q 1097 224 1151 299 q 969 93 1042 149 q 808 6 896 38 q 617 -26 721 -26 m 633 92 q 782 118 714 92 q 906 192 850 144 q 1006 301 963 239 q 1078 436 1050 364 q 1122 583 1107 508 q 1138 731 1138 657 q 1115 905 1138 829 q 1050 1032 1093 981 q 945 1110 1007 1083 q 803 1136 883 1136 q 656 1109 724 1136 q 531 1034 588 1082 q 430 924 474 986 q 356 790 386 861 q 311 644 326 718 q 296 497 296 569 q 318 324 296 400 q 383 197 340 249 q 489 119 426 146 q 633 92 551 92 m 810 1311 q 777 1331 796 1311 q 758 1364 758 1350 q 760 1374 758 1369 q 769 1388 761 1379 l 975 1586 q 988 1597 983 1593 q 1001 1601 993 1601 q 1033 1589 1015 1601 q 1065 1560 1051 1576 q 1078 1529 1078 1543 q 1075 1513 1078 1519 q 1057 1494 1072 1506 l 836 1325 q 822 1315 828 1319 q 810 1311 815 1311 z "},"Ŏ":{"ha":1300,"x_min":167,"x_max":1267,"o":"m 617 -26 q 432 10 515 -26 q 290 113 349 46 q 199 274 231 181 q 167 481 167 367 q 185 655 167 565 q 240 831 203 744 q 331 994 276 918 q 458 1129 386 1071 q 622 1221 531 1188 q 819 1254 713 1254 q 1003 1218 921 1254 q 1144 1115 1085 1182 q 1235 954 1203 1047 q 1267 747 1267 861 q 1247 564 1267 656 q 1190 385 1228 472 q 1097 224 1151 299 q 969 93 1042 149 q 808 6 896 38 q 617 -26 721 -26 m 633 92 q 782 118 714 92 q 906 192 850 144 q 1006 301 963 239 q 1078 436 1050 364 q 1122 583 1107 508 q 1138 731 1138 657 q 1115 905 1138 829 q 1050 1032 1093 981 q 945 1110 1007 1083 q 803 1136 883 1136 q 656 1109 724 1136 q 531 1034 588 1082 q 430 924 474 986 q 356 790 386 861 q 311 644 326 718 q 296 497 296 569 q 318 324 296 400 q 383 197 340 249 q 489 119 426 146 q 633 92 551 92 m 882 1310 q 725 1372 781 1310 q 678 1561 669 1435 q 692 1590 679 1581 q 728 1600 706 1600 q 760 1590 749 1600 q 774 1561 772 1579 q 810 1462 776 1493 q 899 1431 844 1431 q 1006 1466 963 1431 q 1074 1560 1050 1501 q 1094 1592 1083 1583 q 1126 1600 1106 1600 q 1163 1588 1150 1600 q 1171 1554 1176 1575 q 1107 1410 1146 1464 q 1013 1333 1068 1356 q 882 1310 958 1310 z "},"Ǒ":{"ha":1300,"x_min":167,"x_max":1267,"o":"m 617 -26 q 432 10 515 -26 q 290 113 349 46 q 199 274 231 181 q 167 481 167 367 q 185 655 167 565 q 240 831 203 744 q 331 994 276 918 q 458 1129 386 1071 q 622 1221 531 1188 q 819 1254 713 1254 q 1003 1218 921 1254 q 1144 1115 1085 1182 q 1235 954 1203 1047 q 1267 747 1267 861 q 1247 564 1267 656 q 1190 385 1228 472 q 1097 224 1151 299 q 969 93 1042 149 q 808 6 896 38 q 617 -26 721 -26 m 633 92 q 782 118 714 92 q 906 192 850 144 q 1006 301 963 239 q 1078 436 1050 364 q 1122 583 1107 508 q 1138 731 1138 657 q 1115 905 1138 829 q 1050 1032 1093 981 q 945 1110 1007 1083 q 803 1136 883 1136 q 656 1109 724 1136 q 531 1034 588 1082 q 430 924 474 986 q 356 790 386 861 q 311 644 326 718 q 296 497 296 569 q 318 324 296 400 q 383 197 340 249 q 489 119 426 146 q 633 92 551 92 m 1129 1601 q 1160 1585 1146 1601 q 1174 1553 1174 1568 q 1170 1535 1174 1542 q 1160 1522 1167 1528 l 944 1343 q 909 1319 926 1328 q 868 1311 892 1311 q 835 1321 849 1311 q 810 1347 821 1331 l 671 1531 q 663 1547 664 1540 q 661 1558 661 1554 q 681 1588 661 1575 q 714 1601 701 1601 q 735 1594 728 1601 q 750 1579 742 1588 l 889 1453 l 1090 1581 q 1109 1594 1100 1586 q 1129 1601 1118 1601 z "},"Ô":{"ha":1300,"x_min":167,"x_max":1267,"o":"m 617 -26 q 432 10 515 -26 q 290 113 349 46 q 199 274 231 181 q 167 481 167 367 q 185 655 167 565 q 240 831 203 744 q 331 994 276 918 q 458 1129 386 1071 q 622 1221 531 1188 q 819 1254 713 1254 q 1003 1218 921 1254 q 1144 1115 1085 1182 q 1235 954 1203 1047 q 1267 747 1267 861 q 1247 564 1267 656 q 1190 385 1228 472 q 1097 224 1151 299 q 969 93 1042 149 q 808 6 896 38 q 617 -26 721 -26 m 633 92 q 782 118 714 92 q 906 192 850 144 q 1006 301 963 239 q 1078 436 1050 364 q 1122 583 1107 508 q 1138 731 1138 657 q 1115 905 1138 829 q 1050 1032 1093 981 q 945 1110 1007 1083 q 803 1136 883 1136 q 656 1109 724 1136 q 531 1034 588 1082 q 430 924 474 986 q 356 790 386 861 q 311 644 326 718 q 296 497 296 569 q 318 324 296 400 q 383 197 340 249 q 489 119 426 146 q 633 92 551 92 m 675 1311 q 647 1328 660 1311 q 633 1360 633 1344 q 637 1378 633 1371 q 647 1390 640 1385 l 861 1569 q 898 1594 881 1586 q 938 1601 915 1601 q 972 1592 958 1601 q 996 1567 986 1582 l 1136 1383 q 1144 1367 1143 1374 q 1146 1353 1146 1360 q 1128 1324 1146 1338 q 1097 1311 1110 1311 q 1074 1318 1083 1311 q 1054 1333 1065 1325 l 917 1461 l 715 1326 q 696 1316 706 1321 q 675 1311 686 1311 z "},"Ö":{"ha":1300,"x_min":167,"x_max":1267,"o":"m 617 -26 q 432 10 515 -26 q 290 113 349 46 q 199 274 231 181 q 167 481 167 367 q 185 655 167 565 q 240 831 203 744 q 331 994 276 918 q 458 1129 386 1071 q 622 1221 531 1188 q 819 1254 713 1254 q 1003 1218 921 1254 q 1144 1115 1085 1182 q 1235 954 1203 1047 q 1267 747 1267 861 q 1247 564 1267 656 q 1190 385 1228 472 q 1097 224 1151 299 q 969 93 1042 149 q 808 6 896 38 q 617 -26 721 -26 m 633 92 q 782 118 714 92 q 906 192 850 144 q 1006 301 963 239 q 1078 436 1050 364 q 1122 583 1107 508 q 1138 731 1138 657 q 1115 905 1138 829 q 1050 1032 1093 981 q 945 1110 1007 1083 q 803 1136 883 1136 q 656 1109 724 1136 q 531 1034 588 1082 q 430 924 474 986 q 356 790 386 861 q 311 644 326 718 q 296 497 296 569 q 318 324 296 400 q 383 197 340 249 q 489 119 426 146 q 633 92 551 92 m 718 1356 q 667 1374 686 1356 q 647 1431 647 1393 q 672 1500 647 1469 q 743 1531 696 1531 q 793 1513 774 1531 q 813 1457 813 1494 q 790 1386 813 1417 q 718 1356 767 1356 m 1057 1356 q 1007 1374 1026 1356 q 988 1431 988 1393 q 1011 1500 988 1469 q 1083 1531 1035 1531 q 1133 1513 1113 1531 q 1153 1457 1153 1494 q 1130 1386 1153 1417 q 1057 1356 1107 1356 z "},"Ò":{"ha":1300,"x_min":167,"x_max":1267,"o":"m 617 -26 q 432 10 515 -26 q 290 113 349 46 q 199 274 231 181 q 167 481 167 367 q 185 655 167 565 q 240 831 203 744 q 331 994 276 918 q 458 1129 386 1071 q 622 1221 531 1188 q 819 1254 713 1254 q 1003 1218 921 1254 q 1144 1115 1085 1182 q 1235 954 1203 1047 q 1267 747 1267 861 q 1247 564 1267 656 q 1190 385 1228 472 q 1097 224 1151 299 q 969 93 1042 149 q 808 6 896 38 q 617 -26 721 -26 m 633 92 q 782 118 714 92 q 906 192 850 144 q 1006 301 963 239 q 1078 436 1050 364 q 1122 583 1107 508 q 1138 731 1138 657 q 1115 905 1138 829 q 1050 1032 1093 981 q 945 1110 1007 1083 q 803 1136 883 1136 q 656 1109 724 1136 q 531 1034 588 1082 q 430 924 474 986 q 356 790 386 861 q 311 644 326 718 q 296 497 296 569 q 318 324 296 400 q 383 197 340 249 q 489 119 426 146 q 633 92 551 92 m 946 1311 q 933 1315 940 1311 q 919 1325 926 1319 l 726 1496 q 709 1514 713 1507 q 706 1531 706 1521 q 719 1561 706 1544 q 751 1590 733 1578 q 782 1601 769 1601 q 797 1597 790 1601 q 810 1586 803 1593 l 988 1386 q 997 1373 996 1378 q 999 1363 999 1368 q 979 1331 999 1350 q 946 1311 960 1311 z "},"Ő":{"ha":1300,"x_min":167,"x_max":1267,"o":"m 617 -26 q 432 10 515 -26 q 290 113 349 46 q 199 274 231 181 q 167 481 167 367 q 185 655 167 565 q 240 831 203 744 q 331 994 276 918 q 458 1129 386 1071 q 622 1221 531 1188 q 819 1254 713 1254 q 1003 1218 921 1254 q 1144 1115 1085 1182 q 1235 954 1203 1047 q 1267 747 1267 861 q 1247 564 1267 656 q 1190 385 1228 472 q 1097 224 1151 299 q 969 93 1042 149 q 808 6 896 38 q 617 -26 721 -26 m 633 92 q 782 118 714 92 q 906 192 850 144 q 1006 301 963 239 q 1078 436 1050 364 q 1122 583 1107 508 q 1138 731 1138 657 q 1115 905 1138 829 q 1050 1032 1093 981 q 945 1110 1007 1083 q 803 1136 883 1136 q 656 1109 724 1136 q 531 1034 588 1082 q 430 924 474 986 q 356 790 386 861 q 311 644 326 718 q 296 497 296 569 q 318 324 296 400 q 383 197 340 249 q 489 119 426 146 q 633 92 551 92 m 729 1311 q 696 1331 715 1311 q 676 1364 676 1350 q 678 1374 676 1369 q 689 1388 679 1379 l 876 1586 q 890 1597 883 1593 q 903 1601 896 1601 q 934 1590 917 1601 q 965 1561 951 1578 q 978 1531 978 1544 q 975 1514 978 1521 q 957 1496 972 1507 l 756 1325 q 741 1315 747 1319 q 729 1311 735 1311 m 992 1311 q 958 1331 978 1311 q 939 1364 939 1350 q 940 1374 939 1369 q 951 1388 942 1379 l 1139 1586 q 1153 1597 1146 1593 q 1167 1601 1160 1601 q 1199 1590 1181 1601 q 1229 1561 1217 1578 q 1242 1531 1242 1544 q 1239 1514 1242 1521 q 1221 1496 1236 1507 l 1017 1325 q 1003 1315 1010 1319 q 992 1311 996 1311 z "},"Ō":{"ha":1300,"x_min":167,"x_max":1267,"o":"m 617 -26 q 432 10 515 -26 q 290 113 349 46 q 199 274 231 181 q 167 481 167 367 q 185 655 167 565 q 240 831 203 744 q 331 994 276 918 q 458 1129 386 1071 q 622 1221 531 1188 q 819 1254 713 1254 q 1003 1218 921 1254 q 1144 1115 1085 1182 q 1235 954 1203 1047 q 1267 747 1267 861 q 1247 564 1267 656 q 1190 385 1228 472 q 1097 224 1151 299 q 969 93 1042 149 q 808 6 896 38 q 617 -26 721 -26 m 633 92 q 782 118 714 92 q 906 192 850 144 q 1006 301 963 239 q 1078 436 1050 364 q 1122 583 1107 508 q 1138 731 1138 657 q 1115 905 1138 829 q 1050 1032 1093 981 q 945 1110 1007 1083 q 803 1136 883 1136 q 656 1109 724 1136 q 531 1034 588 1082 q 430 924 474 986 q 356 790 386 861 q 311 644 326 718 q 296 497 296 569 q 318 324 296 400 q 383 197 340 249 q 489 119 426 146 q 633 92 551 92 m 710 1397 q 677 1413 683 1397 q 676 1454 671 1429 q 693 1500 682 1485 q 729 1515 704 1515 l 1096 1515 q 1128 1498 1122 1515 q 1129 1454 1135 1481 q 1113 1412 1124 1426 q 1076 1397 1101 1397 l 710 1397 z "},"Ø":{"ha":1300,"x_min":136,"x_max":1283,"o":"m 617 -26 q 432 10 515 -26 q 290 113 349 46 q 199 274 231 181 q 167 481 167 367 q 185 655 167 565 q 240 831 203 744 q 331 994 276 918 q 458 1129 386 1071 q 622 1221 531 1188 q 819 1254 713 1254 q 1003 1218 921 1254 q 1144 1115 1085 1182 q 1235 954 1203 1047 q 1267 747 1267 861 q 1247 564 1267 656 q 1190 385 1228 472 q 1097 224 1151 299 q 969 93 1042 149 q 808 6 896 38 q 617 -26 721 -26 m 633 92 q 782 118 714 92 q 906 192 850 144 q 1006 301 963 239 q 1078 436 1050 364 q 1122 583 1107 508 q 1138 731 1138 657 q 1115 905 1138 829 q 1050 1032 1093 981 q 945 1110 1007 1083 q 803 1136 883 1136 q 656 1109 724 1136 q 531 1034 588 1082 q 430 924 474 986 q 356 790 386 861 q 311 644 326 718 q 296 497 296 569 q 318 324 296 400 q 383 197 340 249 q 489 119 426 146 q 633 92 551 92 m 256 -56 q 226 -75 246 -69 q 179 -60 207 -81 q 163 10 135 -26 l 1178 1272 q 1210 1290 1189 1288 q 1256 1275 1232 1292 q 1279 1242 1275 1263 q 1269 1203 1283 1222 l 256 -56 z "},"Õ":{"ha":1300,"x_min":167,"x_max":1267,"o":"m 617 -26 q 432 10 515 -26 q 290 113 349 46 q 199 274 231 181 q 167 481 167 367 q 185 655 167 565 q 240 831 203 744 q 331 994 276 918 q 458 1129 386 1071 q 622 1221 531 1188 q 819 1254 713 1254 q 1003 1218 921 1254 q 1144 1115 1085 1182 q 1235 954 1203 1047 q 1267 747 1267 861 q 1247 564 1267 656 q 1190 385 1228 472 q 1097 224 1151 299 q 969 93 1042 149 q 808 6 896 38 q 617 -26 721 -26 m 633 92 q 782 118 714 92 q 906 192 850 144 q 1006 301 963 239 q 1078 436 1050 364 q 1122 583 1107 508 q 1138 731 1138 657 q 1115 905 1138 829 q 1050 1032 1093 981 q 945 1110 1007 1083 q 803 1136 883 1136 q 656 1109 724 1136 q 531 1034 588 1082 q 430 924 474 986 q 356 790 386 861 q 311 644 326 718 q 296 497 296 569 q 318 324 296 400 q 383 197 340 249 q 489 119 426 146 q 633 92 551 92 m 686 1351 q 643 1389 642 1351 q 684 1523 650 1481 q 781 1565 718 1565 q 858 1551 822 1565 q 923 1516 893 1536 q 979 1481 953 1496 q 1028 1467 1006 1467 q 1053 1482 1042 1467 q 1071 1532 1065 1497 q 1126 1567 1075 1567 q 1159 1558 1150 1567 q 1167 1529 1168 1549 q 1128 1397 1161 1440 q 1031 1353 1096 1353 q 951 1367 988 1353 q 885 1401 915 1382 q 831 1435 856 1421 q 782 1450 806 1450 q 753 1435 764 1450 q 738 1386 742 1419 q 723 1360 736 1368 q 686 1351 710 1351 z "},"Ố":{"ha":1300,"x_min":167,"x_max":1375,"o":"m 617 -26 q 432 10 515 -26 q 290 113 349 46 q 199 274 231 181 q 167 481 167 367 q 185 655 167 565 q 240 831 203 744 q 331 994 276 918 q 458 1129 386 1071 q 622 1221 531 1188 q 819 1254 713 1254 q 1003 1218 921 1254 q 1144 1115 1085 1182 q 1235 954 1203 1047 q 1267 747 1267 861 q 1247 564 1267 656 q 1190 385 1228 472 q 1097 224 1151 299 q 969 93 1042 149 q 808 6 896 38 q 617 -26 721 -26 m 633 92 q 782 118 714 92 q 906 192 850 144 q 1006 301 963 239 q 1078 436 1050 364 q 1122 583 1107 508 q 1138 731 1138 657 q 1115 905 1138 829 q 1050 1032 1093 981 q 945 1110 1007 1083 q 803 1136 883 1136 q 656 1109 724 1136 q 531 1034 588 1082 q 430 924 474 986 q 356 790 386 861 q 311 644 326 718 q 296 497 296 569 q 318 324 296 400 q 383 197 340 249 q 489 119 426 146 q 633 92 551 92 m 675 1311 q 647 1328 660 1311 q 633 1360 633 1344 q 637 1378 633 1371 q 647 1390 640 1385 l 861 1569 q 898 1594 881 1586 q 938 1601 915 1601 q 972 1592 958 1601 q 996 1567 986 1582 l 1136 1383 q 1144 1367 1143 1374 q 1146 1353 1146 1360 q 1128 1324 1146 1338 q 1097 1311 1110 1311 q 1074 1318 1083 1311 q 1054 1333 1065 1325 l 917 1461 l 715 1326 q 696 1316 706 1321 q 675 1311 686 1311 m 1138 1531 q 1104 1549 1124 1531 q 1085 1582 1085 1568 q 1086 1592 1085 1588 q 1097 1607 1088 1597 l 1274 1782 q 1286 1794 1281 1790 q 1300 1799 1292 1799 q 1332 1786 1314 1799 q 1363 1756 1350 1774 q 1376 1725 1376 1739 q 1373 1708 1376 1715 q 1354 1690 1369 1701 l 1164 1544 q 1149 1534 1156 1538 q 1138 1531 1143 1531 z "},"Ộ":{"ha":1300,"x_min":167,"x_max":1267,"o":"m 617 -26 q 432 10 515 -26 q 290 113 349 46 q 199 274 231 181 q 167 481 167 367 q 185 655 167 565 q 240 831 203 744 q 331 994 276 918 q 458 1129 386 1071 q 622 1221 531 1188 q 819 1254 713 1254 q 1003 1218 921 1254 q 1144 1115 1085 1182 q 1235 954 1203 1047 q 1267 747 1267 861 q 1247 564 1267 656 q 1190 385 1228 472 q 1097 224 1151 299 q 969 93 1042 149 q 808 6 896 38 q 617 -26 721 -26 m 633 92 q 782 118 714 92 q 906 192 850 144 q 1006 301 963 239 q 1078 436 1050 364 q 1122 583 1107 508 q 1138 731 1138 657 q 1115 905 1138 829 q 1050 1032 1093 981 q 945 1110 1007 1083 q 803 1136 883 1136 q 656 1109 724 1136 q 531 1034 588 1082 q 430 924 474 986 q 356 790 386 861 q 311 644 326 718 q 296 497 296 569 q 318 324 296 400 q 383 197 340 249 q 489 119 426 146 q 633 92 551 92 m 489 -324 q 439 -305 458 -324 q 419 -249 419 -286 q 443 -179 419 -210 q 515 -149 467 -149 q 565 -167 546 -149 q 585 -222 585 -186 q 562 -293 585 -262 q 489 -324 539 -324 m 675 1311 q 647 1328 660 1311 q 633 1360 633 1344 q 637 1378 633 1371 q 647 1390 640 1385 l 861 1569 q 898 1594 881 1586 q 938 1601 915 1601 q 972 1592 958 1601 q 996 1567 986 1582 l 1136 1383 q 1144 1367 1143 1374 q 1146 1353 1146 1360 q 1128 1324 1146 1338 q 1097 1311 1110 1311 q 1074 1318 1083 1311 q 1054 1333 1065 1325 l 917 1461 l 715 1326 q 696 1316 706 1321 q 675 1311 686 1311 z "},"Ồ":{"ha":1300,"x_min":167,"x_max":1267,"o":"m 617 -26 q 432 10 515 -26 q 290 113 349 46 q 199 274 231 181 q 167 481 167 367 q 185 655 167 565 q 240 831 203 744 q 331 994 276 918 q 458 1129 386 1071 q 622 1221 531 1188 q 819 1254 713 1254 q 1003 1218 921 1254 q 1144 1115 1085 1182 q 1235 954 1203 1047 q 1267 747 1267 861 q 1247 564 1267 656 q 1190 385 1228 472 q 1097 224 1151 299 q 969 93 1042 149 q 808 6 896 38 q 617 -26 721 -26 m 633 92 q 782 118 714 92 q 906 192 850 144 q 1006 301 963 239 q 1078 436 1050 364 q 1122 583 1107 508 q 1138 731 1138 657 q 1115 905 1138 829 q 1050 1032 1093 981 q 945 1110 1007 1083 q 803 1136 883 1136 q 656 1109 724 1136 q 531 1034 588 1082 q 430 924 474 986 q 356 790 386 861 q 311 644 326 718 q 296 497 296 569 q 318 324 296 400 q 383 197 340 249 q 489 119 426 146 q 633 92 551 92 m 675 1311 q 647 1328 660 1311 q 633 1360 633 1344 q 637 1378 633 1371 q 647 1390 640 1385 l 861 1569 q 898 1594 881 1586 q 938 1601 915 1601 q 972 1592 958 1601 q 996 1567 986 1582 l 1136 1383 q 1144 1367 1143 1374 q 1146 1353 1146 1360 q 1128 1324 1146 1338 q 1097 1311 1110 1311 q 1074 1318 1083 1311 q 1054 1333 1065 1325 l 917 1461 l 715 1326 q 696 1316 706 1321 q 675 1311 686 1311 m 1213 1507 q 1201 1510 1207 1507 q 1188 1521 1194 1514 l 1015 1710 q 999 1728 1004 1722 q 994 1744 994 1735 q 1008 1776 994 1760 q 1040 1803 1021 1793 q 1075 1814 1060 1814 q 1090 1810 1082 1814 q 1103 1799 1097 1806 l 1256 1586 q 1265 1569 1263 1574 q 1267 1558 1267 1564 q 1249 1526 1267 1544 q 1213 1507 1231 1507 z "},"Ổ":{"ha":1300,"x_min":167,"x_max":1338,"o":"m 617 -26 q 432 10 515 -26 q 290 113 349 46 q 199 274 231 181 q 167 481 167 367 q 185 655 167 565 q 240 831 203 744 q 331 994 276 918 q 458 1129 386 1071 q 622 1221 531 1188 q 819 1254 713 1254 q 1003 1218 921 1254 q 1144 1115 1085 1182 q 1235 954 1203 1047 q 1267 747 1267 861 q 1247 564 1267 656 q 1190 385 1228 472 q 1097 224 1151 299 q 969 93 1042 149 q 808 6 896 38 q 617 -26 721 -26 m 633 92 q 782 118 714 92 q 906 192 850 144 q 1006 301 963 239 q 1078 436 1050 364 q 1122 583 1107 508 q 1138 731 1138 657 q 1115 905 1138 829 q 1050 1032 1093 981 q 945 1110 1007 1083 q 803 1136 883 1136 q 656 1109 724 1136 q 531 1034 588 1082 q 430 924 474 986 q 356 790 386 861 q 311 644 326 718 q 296 497 296 569 q 318 324 296 400 q 383 197 340 249 q 489 119 426 146 q 633 92 551 92 m 675 1311 q 647 1328 660 1311 q 633 1360 633 1344 q 637 1378 633 1371 q 647 1390 640 1385 l 861 1569 q 898 1594 881 1586 q 938 1601 915 1601 q 972 1592 958 1601 q 996 1567 986 1582 l 1136 1383 q 1144 1367 1143 1374 q 1146 1353 1146 1360 q 1128 1324 1146 1338 q 1097 1311 1110 1311 q 1074 1318 1083 1311 q 1054 1333 1065 1325 l 917 1461 l 715 1326 q 696 1316 706 1321 q 675 1311 686 1311 m 1199 1832 q 1300 1803 1263 1832 q 1338 1722 1338 1774 q 1317 1653 1338 1683 q 1257 1596 1297 1622 q 1224 1569 1233 1581 q 1214 1542 1215 1557 l 1213 1525 q 1198 1499 1213 1508 q 1165 1489 1183 1490 q 1133 1495 1147 1488 q 1114 1519 1118 1503 l 1108 1553 q 1116 1609 1103 1585 q 1158 1654 1129 1633 q 1192 1682 1182 1668 q 1203 1707 1203 1696 q 1194 1724 1203 1718 q 1167 1731 1185 1731 q 1132 1725 1151 1731 q 1092 1711 1113 1719 q 1036 1738 1057 1693 q 1056 1796 1021 1774 q 1123 1822 1088 1813 q 1199 1832 1158 1832 z "},"Ỗ":{"ha":1300,"x_min":167,"x_max":1267,"o":"m 617 -26 q 432 10 515 -26 q 290 113 349 46 q 199 274 231 181 q 167 481 167 367 q 185 655 167 565 q 240 831 203 744 q 331 994 276 918 q 458 1129 386 1071 q 622 1221 531 1188 q 819 1254 713 1254 q 1003 1218 921 1254 q 1144 1115 1085 1182 q 1235 954 1203 1047 q 1267 747 1267 861 q 1247 564 1267 656 q 1190 385 1228 472 q 1097 224 1151 299 q 969 93 1042 149 q 808 6 896 38 q 617 -26 721 -26 m 633 92 q 782 118 714 92 q 906 192 850 144 q 1006 301 963 239 q 1078 436 1050 364 q 1122 583 1107 508 q 1138 731 1138 657 q 1115 905 1138 829 q 1050 1032 1093 981 q 945 1110 1007 1083 q 803 1136 883 1136 q 656 1109 724 1136 q 531 1034 588 1082 q 430 924 474 986 q 356 790 386 861 q 311 644 326 718 q 296 497 296 569 q 318 324 296 400 q 383 197 340 249 q 489 119 426 146 q 633 92 551 92 m 675 1311 q 647 1328 660 1311 q 633 1360 633 1344 q 637 1378 633 1371 q 647 1390 640 1385 l 861 1569 q 898 1594 881 1586 q 938 1601 915 1601 q 972 1592 958 1601 q 996 1567 986 1582 l 1136 1383 q 1144 1367 1143 1374 q 1146 1353 1146 1360 q 1128 1324 1146 1338 q 1097 1311 1110 1311 q 1074 1318 1083 1311 q 1054 1333 1065 1325 l 917 1461 l 715 1326 q 696 1316 706 1321 q 675 1311 686 1311 m 736 1618 q 693 1656 692 1618 q 733 1790 699 1747 q 829 1832 767 1832 q 907 1817 871 1832 q 973 1783 943 1803 q 1029 1748 1003 1763 q 1078 1733 1056 1733 q 1103 1749 1092 1733 q 1119 1799 1115 1765 q 1175 1833 1125 1833 q 1208 1824 1199 1833 q 1217 1797 1218 1815 q 1178 1663 1211 1707 q 1081 1619 1146 1619 q 1001 1634 1036 1619 q 935 1668 965 1649 q 881 1702 906 1688 q 831 1717 856 1717 q 803 1701 814 1717 q 788 1653 792 1686 q 772 1627 786 1636 q 736 1618 758 1618 z "},"Ọ":{"ha":1300,"x_min":167,"x_max":1267,"o":"m 617 -26 q 432 10 515 -26 q 290 113 349 46 q 199 274 231 181 q 167 481 167 367 q 185 655 167 565 q 240 831 203 744 q 331 994 276 918 q 458 1129 386 1071 q 622 1221 531 1188 q 819 1254 713 1254 q 1003 1218 921 1254 q 1144 1115 1085 1182 q 1235 954 1203 1047 q 1267 747 1267 861 q 1247 564 1267 656 q 1190 385 1228 472 q 1097 224 1151 299 q 969 93 1042 149 q 808 6 896 38 q 617 -26 721 -26 m 633 92 q 782 118 714 92 q 906 192 850 144 q 1006 301 963 239 q 1078 436 1050 364 q 1122 583 1107 508 q 1138 731 1138 657 q 1115 905 1138 829 q 1050 1032 1093 981 q 945 1110 1007 1083 q 803 1136 883 1136 q 656 1109 724 1136 q 531 1034 588 1082 q 430 924 474 986 q 356 790 386 861 q 311 644 326 718 q 296 497 296 569 q 318 324 296 400 q 383 197 340 249 q 489 119 426 146 q 633 92 551 92 m 489 -324 q 439 -305 458 -324 q 419 -249 419 -286 q 443 -179 419 -210 q 515 -149 467 -149 q 565 -167 546 -149 q 585 -222 585 -186 q 562 -293 585 -262 q 489 -324 539 -324 z "},"Ỏ":{"ha":1300,"x_min":167,"x_max":1267,"o":"m 617 -26 q 432 10 515 -26 q 290 113 349 46 q 199 274 231 181 q 167 481 167 367 q 185 655 167 565 q 240 831 203 744 q 331 994 276 918 q 458 1129 386 1071 q 622 1221 531 1188 q 819 1254 713 1254 q 1003 1218 921 1254 q 1144 1115 1085 1182 q 1235 954 1203 1047 q 1267 747 1267 861 q 1247 564 1267 656 q 1190 385 1228 472 q 1097 224 1151 299 q 969 93 1042 149 q 808 6 896 38 q 617 -26 721 -26 m 633 92 q 782 118 714 92 q 906 192 850 144 q 1006 301 963 239 q 1078 436 1050 364 q 1122 583 1107 508 q 1138 731 1138 657 q 1115 905 1138 829 q 1050 1032 1093 981 q 945 1110 1007 1083 q 803 1136 883 1136 q 656 1109 724 1136 q 531 1034 588 1082 q 430 924 474 986 q 356 790 386 861 q 311 644 326 718 q 296 497 296 569 q 318 324 296 400 q 383 197 340 249 q 489 119 426 146 q 633 92 551 92 m 925 1640 q 1027 1611 990 1640 q 1064 1531 1064 1582 q 1044 1461 1064 1492 q 983 1404 1025 1431 q 951 1377 960 1389 q 942 1351 942 1365 l 940 1333 q 925 1308 939 1317 q 893 1297 911 1299 q 860 1304 875 1296 q 842 1328 846 1313 l 836 1361 q 844 1419 831 1394 q 886 1463 857 1443 q 919 1491 908 1478 q 931 1515 931 1504 q 922 1533 931 1526 q 894 1539 913 1539 q 859 1534 879 1539 q 818 1519 839 1529 q 763 1546 785 1501 q 782 1604 749 1583 q 851 1631 815 1621 q 925 1640 886 1640 z "},"Ơ":{"ha":1300,"x_min":167,"x_max":1315,"o":"m 617 -26 q 432 10 515 -26 q 290 113 349 46 q 199 274 231 181 q 167 481 167 367 q 185 655 167 565 q 240 831 203 744 q 331 994 276 918 q 458 1129 386 1071 q 622 1221 531 1188 q 819 1254 713 1254 q 895 1249 858 1254 q 965 1231 932 1243 q 1096 1250 1047 1235 q 1168 1295 1144 1265 q 1197 1370 1192 1325 q 1193 1479 1201 1415 q 1206 1512 1192 1500 q 1242 1526 1221 1524 q 1282 1522 1264 1529 q 1304 1494 1300 1514 q 1313 1382 1315 1435 q 1288 1285 1310 1329 q 1218 1211 1265 1242 q 1090 1165 1171 1181 q 1220 994 1174 1101 q 1267 747 1267 886 q 1247 564 1267 656 q 1190 385 1228 472 q 1097 224 1151 299 q 969 93 1042 149 q 808 6 896 38 q 617 -26 721 -26 m 633 92 q 782 118 714 92 q 906 192 850 144 q 1006 301 963 239 q 1078 436 1050 364 q 1122 583 1107 508 q 1138 731 1138 657 q 1115 905 1138 829 q 1050 1032 1093 981 q 945 1110 1007 1083 q 803 1136 883 1136 q 656 1109 724 1136 q 531 1034 588 1082 q 430 924 474 986 q 356 790 386 861 q 311 644 326 718 q 296 497 296 569 q 318 324 296 400 q 383 197 340 249 q 489 119 426 146 q 633 92 551 92 z "},"Ớ":{"ha":1300,"x_min":167,"x_max":1315,"o":"m 617 -26 q 432 10 515 -26 q 290 113 349 46 q 199 274 231 181 q 167 481 167 367 q 185 655 167 565 q 240 831 203 744 q 331 994 276 918 q 458 1129 386 1071 q 622 1221 531 1188 q 819 1254 713 1254 q 895 1249 858 1254 q 965 1231 932 1243 q 1096 1250 1047 1235 q 1168 1295 1144 1265 q 1197 1370 1192 1325 q 1193 1479 1201 1415 q 1206 1512 1192 1500 q 1242 1526 1221 1524 q 1282 1522 1264 1529 q 1304 1494 1300 1514 q 1313 1382 1315 1435 q 1288 1285 1310 1329 q 1218 1211 1265 1242 q 1090 1165 1171 1181 q 1220 994 1174 1101 q 1267 747 1267 886 q 1247 564 1267 656 q 1190 385 1228 472 q 1097 224 1151 299 q 969 93 1042 149 q 808 6 896 38 q 617 -26 721 -26 m 633 92 q 782 118 714 92 q 906 192 850 144 q 1006 301 963 239 q 1078 436 1050 364 q 1122 583 1107 508 q 1138 731 1138 657 q 1115 905 1138 829 q 1050 1032 1093 981 q 945 1110 1007 1083 q 803 1136 883 1136 q 656 1109 724 1136 q 531 1034 588 1082 q 430 924 474 986 q 356 790 386 861 q 311 644 326 718 q 296 497 296 569 q 318 324 296 400 q 383 197 340 249 q 489 119 426 146 q 633 92 551 92 m 810 1311 q 777 1331 796 1311 q 758 1364 758 1350 q 760 1374 758 1369 q 769 1388 761 1379 l 975 1586 q 988 1597 983 1593 q 1001 1601 993 1601 q 1033 1589 1015 1601 q 1065 1560 1051 1576 q 1078 1529 1078 1543 q 1075 1513 1078 1519 q 1057 1494 1072 1506 l 836 1325 q 822 1315 828 1319 q 810 1311 815 1311 z "},"Ợ":{"ha":1300,"x_min":167,"x_max":1315,"o":"m 617 -26 q 432 10 515 -26 q 290 113 349 46 q 199 274 231 181 q 167 481 167 367 q 185 655 167 565 q 240 831 203 744 q 331 994 276 918 q 458 1129 386 1071 q 622 1221 531 1188 q 819 1254 713 1254 q 895 1249 858 1254 q 965 1231 932 1243 q 1096 1250 1047 1235 q 1168 1295 1144 1265 q 1197 1370 1192 1325 q 1193 1479 1201 1415 q 1206 1512 1192 1500 q 1242 1526 1221 1524 q 1282 1522 1264 1529 q 1304 1494 1300 1514 q 1313 1382 1315 1435 q 1288 1285 1310 1329 q 1218 1211 1265 1242 q 1090 1165 1171 1181 q 1220 994 1174 1101 q 1267 747 1267 886 q 1247 564 1267 656 q 1190 385 1228 472 q 1097 224 1151 299 q 969 93 1042 149 q 808 6 896 38 q 617 -26 721 -26 m 633 92 q 782 118 714 92 q 906 192 850 144 q 1006 301 963 239 q 1078 436 1050 364 q 1122 583 1107 508 q 1138 731 1138 657 q 1115 905 1138 829 q 1050 1032 1093 981 q 945 1110 1007 1083 q 803 1136 883 1136 q 656 1109 724 1136 q 531 1034 588 1082 q 430 924 474 986 q 356 790 386 861 q 311 644 326 718 q 296 497 296 569 q 318 324 296 400 q 383 197 340 249 q 489 119 426 146 q 633 92 551 92 m 489 -324 q 439 -305 458 -324 q 419 -249 419 -286 q 443 -179 419 -210 q 515 -149 467 -149 q 565 -167 546 -149 q 585 -222 585 -186 q 562 -293 585 -262 q 489 -324 539 -324 z "},"Ờ":{"ha":1300,"x_min":167,"x_max":1315,"o":"m 617 -26 q 432 10 515 -26 q 290 113 349 46 q 199 274 231 181 q 167 481 167 367 q 185 655 167 565 q 240 831 203 744 q 331 994 276 918 q 458 1129 386 1071 q 622 1221 531 1188 q 819 1254 713 1254 q 895 1249 858 1254 q 965 1231 932 1243 q 1096 1250 1047 1235 q 1168 1295 1144 1265 q 1197 1370 1192 1325 q 1193 1479 1201 1415 q 1206 1512 1192 1500 q 1242 1526 1221 1524 q 1282 1522 1264 1529 q 1304 1494 1300 1514 q 1313 1382 1315 1435 q 1288 1285 1310 1329 q 1218 1211 1265 1242 q 1090 1165 1171 1181 q 1220 994 1174 1101 q 1267 747 1267 886 q 1247 564 1267 656 q 1190 385 1228 472 q 1097 224 1151 299 q 969 93 1042 149 q 808 6 896 38 q 617 -26 721 -26 m 633 92 q 782 118 714 92 q 906 192 850 144 q 1006 301 963 239 q 1078 436 1050 364 q 1122 583 1107 508 q 1138 731 1138 657 q 1115 905 1138 829 q 1050 1032 1093 981 q 945 1110 1007 1083 q 803 1136 883 1136 q 656 1109 724 1136 q 531 1034 588 1082 q 430 924 474 986 q 356 790 386 861 q 311 644 326 718 q 296 497 296 569 q 318 324 296 400 q 383 197 340 249 q 489 119 426 146 q 633 92 551 92 m 946 1311 q 933 1315 940 1311 q 919 1325 926 1319 l 726 1496 q 709 1514 713 1507 q 706 1531 706 1521 q 719 1561 706 1544 q 751 1590 733 1578 q 782 1601 769 1601 q 797 1597 790 1601 q 810 1586 803 1593 l 988 1386 q 997 1373 996 1378 q 999 1363 999 1368 q 979 1331 999 1350 q 946 1311 960 1311 z "},"Ở":{"ha":1300,"x_min":167,"x_max":1315,"o":"m 617 -26 q 432 10 515 -26 q 290 113 349 46 q 199 274 231 181 q 167 481 167 367 q 185 655 167 565 q 240 831 203 744 q 331 994 276 918 q 458 1129 386 1071 q 622 1221 531 1188 q 819 1254 713 1254 q 895 1249 858 1254 q 965 1231 932 1243 q 1096 1250 1047 1235 q 1168 1295 1144 1265 q 1197 1370 1192 1325 q 1193 1479 1201 1415 q 1206 1512 1192 1500 q 1242 1526 1221 1524 q 1282 1522 1264 1529 q 1304 1494 1300 1514 q 1313 1382 1315 1435 q 1288 1285 1310 1329 q 1218 1211 1265 1242 q 1090 1165 1171 1181 q 1220 994 1174 1101 q 1267 747 1267 886 q 1247 564 1267 656 q 1190 385 1228 472 q 1097 224 1151 299 q 969 93 1042 149 q 808 6 896 38 q 617 -26 721 -26 m 633 92 q 782 118 714 92 q 906 192 850 144 q 1006 301 963 239 q 1078 436 1050 364 q 1122 583 1107 508 q 1138 731 1138 657 q 1115 905 1138 829 q 1050 1032 1093 981 q 945 1110 1007 1083 q 803 1136 883 1136 q 656 1109 724 1136 q 531 1034 588 1082 q 430 924 474 986 q 356 790 386 861 q 311 644 326 718 q 296 497 296 569 q 318 324 296 400 q 383 197 340 249 q 489 119 426 146 q 633 92 551 92 m 925 1640 q 1027 1611 990 1640 q 1064 1531 1064 1582 q 1044 1461 1064 1492 q 983 1404 1025 1431 q 951 1377 960 1389 q 942 1351 942 1365 l 940 1333 q 925 1308 939 1317 q 893 1297 911 1299 q 860 1304 875 1296 q 842 1328 846 1313 l 836 1361 q 844 1419 831 1394 q 886 1463 857 1443 q 919 1491 908 1478 q 931 1515 931 1504 q 922 1533 931 1526 q 894 1539 913 1539 q 859 1534 879 1539 q 818 1519 839 1529 q 763 1546 785 1501 q 782 1604 749 1583 q 851 1631 815 1621 q 925 1640 886 1640 z "},"Ỡ":{"ha":1300,"x_min":167,"x_max":1315,"o":"m 617 -26 q 432 10 515 -26 q 290 113 349 46 q 199 274 231 181 q 167 481 167 367 q 185 655 167 565 q 240 831 203 744 q 331 994 276 918 q 458 1129 386 1071 q 622 1221 531 1188 q 819 1254 713 1254 q 895 1249 858 1254 q 965 1231 932 1243 q 1096 1250 1047 1235 q 1168 1295 1144 1265 q 1197 1370 1192 1325 q 1193 1479 1201 1415 q 1206 1512 1192 1500 q 1242 1526 1221 1524 q 1282 1522 1264 1529 q 1304 1494 1300 1514 q 1313 1382 1315 1435 q 1288 1285 1310 1329 q 1218 1211 1265 1242 q 1090 1165 1171 1181 q 1220 994 1174 1101 q 1267 747 1267 886 q 1247 564 1267 656 q 1190 385 1228 472 q 1097 224 1151 299 q 969 93 1042 149 q 808 6 896 38 q 617 -26 721 -26 m 633 92 q 782 118 714 92 q 906 192 850 144 q 1006 301 963 239 q 1078 436 1050 364 q 1122 583 1107 508 q 1138 731 1138 657 q 1115 905 1138 829 q 1050 1032 1093 981 q 945 1110 1007 1083 q 803 1136 883 1136 q 656 1109 724 1136 q 531 1034 588 1082 q 430 924 474 986 q 356 790 386 861 q 311 644 326 718 q 296 497 296 569 q 318 324 296 400 q 383 197 340 249 q 489 119 426 146 q 633 92 551 92 m 643 1351 q 600 1389 599 1351 q 641 1523 607 1481 q 738 1565 675 1565 q 815 1551 779 1565 q 880 1516 850 1536 q 936 1481 910 1496 q 985 1467 963 1467 q 1010 1482 999 1467 q 1028 1532 1022 1497 q 1083 1567 1032 1567 q 1116 1558 1107 1567 q 1124 1529 1125 1549 q 1085 1397 1118 1440 q 988 1353 1053 1353 q 908 1367 944 1353 q 842 1401 872 1382 q 788 1435 813 1421 q 739 1450 763 1450 q 710 1435 721 1450 q 694 1386 699 1419 q 680 1360 693 1368 q 643 1351 667 1351 z "},"Ŕ":{"ha":975,"x_min":90,"x_max":1056,"o":"m 151 -19 q 106 -10 121 -19 q 96 22 90 0 l 390 1196 q 413 1224 396 1215 q 460 1233 429 1233 l 647 1233 q 880 1208 789 1233 q 1013 1123 971 1182 q 1056 965 1056 1064 q 1038 854 1056 906 q 985 758 1019 803 q 902 678 951 713 q 788 617 853 643 q 645 574 724 590 q 476 554 567 558 q 585 390 526 471 q 711 229 643 308 q 860 72 779 150 q 876 42 872 61 q 850 -6 881 22 q 810 -21 831 -24 q 772 -1 790 -18 q 617 163 694 74 q 471 349 540 251 q 347 540 401 446 l 218 19 q 197 -10 213 0 q 151 -19 182 -19 m 374 651 q 518 658 451 651 q 641 677 585 664 q 743 710 697 690 q 824 754 789 729 q 883 810 860 779 q 919 878 907 842 q 931 957 931 915 q 904 1057 931 1021 q 813 1108 878 1093 q 636 1122 749 1122 l 494 1122 l 374 651 m 674 1311 q 641 1331 660 1311 q 622 1364 622 1350 q 624 1374 622 1369 q 633 1388 625 1379 l 839 1586 q 852 1597 847 1593 q 865 1601 857 1601 q 897 1589 879 1601 q 928 1560 915 1576 q 942 1529 942 1543 q 939 1513 942 1519 q 921 1494 936 1506 l 700 1325 q 685 1315 692 1319 q 674 1311 679 1311 z "},"Ř":{"ha":975,"x_min":90,"x_max":1056,"o":"m 151 -19 q 106 -10 121 -19 q 96 22 90 0 l 390 1196 q 413 1224 396 1215 q 460 1233 429 1233 l 647 1233 q 880 1208 789 1233 q 1013 1123 971 1182 q 1056 965 1056 1064 q 1038 854 1056 906 q 985 758 1019 803 q 902 678 951 713 q 788 617 853 643 q 645 574 724 590 q 476 554 567 558 q 585 390 526 471 q 711 229 643 308 q 860 72 779 150 q 876 42 872 61 q 850 -6 881 22 q 810 -21 831 -24 q 772 -1 790 -18 q 617 163 694 74 q 471 349 540 251 q 347 540 401 446 l 218 19 q 197 -10 213 0 q 151 -19 182 -19 m 374 651 q 518 658 451 651 q 641 677 585 664 q 743 710 697 690 q 824 754 789 729 q 883 810 860 779 q 919 878 907 842 q 931 957 931 915 q 904 1057 931 1021 q 813 1108 878 1093 q 636 1122 749 1122 l 494 1122 l 374 651 m 993 1601 q 1024 1585 1010 1601 q 1038 1553 1038 1568 q 1034 1535 1038 1542 q 1024 1522 1031 1528 l 808 1343 q 773 1319 790 1328 q 732 1311 756 1311 q 699 1321 713 1311 q 674 1347 685 1331 l 535 1531 q 526 1547 528 1540 q 525 1558 525 1554 q 545 1588 525 1575 q 578 1601 565 1601 q 599 1594 592 1601 q 614 1579 606 1588 l 753 1453 l 954 1581 q 973 1594 964 1586 q 993 1601 982 1601 z "},"Ŗ":{"ha":975,"x_min":90,"x_max":1056,"o":"m 151 -19 q 106 -10 121 -19 q 96 22 90 0 l 390 1196 q 413 1224 396 1215 q 460 1233 429 1233 l 647 1233 q 880 1208 789 1233 q 1013 1123 971 1182 q 1056 965 1056 1064 q 1038 854 1056 906 q 985 758 1019 803 q 902 678 951 713 q 788 617 853 643 q 645 574 724 590 q 476 554 567 558 q 585 390 526 471 q 711 229 643 308 q 860 72 779 150 q 876 42 872 61 q 850 -6 881 22 q 810 -21 831 -24 q 772 -1 790 -18 q 617 163 694 74 q 471 349 540 251 q 347 540 401 446 l 218 19 q 197 -10 213 0 q 151 -19 182 -19 m 374 651 q 518 658 451 651 q 641 677 585 664 q 743 710 697 690 q 824 754 789 729 q 883 810 860 779 q 919 878 907 842 q 931 957 931 915 q 904 1057 931 1021 q 813 1108 878 1093 q 636 1122 749 1122 l 494 1122 l 374 651 m 311 -400 q 292 -376 294 -390 q 300 -344 289 -361 q 338 -276 324 -307 q 360 -214 353 -246 q 372 -140 368 -182 q 389 -107 374 -117 q 431 -97 404 -97 q 478 -112 463 -97 q 492 -154 494 -128 q 474 -228 490 -189 q 432 -306 457 -268 q 378 -378 407 -344 q 345 -403 361 -397 q 311 -400 329 -410 z "},"Ś":{"ha":967,"x_min":49,"x_max":994,"o":"m 435 -26 q 317 -12 372 -26 q 214 26 261 1 q 128 85 167 51 q 61 157 90 118 q 55 187 49 172 q 76 215 61 201 q 110 236 96 232 q 140 224 125 240 q 215 159 172 189 q 313 110 258 129 q 435 92 368 92 q 558 106 503 92 q 655 150 614 121 q 719 226 696 179 q 742 333 742 272 q 728 407 742 374 q 688 468 714 440 q 625 520 663 496 q 538 569 588 544 q 449 618 492 592 q 371 675 407 644 q 308 744 335 706 q 267 829 282 782 q 251 936 251 876 q 279 1064 251 1006 q 360 1165 307 1122 q 485 1231 413 1208 q 650 1254 558 1254 q 782 1234 722 1254 q 891 1181 842 1214 q 979 1110 940 1149 q 991 1081 994 1096 q 969 1049 988 1065 q 938 1030 954 1033 q 907 1036 921 1026 q 838 1086 874 1064 q 756 1122 801 1108 q 649 1136 711 1136 q 540 1124 590 1136 q 455 1086 490 1111 q 400 1024 419 1061 q 381 936 381 986 q 392 854 381 890 q 430 789 404 818 q 497 733 456 760 q 597 679 539 706 q 708 615 658 650 q 795 539 758 581 q 851 447 832 497 q 869 333 869 396 q 838 185 869 251 q 747 72 806 119 q 610 -1 689 24 q 435 -26 531 -26 m 618 1311 q 585 1331 604 1311 q 567 1364 567 1350 q 568 1374 567 1369 q 578 1388 569 1379 l 783 1586 q 797 1597 792 1593 q 810 1601 801 1601 q 842 1589 824 1601 q 873 1560 860 1576 q 886 1529 886 1543 q 883 1513 886 1519 q 865 1494 881 1506 l 644 1325 q 630 1315 636 1319 q 618 1311 624 1311 z "},"Š":{"ha":967,"x_min":49,"x_max":994,"o":"m 435 -26 q 317 -12 372 -26 q 214 26 261 1 q 128 85 167 51 q 61 157 90 118 q 55 187 49 172 q 76 215 61 201 q 110 236 96 232 q 140 224 125 240 q 215 159 172 189 q 313 110 258 129 q 435 92 368 92 q 558 106 503 92 q 655 150 614 121 q 719 226 696 179 q 742 333 742 272 q 728 407 742 374 q 688 468 714 440 q 625 520 663 496 q 538 569 588 544 q 449 618 492 592 q 371 675 407 644 q 308 744 335 706 q 267 829 282 782 q 251 936 251 876 q 279 1064 251 1006 q 360 1165 307 1122 q 485 1231 413 1208 q 650 1254 558 1254 q 782 1234 722 1254 q 891 1181 842 1214 q 979 1110 940 1149 q 991 1081 994 1096 q 969 1049 988 1065 q 938 1030 954 1033 q 907 1036 921 1026 q 838 1086 874 1064 q 756 1122 801 1108 q 649 1136 711 1136 q 540 1124 590 1136 q 455 1086 490 1111 q 400 1024 419 1061 q 381 936 381 986 q 392 854 381 890 q 430 789 404 818 q 497 733 456 760 q 597 679 539 706 q 708 615 658 650 q 795 539 758 581 q 851 447 832 497 q 869 333 869 396 q 838 185 869 251 q 747 72 806 119 q 610 -1 689 24 q 435 -26 531 -26 m 938 1601 q 968 1585 954 1601 q 982 1553 982 1568 q 978 1535 982 1542 q 968 1522 975 1528 l 753 1343 q 717 1319 735 1328 q 676 1311 700 1311 q 643 1321 657 1311 q 618 1347 629 1331 l 479 1531 q 471 1547 472 1540 q 469 1558 469 1554 q 490 1588 469 1575 q 522 1601 510 1601 q 543 1594 536 1601 q 558 1579 550 1588 l 697 1453 l 899 1581 q 917 1594 908 1586 q 938 1601 926 1601 z "},"Ş":{"ha":967,"x_min":49,"x_max":994,"o":"m 435 -26 q 317 -12 372 -26 q 214 26 261 1 q 128 85 167 51 q 61 157 90 118 q 55 187 49 172 q 76 215 61 201 q 110 236 96 232 q 140 224 125 240 q 215 159 172 189 q 313 110 258 129 q 435 92 368 92 q 558 106 503 92 q 655 150 614 121 q 719 226 696 179 q 742 333 742 272 q 728 407 742 374 q 688 468 714 440 q 625 520 663 496 q 538 569 588 544 q 449 618 492 592 q 371 675 407 644 q 308 744 335 706 q 267 829 282 782 q 251 936 251 876 q 279 1064 251 1006 q 360 1165 307 1122 q 485 1231 413 1208 q 650 1254 558 1254 q 782 1234 722 1254 q 891 1181 842 1214 q 979 1110 940 1149 q 991 1081 994 1096 q 969 1049 988 1065 q 938 1030 954 1033 q 907 1036 921 1026 q 838 1086 874 1064 q 756 1122 801 1108 q 649 1136 711 1136 q 540 1124 590 1136 q 455 1086 490 1111 q 400 1024 419 1061 q 381 936 381 986 q 392 854 381 890 q 430 789 404 818 q 497 733 456 760 q 597 679 539 706 q 708 615 658 650 q 795 539 758 581 q 851 447 832 497 q 869 333 869 396 q 838 185 869 251 q 747 72 806 119 q 610 -1 689 24 q 435 -26 531 -26 m 350 -374 q 264 -364 306 -374 q 196 -335 222 -354 q 184 -307 183 -324 q 192 -276 185 -290 q 213 -252 201 -258 q 240 -253 225 -246 q 283 -269 257 -260 q 350 -278 310 -278 q 406 -267 388 -278 q 425 -229 425 -257 q 399 -192 425 -201 q 331 -187 374 -182 q 308 -185 315 -189 q 296 -172 301 -181 q 292 -153 290 -162 q 299 -135 293 -144 l 393 18 l 483 18 l 385 -146 l 344 -124 q 450 -111 406 -103 q 518 -148 494 -119 q 542 -218 542 -176 q 517 -303 542 -268 q 448 -356 492 -337 q 350 -374 404 -374 z "},"Ŝ":{"ha":967,"x_min":49,"x_max":994,"o":"m 435 -26 q 317 -12 372 -26 q 214 26 261 1 q 128 85 167 51 q 61 157 90 118 q 55 187 49 172 q 76 215 61 201 q 110 236 96 232 q 140 224 125 240 q 215 159 172 189 q 313 110 258 129 q 435 92 368 92 q 558 106 503 92 q 655 150 614 121 q 719 226 696 179 q 742 333 742 272 q 728 407 742 374 q 688 468 714 440 q 625 520 663 496 q 538 569 588 544 q 449 618 492 592 q 371 675 407 644 q 308 744 335 706 q 267 829 282 782 q 251 936 251 876 q 279 1064 251 1006 q 360 1165 307 1122 q 485 1231 413 1208 q 650 1254 558 1254 q 782 1234 722 1254 q 891 1181 842 1214 q 979 1110 940 1149 q 991 1081 994 1096 q 969 1049 988 1065 q 938 1030 954 1033 q 907 1036 921 1026 q 838 1086 874 1064 q 756 1122 801 1108 q 649 1136 711 1136 q 540 1124 590 1136 q 455 1086 490 1111 q 400 1024 419 1061 q 381 936 381 986 q 392 854 381 890 q 430 789 404 818 q 497 733 456 760 q 597 679 539 706 q 708 615 658 650 q 795 539 758 581 q 851 447 832 497 q 869 333 869 396 q 838 185 869 251 q 747 72 806 119 q 610 -1 689 24 q 435 -26 531 -26 m 483 1311 q 455 1328 468 1311 q 442 1360 442 1344 q 445 1378 442 1371 q 456 1390 449 1385 l 669 1569 q 706 1594 689 1586 q 746 1601 724 1601 q 781 1592 767 1601 q 804 1567 794 1582 l 944 1383 q 953 1367 951 1374 q 954 1353 954 1360 q 936 1324 954 1338 q 906 1311 918 1311 q 883 1318 892 1311 q 863 1333 874 1325 l 725 1461 l 524 1326 q 504 1316 514 1321 q 483 1311 494 1311 z "},"Ș":{"ha":967,"x_min":49,"x_max":994,"o":"m 435 -26 q 317 -12 372 -26 q 214 26 261 1 q 128 85 167 51 q 61 157 90 118 q 55 187 49 172 q 76 215 61 201 q 110 236 96 232 q 140 224 125 240 q 215 159 172 189 q 313 110 258 129 q 435 92 368 92 q 558 106 503 92 q 655 150 614 121 q 719 226 696 179 q 742 333 742 272 q 728 407 742 374 q 688 468 714 440 q 625 520 663 496 q 538 569 588 544 q 449 618 492 592 q 371 675 407 644 q 308 744 335 706 q 267 829 282 782 q 251 936 251 876 q 279 1064 251 1006 q 360 1165 307 1122 q 485 1231 413 1208 q 650 1254 558 1254 q 782 1234 722 1254 q 891 1181 842 1214 q 979 1110 940 1149 q 991 1081 994 1096 q 969 1049 988 1065 q 938 1030 954 1033 q 907 1036 921 1026 q 838 1086 874 1064 q 756 1122 801 1108 q 649 1136 711 1136 q 540 1124 590 1136 q 455 1086 490 1111 q 400 1024 419 1061 q 381 936 381 986 q 392 854 381 890 q 430 789 404 818 q 497 733 456 760 q 597 679 539 706 q 708 615 658 650 q 795 539 758 581 q 851 447 832 497 q 869 333 869 396 q 838 185 869 251 q 747 72 806 119 q 610 -1 689 24 q 435 -26 531 -26 m 279 -400 q 260 -376 263 -390 q 268 -344 257 -361 q 306 -276 292 -307 q 328 -214 321 -246 q 340 -140 336 -182 q 357 -107 342 -117 q 399 -97 372 -97 q 447 -112 431 -97 q 460 -154 463 -128 q 442 -228 458 -189 q 400 -306 425 -268 q 346 -378 375 -344 q 313 -403 329 -397 q 279 -400 297 -410 z "},"Ŧ":{"ha":969,"x_min":224,"x_max":1167,"o":"m 392 -21 q 340 18 333 -21 l 621 1122 l 256 1122 q 229 1135 235 1122 q 231 1178 224 1147 q 252 1222 240 1210 q 285 1233 264 1233 l 1135 1233 q 1161 1222 1156 1233 q 1158 1178 1167 1210 q 1138 1135 1150 1147 q 1106 1122 1126 1122 l 742 1122 l 461 18 q 440 -11 457 -1 q 392 -21 422 -21 m 293 565 q 265 581 268 565 q 264 614 261 596 q 276 650 267 633 q 311 667 285 667 l 822 667 q 851 650 847 667 q 851 614 854 633 q 840 581 849 596 q 806 565 831 565 l 293 565 z "},"Ť":{"ha":969,"x_min":224,"x_max":1167,"o":"m 392 -21 q 340 18 333 -21 l 621 1122 l 256 1122 q 229 1135 235 1122 q 231 1178 224 1147 q 252 1222 240 1210 q 285 1233 264 1233 l 1135 1233 q 1161 1222 1156 1233 q 1158 1178 1167 1210 q 1138 1135 1150 1147 q 1106 1122 1126 1122 l 742 1122 l 461 18 q 440 -11 457 -1 q 392 -21 422 -21 m 986 1601 q 1017 1585 1003 1601 q 1031 1553 1031 1568 q 1027 1535 1031 1542 q 1017 1522 1024 1528 l 801 1343 q 766 1319 783 1328 q 725 1311 749 1311 q 692 1321 706 1311 q 667 1347 678 1331 l 528 1531 q 519 1547 521 1540 q 518 1558 518 1554 q 538 1588 518 1575 q 571 1601 558 1601 q 592 1594 585 1601 q 607 1579 599 1588 l 746 1453 l 947 1581 q 966 1594 957 1586 q 986 1601 975 1601 z "},"Ţ":{"ha":969,"x_min":158,"x_max":1167,"o":"m 392 -21 q 340 18 333 -21 l 621 1122 l 256 1122 q 229 1135 235 1122 q 231 1178 224 1147 q 252 1222 240 1210 q 285 1233 264 1233 l 1135 1233 q 1161 1222 1156 1233 q 1158 1178 1167 1210 q 1138 1135 1150 1147 q 1106 1122 1126 1122 l 742 1122 l 461 18 q 440 -11 457 -1 q 392 -21 422 -21 m 325 -374 q 239 -364 281 -374 q 171 -335 197 -354 q 159 -307 158 -324 q 167 -276 160 -290 q 188 -252 176 -258 q 215 -253 200 -246 q 258 -269 232 -260 q 325 -278 285 -278 q 381 -267 363 -278 q 400 -229 400 -257 q 374 -192 400 -201 q 306 -187 349 -182 q 283 -185 290 -189 q 271 -172 276 -181 q 267 -153 265 -162 q 274 -135 268 -144 l 368 18 l 458 18 l 360 -146 l 319 -124 q 425 -111 381 -103 q 493 -148 469 -119 q 517 -218 517 -176 q 492 -303 517 -268 q 423 -356 467 -337 q 325 -374 379 -374 z "},"Ț":{"ha":969,"x_min":224,"x_max":1167,"o":"m 392 -21 q 340 18 333 -21 l 621 1122 l 256 1122 q 229 1135 235 1122 q 231 1178 224 1147 q 252 1222 240 1210 q 285 1233 264 1233 l 1135 1233 q 1161 1222 1156 1233 q 1158 1178 1167 1210 q 1138 1135 1150 1147 q 1106 1122 1126 1122 l 742 1122 l 461 18 q 440 -11 457 -1 q 392 -21 422 -21 m 254 -400 q 235 -376 238 -390 q 243 -344 232 -361 q 281 -276 267 -307 q 303 -214 296 -246 q 315 -140 311 -182 q 332 -107 317 -117 q 374 -97 347 -97 q 422 -112 406 -97 q 435 -154 438 -128 q 417 -228 433 -189 q 375 -306 400 -268 q 321 -378 350 -344 q 288 -403 304 -397 q 254 -400 272 -410 z "},"Ú":{"ha":1213,"x_min":157,"x_max":1268,"o":"m 539 -26 q 355 2 433 -26 q 229 86 276 31 q 169 223 182 142 q 183 408 157 304 l 382 1217 q 403 1245 388 1236 q 451 1254 418 1254 q 499 1244 483 1254 q 508 1214 514 1235 l 303 397 q 298 223 275 290 q 385 124 321 156 q 546 92 450 92 q 732 128 653 92 q 863 232 811 164 q 939 397 915 300 l 1133 1217 q 1155 1245 1139 1236 q 1203 1254 1171 1254 q 1258 1214 1268 1254 l 1060 385 q 956 161 1028 253 q 778 22 883 69 q 539 -26 672 -26 m 767 1311 q 734 1331 753 1311 q 715 1364 715 1350 q 717 1374 715 1369 q 726 1388 718 1379 l 932 1586 q 945 1597 940 1593 q 958 1601 950 1601 q 990 1589 972 1601 q 1022 1560 1008 1576 q 1035 1529 1035 1543 q 1032 1513 1035 1519 q 1014 1494 1029 1506 l 793 1325 q 778 1315 785 1319 q 767 1311 772 1311 z "},"Ŭ":{"ha":1213,"x_min":157,"x_max":1268,"o":"m 539 -26 q 355 2 433 -26 q 229 86 276 31 q 169 223 182 142 q 183 408 157 304 l 382 1217 q 403 1245 388 1236 q 451 1254 418 1254 q 499 1244 483 1254 q 508 1214 514 1235 l 303 397 q 298 223 275 290 q 385 124 321 156 q 546 92 450 92 q 732 128 653 92 q 863 232 811 164 q 939 397 915 300 l 1133 1217 q 1155 1245 1139 1236 q 1203 1254 1171 1254 q 1258 1214 1268 1254 l 1060 385 q 956 161 1028 253 q 778 22 883 69 q 539 -26 672 -26 m 839 1310 q 682 1372 738 1310 q 635 1561 626 1435 q 649 1590 636 1581 q 685 1600 663 1600 q 717 1590 706 1600 q 731 1561 729 1579 q 767 1462 733 1493 q 856 1431 801 1431 q 963 1466 919 1431 q 1031 1560 1007 1501 q 1051 1592 1040 1583 q 1083 1600 1063 1600 q 1120 1588 1107 1600 q 1128 1554 1133 1575 q 1064 1410 1103 1464 q 970 1333 1025 1356 q 839 1310 915 1310 z "},"Ǔ":{"ha":1213,"x_min":157,"x_max":1268,"o":"m 539 -26 q 355 2 433 -26 q 229 86 276 31 q 169 223 182 142 q 183 408 157 304 l 382 1217 q 403 1245 388 1236 q 451 1254 418 1254 q 499 1244 483 1254 q 508 1214 514 1235 l 303 397 q 298 223 275 290 q 385 124 321 156 q 546 92 450 92 q 732 128 653 92 q 863 232 811 164 q 939 397 915 300 l 1133 1217 q 1155 1245 1139 1236 q 1203 1254 1171 1254 q 1258 1214 1268 1254 l 1060 385 q 956 161 1028 253 q 778 22 883 69 q 539 -26 672 -26 m 1086 1601 q 1117 1585 1103 1601 q 1131 1553 1131 1568 q 1127 1535 1131 1542 q 1117 1522 1124 1528 l 901 1343 q 866 1319 883 1328 q 825 1311 849 1311 q 792 1321 806 1311 q 767 1347 778 1331 l 628 1531 q 619 1547 621 1540 q 618 1558 618 1554 q 638 1588 618 1575 q 671 1601 658 1601 q 692 1594 685 1601 q 707 1579 699 1588 l 846 1453 l 1047 1581 q 1066 1594 1057 1586 q 1086 1601 1075 1601 z "},"Û":{"ha":1213,"x_min":157,"x_max":1268,"o":"m 539 -26 q 355 2 433 -26 q 229 86 276 31 q 169 223 182 142 q 183 408 157 304 l 382 1217 q 403 1245 388 1236 q 451 1254 418 1254 q 499 1244 483 1254 q 508 1214 514 1235 l 303 397 q 298 223 275 290 q 385 124 321 156 q 546 92 450 92 q 732 128 653 92 q 863 232 811 164 q 939 397 915 300 l 1133 1217 q 1155 1245 1139 1236 q 1203 1254 1171 1254 q 1258 1214 1268 1254 l 1060 385 q 956 161 1028 253 q 778 22 883 69 q 539 -26 672 -26 m 632 1311 q 603 1328 617 1311 q 590 1360 590 1344 q 594 1378 590 1371 q 604 1390 597 1385 l 818 1569 q 855 1594 838 1586 q 894 1601 872 1601 q 929 1592 915 1601 q 953 1567 943 1582 l 1093 1383 q 1101 1367 1100 1374 q 1103 1353 1103 1360 q 1085 1324 1103 1338 q 1054 1311 1067 1311 q 1031 1318 1040 1311 q 1011 1333 1022 1325 l 874 1461 l 672 1326 q 653 1316 663 1321 q 632 1311 643 1311 z "},"Ü":{"ha":1213,"x_min":157,"x_max":1268,"o":"m 539 -26 q 355 2 433 -26 q 229 86 276 31 q 169 223 182 142 q 183 408 157 304 l 382 1217 q 403 1245 388 1236 q 451 1254 418 1254 q 499 1244 483 1254 q 508 1214 514 1235 l 303 397 q 298 223 275 290 q 385 124 321 156 q 546 92 450 92 q 732 128 653 92 q 863 232 811 164 q 939 397 915 300 l 1133 1217 q 1155 1245 1139 1236 q 1203 1254 1171 1254 q 1258 1214 1268 1254 l 1060 385 q 956 161 1028 253 q 778 22 883 69 q 539 -26 672 -26 m 675 1356 q 624 1374 643 1356 q 604 1431 604 1393 q 628 1500 604 1469 q 700 1531 653 1531 q 750 1513 731 1531 q 769 1457 769 1494 q 747 1386 769 1417 q 675 1356 724 1356 m 1014 1356 q 964 1374 983 1356 q 944 1431 944 1393 q 968 1500 944 1469 q 1040 1531 992 1531 q 1090 1513 1069 1531 q 1110 1457 1110 1494 q 1087 1386 1110 1417 q 1014 1356 1064 1356 z "},"Ù":{"ha":1213,"x_min":157,"x_max":1268,"o":"m 539 -26 q 355 2 433 -26 q 229 86 276 31 q 169 223 182 142 q 183 408 157 304 l 382 1217 q 403 1245 388 1236 q 451 1254 418 1254 q 499 1244 483 1254 q 508 1214 514 1235 l 303 397 q 298 223 275 290 q 385 124 321 156 q 546 92 450 92 q 732 128 653 92 q 863 232 811 164 q 939 397 915 300 l 1133 1217 q 1155 1245 1139 1236 q 1203 1254 1171 1254 q 1258 1214 1268 1254 l 1060 385 q 956 161 1028 253 q 778 22 883 69 q 539 -26 672 -26 m 903 1311 q 890 1315 897 1311 q 876 1325 883 1319 l 683 1496 q 666 1514 669 1507 q 663 1531 663 1521 q 676 1561 663 1544 q 708 1590 690 1578 q 739 1601 726 1601 q 753 1597 747 1601 q 767 1586 760 1593 l 944 1386 q 954 1373 953 1378 q 956 1363 956 1368 q 936 1331 956 1350 q 903 1311 917 1311 z "},"Ű":{"ha":1213,"x_min":157,"x_max":1268,"o":"m 539 -26 q 355 2 433 -26 q 229 86 276 31 q 169 223 182 142 q 183 408 157 304 l 382 1217 q 403 1245 388 1236 q 451 1254 418 1254 q 499 1244 483 1254 q 508 1214 514 1235 l 303 397 q 298 223 275 290 q 385 124 321 156 q 546 92 450 92 q 732 128 653 92 q 863 232 811 164 q 939 397 915 300 l 1133 1217 q 1155 1245 1139 1236 q 1203 1254 1171 1254 q 1258 1214 1268 1254 l 1060 385 q 956 161 1028 253 q 778 22 883 69 q 539 -26 672 -26 m 686 1311 q 653 1331 672 1311 q 633 1364 633 1350 q 635 1374 633 1369 q 646 1388 636 1379 l 833 1586 q 847 1597 840 1593 q 860 1601 853 1601 q 891 1590 874 1601 q 922 1561 908 1578 q 935 1531 935 1544 q 932 1514 935 1521 q 914 1496 929 1507 l 713 1325 q 698 1315 704 1319 q 686 1311 692 1311 m 949 1311 q 915 1331 935 1311 q 896 1364 896 1350 q 897 1374 896 1369 q 908 1388 899 1379 l 1096 1586 q 1110 1597 1103 1593 q 1124 1601 1117 1601 q 1156 1590 1138 1601 q 1186 1561 1174 1578 q 1199 1531 1199 1544 q 1196 1514 1199 1521 q 1178 1496 1193 1507 l 974 1325 q 960 1315 967 1319 q 949 1311 953 1311 z "},"Ū":{"ha":1213,"x_min":157,"x_max":1268,"o":"m 539 -26 q 355 2 433 -26 q 229 86 276 31 q 169 223 182 142 q 183 408 157 304 l 382 1217 q 403 1245 388 1236 q 451 1254 418 1254 q 499 1244 483 1254 q 508 1214 514 1235 l 303 397 q 298 223 275 290 q 385 124 321 156 q 546 92 450 92 q 732 128 653 92 q 863 232 811 164 q 939 397 915 300 l 1133 1217 q 1155 1245 1139 1236 q 1203 1254 1171 1254 q 1258 1214 1268 1254 l 1060 385 q 956 161 1028 253 q 778 22 883 69 q 539 -26 672 -26 m 667 1397 q 634 1413 640 1397 q 633 1454 628 1429 q 650 1500 639 1485 q 686 1515 661 1515 l 1053 1515 q 1085 1498 1079 1515 q 1086 1454 1092 1481 q 1069 1412 1081 1426 q 1033 1397 1058 1397 l 667 1397 z "},"Ų":{"ha":1213,"x_min":157,"x_max":1268,"o":"m 539 -26 q 355 2 433 -26 q 229 86 276 31 q 169 223 182 142 q 183 408 157 304 l 382 1217 q 403 1245 388 1236 q 451 1254 418 1254 q 499 1244 483 1254 q 508 1214 514 1235 l 303 397 q 298 223 275 290 q 385 124 321 156 q 546 92 450 92 q 732 128 653 92 q 863 232 811 164 q 939 397 915 300 l 1133 1217 q 1155 1245 1139 1236 q 1203 1254 1171 1254 q 1258 1214 1268 1254 l 1060 385 q 956 161 1028 253 q 778 22 883 69 q 539 -26 672 -26 m 532 -339 q 462 -315 488 -339 q 436 -249 436 -292 q 454 -178 436 -214 q 506 -108 472 -143 q 585 -35 539 -72 q 689 44 632 3 l 775 43 l 775 35 q 692 -35 731 -1 q 624 -100 653 -69 q 578 -156 594 -131 q 561 -203 561 -182 q 569 -226 561 -218 q 590 -233 576 -233 q 639 -217 615 -233 q 694 -171 663 -200 q 717 -160 703 -162 q 747 -172 732 -158 q 763 -197 758 -183 q 758 -225 767 -211 q 696 -284 735 -258 q 614 -324 657 -310 q 532 -339 571 -339 z "},"Ů":{"ha":1213,"x_min":157,"x_max":1268,"o":"m 539 -26 q 355 2 433 -26 q 229 86 276 31 q 169 223 182 142 q 183 408 157 304 l 382 1217 q 403 1245 388 1236 q 451 1254 418 1254 q 499 1244 483 1254 q 508 1214 514 1235 l 303 397 q 298 223 275 290 q 385 124 321 156 q 546 92 450 92 q 732 128 653 92 q 863 232 811 164 q 939 397 915 300 l 1133 1217 q 1155 1245 1139 1236 q 1203 1254 1171 1254 q 1258 1214 1268 1254 l 1060 385 q 956 161 1028 253 q 778 22 883 69 q 539 -26 672 -26 m 844 1300 q 751 1319 790 1300 q 690 1372 711 1338 q 669 1454 669 1407 q 698 1547 669 1506 q 775 1613 726 1589 q 883 1638 824 1638 q 979 1619 939 1638 q 1041 1566 1019 1600 q 1063 1483 1063 1532 q 1033 1389 1063 1431 q 956 1324 1004 1347 q 844 1300 907 1300 m 850 1383 q 929 1412 897 1383 q 961 1482 961 1440 q 940 1535 961 1515 q 879 1554 919 1554 q 802 1526 833 1554 q 771 1457 771 1497 q 792 1403 771 1424 q 850 1383 814 1383 z "},"Ũ":{"ha":1213,"x_min":157,"x_max":1268,"o":"m 539 -26 q 355 2 433 -26 q 229 86 276 31 q 169 223 182 142 q 183 408 157 304 l 382 1217 q 403 1245 388 1236 q 451 1254 418 1254 q 499 1244 483 1254 q 508 1214 514 1235 l 303 397 q 298 223 275 290 q 385 124 321 156 q 546 92 450 92 q 732 128 653 92 q 863 232 811 164 q 939 397 915 300 l 1133 1217 q 1155 1245 1139 1236 q 1203 1254 1171 1254 q 1258 1214 1268 1254 l 1060 385 q 956 161 1028 253 q 778 22 883 69 q 539 -26 672 -26 m 643 1351 q 600 1389 599 1351 q 641 1523 607 1481 q 738 1565 675 1565 q 815 1551 779 1565 q 880 1516 850 1536 q 936 1481 910 1496 q 985 1467 963 1467 q 1010 1482 999 1467 q 1028 1532 1022 1497 q 1083 1567 1032 1567 q 1116 1558 1107 1567 q 1124 1529 1125 1549 q 1085 1397 1118 1440 q 988 1353 1053 1353 q 908 1367 944 1353 q 842 1401 872 1382 q 788 1435 813 1421 q 739 1450 763 1450 q 710 1435 721 1450 q 694 1386 699 1419 q 680 1360 693 1368 q 643 1351 667 1351 z "},"Ǘ":{"ha":1213,"x_min":157,"x_max":1268,"o":"m 539 -26 q 355 2 433 -26 q 229 86 276 31 q 169 223 182 142 q 183 408 157 304 l 382 1217 q 403 1245 388 1236 q 451 1254 418 1254 q 499 1244 483 1254 q 508 1214 514 1235 l 303 397 q 298 223 275 290 q 385 124 321 156 q 546 92 450 92 q 732 128 653 92 q 863 232 811 164 q 939 397 915 300 l 1133 1217 q 1155 1245 1139 1236 q 1203 1254 1171 1254 q 1258 1214 1268 1254 l 1060 385 q 956 161 1028 253 q 778 22 883 69 q 539 -26 672 -26 m 675 1356 q 624 1374 643 1356 q 604 1431 604 1393 q 628 1500 604 1469 q 700 1531 653 1531 q 750 1513 731 1531 q 769 1457 769 1494 q 747 1386 769 1417 q 675 1356 724 1356 m 1014 1356 q 964 1374 983 1356 q 944 1431 944 1393 q 968 1500 944 1469 q 1040 1531 992 1531 q 1090 1513 1069 1531 q 1110 1457 1110 1494 q 1087 1386 1110 1417 q 1014 1356 1064 1356 m 822 1568 q 790 1588 808 1568 q 771 1621 771 1607 q 772 1631 771 1626 q 782 1644 774 1636 l 988 1843 q 1001 1854 996 1850 q 1014 1858 1006 1858 q 1046 1846 1028 1858 q 1077 1817 1064 1833 q 1090 1786 1090 1800 q 1088 1769 1090 1776 q 1069 1751 1085 1763 l 849 1582 q 834 1572 840 1576 q 822 1568 828 1568 z "},"Ǚ":{"ha":1213,"x_min":157,"x_max":1268,"o":"m 539 -26 q 355 2 433 -26 q 229 86 276 31 q 169 223 182 142 q 183 408 157 304 l 382 1217 q 403 1245 388 1236 q 451 1254 418 1254 q 499 1244 483 1254 q 508 1214 514 1235 l 303 397 q 298 223 275 290 q 385 124 321 156 q 546 92 450 92 q 732 128 653 92 q 863 232 811 164 q 939 397 915 300 l 1133 1217 q 1155 1245 1139 1236 q 1203 1254 1171 1254 q 1258 1214 1268 1254 l 1060 385 q 956 161 1028 253 q 778 22 883 69 q 539 -26 672 -26 m 675 1356 q 624 1374 643 1356 q 604 1431 604 1393 q 628 1500 604 1469 q 700 1531 653 1531 q 750 1513 731 1531 q 769 1457 769 1494 q 747 1386 769 1417 q 675 1356 724 1356 m 1014 1356 q 964 1374 983 1356 q 944 1431 944 1393 q 968 1500 944 1469 q 1040 1531 992 1531 q 1090 1513 1069 1531 q 1110 1457 1110 1494 q 1087 1386 1110 1417 q 1014 1356 1064 1356 m 1142 1858 q 1172 1842 1158 1858 q 1186 1810 1186 1825 q 1183 1792 1186 1799 q 1172 1779 1179 1785 l 957 1600 q 922 1576 939 1585 q 881 1568 904 1568 q 847 1578 861 1568 q 822 1604 833 1588 l 683 1788 q 675 1804 676 1797 q 674 1815 674 1811 q 694 1845 674 1832 q 726 1858 714 1858 q 747 1851 740 1858 q 763 1836 754 1844 l 901 1710 l 1103 1838 q 1122 1851 1113 1843 q 1142 1858 1131 1858 z "},"Ǜ":{"ha":1213,"x_min":157,"x_max":1268,"o":"m 539 -26 q 355 2 433 -26 q 229 86 276 31 q 169 223 182 142 q 183 408 157 304 l 382 1217 q 403 1245 388 1236 q 451 1254 418 1254 q 499 1244 483 1254 q 508 1214 514 1235 l 303 397 q 298 223 275 290 q 385 124 321 156 q 546 92 450 92 q 732 128 653 92 q 863 232 811 164 q 939 397 915 300 l 1133 1217 q 1155 1245 1139 1236 q 1203 1254 1171 1254 q 1258 1214 1268 1254 l 1060 385 q 956 161 1028 253 q 778 22 883 69 q 539 -26 672 -26 m 675 1356 q 624 1374 643 1356 q 604 1431 604 1393 q 628 1500 604 1469 q 700 1531 653 1531 q 750 1513 731 1531 q 769 1457 769 1494 q 747 1386 769 1417 q 675 1356 724 1356 m 1014 1356 q 964 1374 983 1356 q 944 1431 944 1393 q 968 1500 944 1469 q 1040 1531 992 1531 q 1090 1513 1069 1531 q 1110 1457 1110 1494 q 1087 1386 1110 1417 q 1014 1356 1064 1356 m 958 1568 q 946 1572 953 1568 q 932 1582 939 1576 l 739 1753 q 722 1771 725 1764 q 718 1788 718 1778 q 732 1818 718 1801 q 764 1847 746 1835 q 794 1858 782 1858 q 809 1854 803 1858 q 822 1843 815 1850 l 1000 1643 q 1010 1630 1008 1635 q 1011 1619 1011 1625 q 992 1588 1011 1607 q 958 1568 972 1568 z "},"Ǖ":{"ha":1213,"x_min":157,"x_max":1268,"o":"m 539 -26 q 355 2 433 -26 q 229 86 276 31 q 169 223 182 142 q 183 408 157 304 l 382 1217 q 403 1245 388 1236 q 451 1254 418 1254 q 499 1244 483 1254 q 508 1214 514 1235 l 303 397 q 298 223 275 290 q 385 124 321 156 q 546 92 450 92 q 732 128 653 92 q 863 232 811 164 q 939 397 915 300 l 1133 1217 q 1155 1245 1139 1236 q 1203 1254 1171 1254 q 1258 1214 1268 1254 l 1060 385 q 956 161 1028 253 q 778 22 883 69 q 539 -26 672 -26 m 675 1356 q 624 1374 643 1356 q 604 1431 604 1393 q 628 1500 604 1469 q 700 1531 653 1531 q 750 1513 731 1531 q 769 1457 769 1494 q 747 1386 769 1417 q 675 1356 724 1356 m 1014 1356 q 964 1374 983 1356 q 944 1431 944 1393 q 968 1500 944 1469 q 1040 1531 992 1531 q 1090 1513 1069 1531 q 1110 1457 1110 1494 q 1087 1386 1110 1417 q 1014 1356 1064 1356 m 722 1654 q 690 1670 696 1654 q 689 1711 683 1686 q 706 1757 694 1742 q 742 1772 717 1772 l 1108 1772 q 1141 1755 1135 1772 q 1142 1711 1147 1738 q 1125 1669 1136 1683 q 1089 1654 1114 1654 l 722 1654 z "},"Ụ":{"ha":1213,"x_min":157,"x_max":1268,"o":"m 539 -26 q 355 2 433 -26 q 229 86 276 31 q 169 223 182 142 q 183 408 157 304 l 382 1217 q 403 1245 388 1236 q 451 1254 418 1254 q 499 1244 483 1254 q 508 1214 514 1235 l 303 397 q 298 223 275 290 q 385 124 321 156 q 546 92 450 92 q 732 128 653 92 q 863 232 811 164 q 939 397 915 300 l 1133 1217 q 1155 1245 1139 1236 q 1203 1254 1171 1254 q 1258 1214 1268 1254 l 1060 385 q 956 161 1028 253 q 778 22 883 69 q 539 -26 672 -26 m 443 -324 q 393 -305 413 -324 q 374 -249 374 -286 q 397 -179 374 -210 q 469 -149 421 -149 q 519 -167 500 -149 q 539 -222 539 -186 q 516 -293 539 -262 q 443 -324 493 -324 z "},"Ủ":{"ha":1213,"x_min":157,"x_max":1268,"o":"m 539 -26 q 355 2 433 -26 q 229 86 276 31 q 169 223 182 142 q 183 408 157 304 l 382 1217 q 403 1245 388 1236 q 451 1254 418 1254 q 499 1244 483 1254 q 508 1214 514 1235 l 303 397 q 298 223 275 290 q 385 124 321 156 q 546 92 450 92 q 732 128 653 92 q 863 232 811 164 q 939 397 915 300 l 1133 1217 q 1155 1245 1139 1236 q 1203 1254 1171 1254 q 1258 1214 1268 1254 l 1060 385 q 956 161 1028 253 q 778 22 883 69 q 539 -26 672 -26 m 882 1640 q 984 1611 947 1640 q 1021 1531 1021 1582 q 1001 1461 1021 1492 q 940 1404 982 1431 q 908 1377 917 1389 q 899 1351 899 1365 l 897 1333 q 882 1308 896 1317 q 850 1297 868 1299 q 817 1304 832 1296 q 799 1328 803 1313 l 793 1361 q 801 1419 788 1394 q 843 1463 814 1443 q 876 1491 865 1478 q 888 1515 888 1504 q 878 1533 888 1526 q 851 1539 869 1539 q 816 1534 836 1539 q 775 1519 796 1529 q 719 1546 742 1501 q 739 1604 706 1583 q 808 1631 772 1621 q 882 1640 843 1640 z "},"Ư":{"ha":1213,"x_min":157,"x_max":1525,"o":"m 1514 1492 q 1517 1367 1525 1425 q 1476 1265 1510 1308 q 1374 1196 1442 1221 q 1199 1169 1307 1171 l 1221 1251 q 1351 1279 1308 1256 q 1403 1351 1393 1303 q 1404 1478 1413 1400 q 1416 1509 1401 1497 q 1452 1524 1431 1521 q 1492 1519 1474 1528 q 1514 1492 1511 1511 m 539 -26 q 355 2 433 -26 q 229 86 276 31 q 169 223 182 142 q 183 408 157 304 l 382 1217 q 403 1245 388 1236 q 451 1254 418 1254 q 499 1244 483 1254 q 508 1214 514 1235 l 303 397 q 298 223 275 290 q 385 124 321 156 q 546 92 450 92 q 732 128 653 92 q 863 232 811 164 q 939 397 915 300 l 1133 1217 q 1155 1245 1139 1236 q 1203 1254 1171 1254 q 1258 1214 1268 1254 l 1060 385 q 956 161 1028 253 q 778 22 883 69 q 539 -26 672 -26 z "},"Ứ":{"ha":1213,"x_min":157,"x_max":1525,"o":"m 1514 1492 q 1517 1367 1525 1425 q 1476 1265 1510 1308 q 1374 1196 1442 1221 q 1199 1169 1307 1171 l 1221 1251 q 1351 1279 1308 1256 q 1403 1351 1393 1303 q 1404 1478 1413 1400 q 1416 1509 1401 1497 q 1452 1524 1431 1521 q 1492 1519 1474 1528 q 1514 1492 1511 1511 m 539 -26 q 355 2 433 -26 q 229 86 276 31 q 169 223 182 142 q 183 408 157 304 l 382 1217 q 403 1245 388 1236 q 451 1254 418 1254 q 499 1244 483 1254 q 508 1214 514 1235 l 303 397 q 298 223 275 290 q 385 124 321 156 q 546 92 450 92 q 732 128 653 92 q 863 232 811 164 q 939 397 915 300 l 1133 1217 q 1155 1245 1139 1236 q 1203 1254 1171 1254 q 1258 1214 1268 1254 l 1060 385 q 956 161 1028 253 q 778 22 883 69 q 539 -26 672 -26 m 767 1311 q 734 1331 753 1311 q 715 1364 715 1350 q 717 1374 715 1369 q 726 1388 718 1379 l 932 1586 q 945 1597 940 1593 q 958 1601 950 1601 q 990 1589 972 1601 q 1022 1560 1008 1576 q 1035 1529 1035 1543 q 1032 1513 1035 1519 q 1014 1494 1029 1506 l 793 1325 q 778 1315 785 1319 q 767 1311 772 1311 z "},"Ự":{"ha":1213,"x_min":157,"x_max":1525,"o":"m 1514 1492 q 1517 1367 1525 1425 q 1476 1265 1510 1308 q 1374 1196 1442 1221 q 1199 1169 1307 1171 l 1221 1251 q 1351 1279 1308 1256 q 1403 1351 1393 1303 q 1404 1478 1413 1400 q 1416 1509 1401 1497 q 1452 1524 1431 1521 q 1492 1519 1474 1528 q 1514 1492 1511 1511 m 539 -26 q 355 2 433 -26 q 229 86 276 31 q 169 223 182 142 q 183 408 157 304 l 382 1217 q 403 1245 388 1236 q 451 1254 418 1254 q 499 1244 483 1254 q 508 1214 514 1235 l 303 397 q 298 223 275 290 q 385 124 321 156 q 546 92 450 92 q 732 128 653 92 q 863 232 811 164 q 939 397 915 300 l 1133 1217 q 1155 1245 1139 1236 q 1203 1254 1171 1254 q 1258 1214 1268 1254 l 1060 385 q 956 161 1028 253 q 778 22 883 69 q 539 -26 672 -26 m 443 -324 q 393 -305 413 -324 q 374 -249 374 -286 q 397 -179 374 -210 q 469 -149 421 -149 q 519 -167 500 -149 q 539 -222 539 -186 q 516 -293 539 -262 q 443 -324 493 -324 z "},"Ừ":{"ha":1213,"x_min":157,"x_max":1525,"o":"m 1514 1492 q 1517 1367 1525 1425 q 1476 1265 1510 1308 q 1374 1196 1442 1221 q 1199 1169 1307 1171 l 1221 1251 q 1351 1279 1308 1256 q 1403 1351 1393 1303 q 1404 1478 1413 1400 q 1416 1509 1401 1497 q 1452 1524 1431 1521 q 1492 1519 1474 1528 q 1514 1492 1511 1511 m 539 -26 q 355 2 433 -26 q 229 86 276 31 q 169 223 182 142 q 183 408 157 304 l 382 1217 q 403 1245 388 1236 q 451 1254 418 1254 q 499 1244 483 1254 q 508 1214 514 1235 l 303 397 q 298 223 275 290 q 385 124 321 156 q 546 92 450 92 q 732 128 653 92 q 863 232 811 164 q 939 397 915 300 l 1133 1217 q 1155 1245 1139 1236 q 1203 1254 1171 1254 q 1258 1214 1268 1254 l 1060 385 q 956 161 1028 253 q 778 22 883 69 q 539 -26 672 -26 m 903 1311 q 890 1315 897 1311 q 876 1325 883 1319 l 683 1496 q 666 1514 669 1507 q 663 1531 663 1521 q 676 1561 663 1544 q 708 1590 690 1578 q 739 1601 726 1601 q 753 1597 747 1601 q 767 1586 760 1593 l 944 1386 q 954 1373 953 1378 q 956 1363 956 1368 q 936 1331 956 1350 q 903 1311 917 1311 z "},"Ử":{"ha":1213,"x_min":157,"x_max":1525,"o":"m 1514 1492 q 1517 1367 1525 1425 q 1476 1265 1510 1308 q 1374 1196 1442 1221 q 1199 1169 1307 1171 l 1221 1251 q 1351 1279 1308 1256 q 1403 1351 1393 1303 q 1404 1478 1413 1400 q 1416 1509 1401 1497 q 1452 1524 1431 1521 q 1492 1519 1474 1528 q 1514 1492 1511 1511 m 539 -26 q 355 2 433 -26 q 229 86 276 31 q 169 223 182 142 q 183 408 157 304 l 382 1217 q 403 1245 388 1236 q 451 1254 418 1254 q 499 1244 483 1254 q 508 1214 514 1235 l 303 397 q 298 223 275 290 q 385 124 321 156 q 546 92 450 92 q 732 128 653 92 q 863 232 811 164 q 939 397 915 300 l 1133 1217 q 1155 1245 1139 1236 q 1203 1254 1171 1254 q 1258 1214 1268 1254 l 1060 385 q 956 161 1028 253 q 778 22 883 69 q 539 -26 672 -26 m 882 1640 q 984 1611 947 1640 q 1021 1531 1021 1582 q 1001 1461 1021 1492 q 940 1404 982 1431 q 908 1377 917 1389 q 899 1351 899 1365 l 897 1333 q 882 1308 896 1317 q 850 1297 868 1299 q 817 1304 832 1296 q 799 1328 803 1313 l 793 1361 q 801 1419 788 1394 q 843 1463 814 1443 q 876 1491 865 1478 q 888 1515 888 1504 q 878 1533 888 1526 q 851 1539 869 1539 q 816 1534 836 1539 q 775 1519 796 1529 q 719 1546 742 1501 q 739 1604 706 1583 q 808 1631 772 1621 q 882 1640 843 1640 z "},"Ữ":{"ha":1213,"x_min":157,"x_max":1525,"o":"m 1514 1492 q 1517 1367 1525 1425 q 1476 1265 1510 1308 q 1374 1196 1442 1221 q 1199 1169 1307 1171 l 1221 1251 q 1351 1279 1308 1256 q 1403 1351 1393 1303 q 1404 1478 1413 1400 q 1416 1509 1401 1497 q 1452 1524 1431 1521 q 1492 1519 1474 1528 q 1514 1492 1511 1511 m 539 -26 q 355 2 433 -26 q 229 86 276 31 q 169 223 182 142 q 183 408 157 304 l 382 1217 q 403 1245 388 1236 q 451 1254 418 1254 q 499 1244 483 1254 q 508 1214 514 1235 l 303 397 q 298 223 275 290 q 385 124 321 156 q 546 92 450 92 q 732 128 653 92 q 863 232 811 164 q 939 397 915 300 l 1133 1217 q 1155 1245 1139 1236 q 1203 1254 1171 1254 q 1258 1214 1268 1254 l 1060 385 q 956 161 1028 253 q 778 22 883 69 q 539 -26 672 -26 m 643 1351 q 600 1389 599 1351 q 641 1523 607 1481 q 738 1565 675 1565 q 815 1551 779 1565 q 880 1516 850 1536 q 936 1481 910 1496 q 985 1467 963 1467 q 1010 1482 999 1467 q 1028 1532 1022 1497 q 1083 1567 1032 1567 q 1116 1558 1107 1567 q 1124 1529 1125 1549 q 1085 1397 1118 1440 q 988 1353 1053 1353 q 908 1367 944 1353 q 842 1401 872 1382 q 788 1435 813 1421 q 739 1450 763 1450 q 710 1435 721 1450 q 694 1386 699 1419 q 680 1360 693 1368 q 643 1351 667 1351 z "},"Ẃ":{"ha":1685,"x_min":235,"x_max":1890,"o":"m 400 -19 q 357 -6 374 -19 q 338 49 340 8 l 236 1192 q 249 1235 235 1218 q 299 1253 264 1251 q 342 1246 331 1256 q 354 1210 353 1236 l 442 186 l 976 1200 q 1013 1244 996 1235 q 1064 1254 1029 1254 q 1107 1243 1096 1254 q 1121 1204 1118 1232 l 1214 183 l 1750 1206 q 1785 1247 1768 1239 q 1835 1253 1803 1256 q 1881 1231 1871 1251 q 1874 1185 1890 1211 l 1265 36 q 1227 -7 1247 6 q 1174 -19 1207 -19 q 1130 -6 1146 -19 q 1111 49 1114 8 l 1015 1026 l 492 36 q 454 -7 475 6 q 400 -19 433 -19 m 1014 1311 q 981 1331 1000 1311 q 963 1364 963 1350 q 964 1374 963 1369 q 974 1388 965 1379 l 1179 1586 q 1192 1597 1188 1593 q 1206 1601 1197 1601 q 1238 1589 1219 1601 q 1269 1560 1256 1576 q 1282 1529 1282 1543 q 1279 1513 1282 1519 q 1261 1494 1276 1506 l 1040 1325 q 1026 1315 1032 1319 q 1014 1311 1019 1311 z "},"Ŵ":{"ha":1685,"x_min":235,"x_max":1890,"o":"m 400 -19 q 357 -6 374 -19 q 338 49 340 8 l 236 1192 q 249 1235 235 1218 q 299 1253 264 1251 q 342 1246 331 1256 q 354 1210 353 1236 l 442 186 l 976 1200 q 1013 1244 996 1235 q 1064 1254 1029 1254 q 1107 1243 1096 1254 q 1121 1204 1118 1232 l 1214 183 l 1750 1206 q 1785 1247 1768 1239 q 1835 1253 1803 1256 q 1881 1231 1871 1251 q 1874 1185 1890 1211 l 1265 36 q 1227 -7 1247 6 q 1174 -19 1207 -19 q 1130 -6 1146 -19 q 1111 49 1114 8 l 1015 1026 l 492 36 q 454 -7 475 6 q 400 -19 433 -19 m 879 1311 q 851 1328 864 1311 q 838 1360 838 1344 q 841 1378 838 1371 q 851 1390 844 1385 l 1065 1569 q 1102 1594 1085 1586 q 1142 1601 1119 1601 q 1176 1592 1163 1601 q 1200 1567 1190 1582 l 1340 1383 q 1349 1367 1347 1374 q 1350 1353 1350 1360 q 1332 1324 1350 1338 q 1301 1311 1314 1311 q 1278 1318 1288 1311 q 1258 1333 1269 1325 l 1121 1461 l 919 1326 q 900 1316 910 1321 q 879 1311 890 1311 z "},"Ẅ":{"ha":1685,"x_min":235,"x_max":1890,"o":"m 400 -19 q 357 -6 374 -19 q 338 49 340 8 l 236 1192 q 249 1235 235 1218 q 299 1253 264 1251 q 342 1246 331 1256 q 354 1210 353 1236 l 442 186 l 976 1200 q 1013 1244 996 1235 q 1064 1254 1029 1254 q 1107 1243 1096 1254 q 1121 1204 1118 1232 l 1214 183 l 1750 1206 q 1785 1247 1768 1239 q 1835 1253 1803 1256 q 1881 1231 1871 1251 q 1874 1185 1890 1211 l 1265 36 q 1227 -7 1247 6 q 1174 -19 1207 -19 q 1130 -6 1146 -19 q 1111 49 1114 8 l 1015 1026 l 492 36 q 454 -7 475 6 q 400 -19 433 -19 m 922 1356 q 871 1374 890 1356 q 851 1431 851 1393 q 876 1500 851 1469 q 947 1531 900 1531 q 997 1513 978 1531 q 1017 1457 1017 1494 q 994 1386 1017 1417 q 922 1356 971 1356 m 1261 1356 q 1211 1374 1231 1356 q 1192 1431 1192 1393 q 1215 1500 1192 1469 q 1288 1531 1239 1531 q 1337 1513 1317 1531 q 1357 1457 1357 1494 q 1334 1386 1357 1417 q 1261 1356 1311 1356 z "},"Ẁ":{"ha":1685,"x_min":235,"x_max":1890,"o":"m 400 -19 q 357 -6 374 -19 q 338 49 340 8 l 236 1192 q 249 1235 235 1218 q 299 1253 264 1251 q 342 1246 331 1256 q 354 1210 353 1236 l 442 186 l 976 1200 q 1013 1244 996 1235 q 1064 1254 1029 1254 q 1107 1243 1096 1254 q 1121 1204 1118 1232 l 1214 183 l 1750 1206 q 1785 1247 1768 1239 q 1835 1253 1803 1256 q 1881 1231 1871 1251 q 1874 1185 1890 1211 l 1265 36 q 1227 -7 1247 6 q 1174 -19 1207 -19 q 1130 -6 1146 -19 q 1111 49 1114 8 l 1015 1026 l 492 36 q 454 -7 475 6 q 400 -19 433 -19 m 1150 1311 q 1138 1315 1144 1311 q 1124 1325 1131 1319 l 931 1496 q 913 1514 917 1507 q 910 1531 910 1521 q 924 1561 910 1544 q 956 1590 938 1578 q 986 1601 974 1601 q 1001 1597 994 1601 q 1014 1586 1007 1593 l 1192 1386 q 1201 1373 1200 1378 q 1203 1363 1203 1368 q 1183 1331 1203 1350 q 1150 1311 1164 1311 z "},"Ý":{"ha":863,"x_min":217,"x_max":1086,"o":"m 326 -19 q 275 19 265 -19 l 407 538 l 224 1189 q 230 1231 217 1214 q 278 1251 243 1249 q 321 1244 308 1254 q 340 1211 333 1235 l 492 668 l 940 1211 q 978 1245 960 1236 q 1031 1251 996 1254 q 1074 1228 1063 1249 q 1065 1182 1086 1207 l 531 535 l 399 19 q 326 -19 389 -19 m 586 1311 q 553 1331 572 1311 q 535 1364 535 1350 q 536 1374 535 1369 q 546 1388 538 1379 l 751 1586 q 765 1597 760 1593 q 778 1601 769 1601 q 810 1589 792 1601 q 841 1560 828 1576 q 854 1529 854 1543 q 851 1513 854 1519 q 833 1494 849 1506 l 613 1325 q 598 1315 604 1319 q 586 1311 592 1311 z "},"Ŷ":{"ha":863,"x_min":217,"x_max":1086,"o":"m 326 -19 q 275 19 265 -19 l 407 538 l 224 1189 q 230 1231 217 1214 q 278 1251 243 1249 q 321 1244 308 1254 q 340 1211 333 1235 l 492 668 l 940 1211 q 978 1245 960 1236 q 1031 1251 996 1254 q 1074 1228 1063 1249 q 1065 1182 1086 1207 l 531 535 l 399 19 q 326 -19 389 -19 m 451 1311 q 423 1328 436 1311 q 410 1360 410 1344 q 413 1378 410 1371 q 424 1390 417 1385 l 638 1569 q 674 1594 657 1586 q 714 1601 692 1601 q 749 1592 735 1601 q 772 1567 763 1582 l 913 1383 q 921 1367 919 1374 q 922 1353 922 1360 q 904 1324 922 1338 q 874 1311 886 1311 q 851 1318 860 1311 q 831 1333 842 1325 l 693 1461 l 492 1326 q 472 1316 482 1321 q 451 1311 463 1311 z "},"Ÿ":{"ha":863,"x_min":217,"x_max":1086,"o":"m 326 -19 q 275 19 265 -19 l 407 538 l 224 1189 q 230 1231 217 1214 q 278 1251 243 1249 q 321 1244 308 1254 q 340 1211 333 1235 l 492 668 l 940 1211 q 978 1245 960 1236 q 1031 1251 996 1254 q 1074 1228 1063 1249 q 1065 1182 1086 1207 l 531 535 l 399 19 q 326 -19 389 -19 m 494 1356 q 443 1374 463 1356 q 424 1431 424 1393 q 448 1500 424 1469 q 519 1531 472 1531 q 569 1513 550 1531 q 589 1457 589 1494 q 566 1386 589 1417 q 494 1356 543 1356 m 833 1356 q 783 1374 803 1356 q 764 1431 764 1393 q 788 1500 764 1469 q 860 1531 811 1531 q 909 1513 889 1531 q 929 1457 929 1494 q 906 1386 929 1417 q 833 1356 883 1356 z "},"Ỳ":{"ha":863,"x_min":217,"x_max":1086,"o":"m 326 -19 q 275 19 265 -19 l 407 538 l 224 1189 q 230 1231 217 1214 q 278 1251 243 1249 q 321 1244 308 1254 q 340 1211 333 1235 l 492 668 l 940 1211 q 978 1245 960 1236 q 1031 1251 996 1254 q 1074 1228 1063 1249 q 1065 1182 1086 1207 l 531 535 l 399 19 q 326 -19 389 -19 m 722 1311 q 710 1315 717 1311 q 696 1325 703 1319 l 503 1496 q 485 1514 489 1507 q 482 1531 482 1521 q 496 1561 482 1544 q 528 1590 510 1578 q 558 1601 546 1601 q 573 1597 567 1601 q 586 1586 579 1593 l 764 1386 q 774 1373 772 1378 q 775 1363 775 1368 q 756 1331 775 1350 q 722 1311 736 1311 z "},"Ỵ":{"ha":863,"x_min":211,"x_max":1086,"o":"m 326 -19 q 275 19 265 -19 l 407 538 l 224 1189 q 230 1231 217 1214 q 278 1251 243 1249 q 321 1244 308 1254 q 340 1211 333 1235 l 492 668 l 940 1211 q 978 1245 960 1236 q 1031 1251 996 1254 q 1074 1228 1063 1249 q 1065 1182 1086 1207 l 531 535 l 399 19 q 326 -19 389 -19 m 279 -324 q 229 -305 249 -324 q 210 -249 210 -286 q 233 -179 210 -210 q 306 -149 257 -149 q 356 -167 336 -149 q 375 -222 375 -186 q 352 -293 375 -262 q 279 -324 329 -324 z "},"Ỷ":{"ha":863,"x_min":217,"x_max":1086,"o":"m 326 -19 q 275 19 265 -19 l 407 538 l 224 1189 q 230 1231 217 1214 q 278 1251 243 1249 q 321 1244 308 1254 q 340 1211 333 1235 l 492 668 l 940 1211 q 978 1245 960 1236 q 1031 1251 996 1254 q 1074 1228 1063 1249 q 1065 1182 1086 1207 l 531 535 l 399 19 q 326 -19 389 -19 m 701 1640 q 803 1611 767 1640 q 840 1531 840 1582 q 821 1461 840 1492 q 760 1404 801 1431 q 727 1377 736 1389 q 718 1351 718 1365 l 717 1333 q 701 1308 715 1317 q 669 1297 688 1299 q 637 1304 651 1296 q 618 1328 622 1313 l 613 1361 q 620 1419 607 1394 q 663 1463 633 1443 q 696 1491 685 1478 q 707 1515 707 1504 q 698 1533 707 1526 q 671 1539 689 1539 q 635 1534 656 1539 q 594 1519 615 1529 q 539 1546 561 1501 q 558 1604 525 1583 q 627 1631 592 1621 q 701 1640 663 1640 z "},"Ỹ":{"ha":863,"x_min":217,"x_max":1086,"o":"m 326 -19 q 275 19 265 -19 l 407 538 l 224 1189 q 230 1231 217 1214 q 278 1251 243 1249 q 321 1244 308 1254 q 340 1211 333 1235 l 492 668 l 940 1211 q 978 1245 960 1236 q 1031 1251 996 1254 q 1074 1228 1063 1249 q 1065 1182 1086 1207 l 531 535 l 399 19 q 326 -19 389 -19 m 463 1351 q 419 1389 418 1351 q 460 1523 426 1481 q 557 1565 494 1565 q 634 1551 599 1565 q 699 1516 669 1536 q 756 1481 729 1496 q 804 1467 782 1467 q 830 1482 818 1467 q 847 1532 842 1497 q 903 1567 851 1567 q 935 1558 926 1567 q 943 1529 944 1549 q 905 1397 938 1440 q 807 1353 872 1353 q 728 1367 764 1353 q 662 1401 692 1382 q 607 1435 632 1421 q 558 1450 582 1450 q 529 1435 540 1450 q 514 1386 518 1419 q 499 1360 513 1368 q 463 1351 486 1351 z "},"Ź":{"ha":861,"x_min":-62,"x_max":1049,"o":"m -25 0 q -52 13 -42 0 q -62 46 -62 26 q -47 81 -61 65 l 843 1122 l 292 1122 q 269 1135 275 1122 q 268 1178 263 1149 q 288 1219 275 1206 q 317 1233 300 1233 l 1006 1233 q 1040 1206 1032 1233 q 1028 1154 1049 1178 l 138 111 l 749 111 q 772 98 765 111 q 772 56 778 85 q 753 14 765 28 q 725 0 742 0 l -25 0 m 574 1311 q 541 1331 560 1311 q 522 1364 522 1350 q 524 1374 522 1369 q 533 1388 525 1379 l 739 1586 q 752 1597 747 1593 q 765 1601 757 1601 q 797 1589 779 1601 q 828 1560 815 1576 q 842 1529 842 1543 q 839 1513 842 1519 q 821 1494 836 1506 l 600 1325 q 585 1315 592 1319 q 574 1311 579 1311 z "},"Ž":{"ha":861,"x_min":-62,"x_max":1049,"o":"m -25 0 q -52 13 -42 0 q -62 46 -62 26 q -47 81 -61 65 l 843 1122 l 292 1122 q 269 1135 275 1122 q 268 1178 263 1149 q 288 1219 275 1206 q 317 1233 300 1233 l 1006 1233 q 1040 1206 1032 1233 q 1028 1154 1049 1178 l 138 111 l 749 111 q 772 98 765 111 q 772 56 778 85 q 753 14 765 28 q 725 0 742 0 l -25 0 m 893 1601 q 924 1585 910 1601 q 938 1553 938 1568 q 934 1535 938 1542 q 924 1522 931 1528 l 708 1343 q 673 1319 690 1328 q 632 1311 656 1311 q 599 1321 613 1311 q 574 1347 585 1331 l 435 1531 q 426 1547 428 1540 q 425 1558 425 1554 q 445 1588 425 1575 q 478 1601 465 1601 q 499 1594 492 1601 q 514 1579 506 1588 l 653 1453 l 854 1581 q 873 1594 864 1586 q 893 1601 882 1601 z "},"Ż":{"ha":861,"x_min":-62,"x_max":1049,"o":"m -25 0 q -52 13 -42 0 q -62 46 -62 26 q -47 81 -61 65 l 843 1122 l 292 1122 q 269 1135 275 1122 q 268 1178 263 1149 q 288 1219 275 1206 q 317 1233 300 1233 l 1006 1233 q 1040 1206 1032 1233 q 1028 1154 1049 1178 l 138 111 l 749 111 q 772 98 765 111 q 772 56 778 85 q 753 14 765 28 q 725 0 742 0 l -25 0 m 653 1356 q 603 1374 622 1356 q 583 1431 583 1393 q 607 1500 583 1469 q 679 1531 631 1531 q 728 1513 708 1531 q 747 1457 747 1494 q 726 1386 749 1417 q 653 1356 703 1356 z "},"á":{"ha":865,"x_min":60,"x_max":829,"o":"m 243 -24 q 146 5 188 -24 q 82 88 104 33 q 60 215 60 142 q 77 351 60 281 q 130 488 94 422 q 217 606 165 553 q 335 690 268 658 q 485 721 401 721 q 572 709 528 721 q 657 676 615 697 l 657 682 q 678 709 664 703 q 717 715 692 715 q 770 703 758 715 q 775 665 782 690 l 643 147 q 636 111 636 125 q 642 90 636 97 q 660 83 649 83 q 689 92 675 83 q 717 117 703 101 q 747 154 732 133 q 769 169 757 167 q 799 161 782 172 q 824 134 819 149 q 821 106 829 119 q 783 51 808 81 q 721 -1 757 21 q 638 -22 685 -22 q 568 -5 593 -22 q 533 40 543 13 q 525 101 524 68 q 532 165 526 133 q 534 179 533 172 q 535 194 535 186 q 436 71 486 119 q 338 -1 386 22 q 243 -24 289 -24 m 185 232 q 195 155 185 188 q 227 105 206 122 q 278 88 249 88 q 381 132 326 88 q 493 262 436 176 q 604 468 550 347 l 632 578 q 551 604 589 597 q 479 611 513 611 q 375 588 422 611 q 292 524 328 564 q 233 433 257 483 q 197 331 210 383 q 185 232 185 279 m 494 854 q 464 868 482 854 q 446 897 446 882 q 449 913 446 906 q 458 929 451 919 l 624 1144 q 644 1165 635 1160 q 665 1171 654 1171 q 697 1161 679 1171 q 727 1136 714 1151 q 740 1106 740 1121 q 735 1088 740 1094 q 722 1072 731 1081 l 532 874 q 494 854 513 854 z "},"ă":{"ha":865,"x_min":60,"x_max":844,"o":"m 243 -24 q 146 5 188 -24 q 82 88 104 33 q 60 215 60 142 q 77 351 60 281 q 130 488 94 422 q 217 606 165 553 q 335 690 268 658 q 485 721 401 721 q 572 709 528 721 q 657 676 615 697 l 657 682 q 678 709 664 703 q 717 715 692 715 q 770 703 758 715 q 775 665 782 690 l 643 147 q 636 111 636 125 q 642 90 636 97 q 660 83 649 83 q 689 92 675 83 q 717 117 703 101 q 747 154 732 133 q 769 169 757 167 q 799 161 782 172 q 824 134 819 149 q 821 106 829 119 q 783 51 808 81 q 721 -1 757 21 q 638 -22 685 -22 q 568 -5 593 -22 q 533 40 543 13 q 525 101 524 68 q 532 165 526 133 q 534 179 533 172 q 535 194 535 186 q 436 71 486 119 q 338 -1 386 22 q 243 -24 289 -24 m 185 232 q 195 155 185 188 q 227 105 206 122 q 278 88 249 88 q 381 132 326 88 q 493 262 436 176 q 604 468 550 347 l 632 578 q 551 604 589 597 q 479 611 513 611 q 375 588 422 611 q 292 524 328 564 q 233 433 257 483 q 197 331 210 383 q 185 232 185 279 m 546 858 q 387 931 439 858 q 351 1136 335 1003 q 367 1165 354 1156 q 401 1175 379 1175 q 438 1164 425 1175 q 450 1136 450 1153 q 478 1022 449 1063 q 563 981 508 981 q 669 1026 624 981 q 738 1131 715 1071 q 758 1164 747 1156 q 792 1172 769 1172 q 831 1160 818 1172 q 839 1128 844 1147 q 772 973 813 1032 q 676 886 732 914 q 546 858 621 858 z "},"ǎ":{"ha":865,"x_min":60,"x_max":836,"o":"m 243 -24 q 146 5 188 -24 q 82 88 104 33 q 60 215 60 142 q 77 351 60 281 q 130 488 94 422 q 217 606 165 553 q 335 690 268 658 q 485 721 401 721 q 572 709 528 721 q 657 676 615 697 l 657 682 q 678 709 664 703 q 717 715 692 715 q 770 703 758 715 q 775 665 782 690 l 643 147 q 636 111 636 125 q 642 90 636 97 q 660 83 649 83 q 689 92 675 83 q 717 117 703 101 q 747 154 732 133 q 769 169 757 167 q 799 161 782 172 q 824 134 819 149 q 821 106 829 119 q 783 51 808 81 q 721 -1 757 21 q 638 -22 685 -22 q 568 -5 593 -22 q 533 40 543 13 q 525 101 524 68 q 532 165 526 133 q 534 179 533 172 q 535 194 535 186 q 436 71 486 119 q 338 -1 386 22 q 243 -24 289 -24 m 185 232 q 195 155 185 188 q 227 105 206 122 q 278 88 249 88 q 381 132 326 88 q 493 262 436 176 q 604 468 550 347 l 632 578 q 551 604 589 597 q 479 611 513 611 q 375 588 422 611 q 292 524 328 564 q 233 433 257 483 q 197 331 210 383 q 185 232 185 279 m 792 1176 q 822 1161 807 1176 q 836 1129 836 1146 q 832 1111 836 1118 q 822 1097 828 1104 l 611 888 q 577 865 594 872 q 535 858 560 858 q 501 867 515 858 q 476 892 486 876 l 349 1106 q 342 1124 343 1117 q 340 1135 340 1131 q 360 1164 340 1151 q 393 1176 381 1176 q 415 1170 407 1176 q 429 1154 422 1164 l 558 997 l 753 1157 q 772 1170 763 1164 q 792 1176 781 1176 z "},"â":{"ha":865,"x_min":60,"x_max":829,"o":"m 243 -24 q 146 5 188 -24 q 82 88 104 33 q 60 215 60 142 q 77 351 60 281 q 130 488 94 422 q 217 606 165 553 q 335 690 268 658 q 485 721 401 721 q 572 709 528 721 q 657 676 615 697 l 657 682 q 678 709 664 703 q 717 715 692 715 q 770 703 758 715 q 775 665 782 690 l 643 147 q 636 111 636 125 q 642 90 636 97 q 660 83 649 83 q 689 92 675 83 q 717 117 703 101 q 747 154 732 133 q 769 169 757 167 q 799 161 782 172 q 824 134 819 149 q 821 106 829 119 q 783 51 808 81 q 721 -1 757 21 q 638 -22 685 -22 q 568 -5 593 -22 q 533 40 543 13 q 525 101 524 68 q 532 165 526 133 q 534 179 533 172 q 535 194 535 186 q 436 71 486 119 q 338 -1 386 22 q 243 -24 289 -24 m 185 232 q 195 155 185 188 q 227 105 206 122 q 278 88 249 88 q 381 132 326 88 q 493 262 436 176 q 604 468 550 347 l 632 578 q 551 604 589 597 q 479 611 513 611 q 375 588 422 611 q 292 524 328 564 q 233 433 257 483 q 197 331 210 383 q 185 232 185 279 m 347 847 q 316 863 331 847 q 301 894 301 878 q 306 913 301 906 q 317 926 311 919 l 526 1136 q 561 1160 543 1153 q 603 1167 579 1167 q 638 1158 622 1167 q 661 1132 653 1149 l 790 918 q 797 902 796 908 q 799 889 799 896 q 778 860 799 874 q 746 847 758 847 q 724 853 732 847 q 710 868 717 860 l 581 1026 l 385 868 q 367 854 376 861 q 347 847 358 847 z "},"ä":{"ha":865,"x_min":60,"x_max":829,"o":"m 243 -24 q 146 5 188 -24 q 82 88 104 33 q 60 215 60 142 q 77 351 60 281 q 130 488 94 422 q 217 606 165 553 q 335 690 268 658 q 485 721 401 721 q 572 709 528 721 q 657 676 615 697 l 657 682 q 678 709 664 703 q 717 715 692 715 q 770 703 758 715 q 775 665 782 690 l 643 147 q 636 111 636 125 q 642 90 636 97 q 660 83 649 83 q 689 92 675 83 q 717 117 703 101 q 747 154 732 133 q 769 169 757 167 q 799 161 782 172 q 824 134 819 149 q 821 106 829 119 q 783 51 808 81 q 721 -1 757 21 q 638 -22 685 -22 q 568 -5 593 -22 q 533 40 543 13 q 525 101 524 68 q 532 165 526 133 q 534 179 533 172 q 535 194 535 186 q 436 71 486 119 q 338 -1 386 22 q 243 -24 289 -24 m 185 232 q 195 155 185 188 q 227 105 206 122 q 278 88 249 88 q 381 132 326 88 q 493 262 436 176 q 604 468 550 347 l 632 578 q 551 604 589 597 q 479 611 513 611 q 375 588 422 611 q 292 524 328 564 q 233 433 257 483 q 197 331 210 383 q 185 232 185 279 m 397 929 q 347 948 367 929 q 328 1003 328 967 q 351 1074 328 1043 q 422 1104 374 1104 q 474 1085 454 1104 q 493 1029 493 1067 q 470 960 493 990 q 397 929 447 929 m 724 929 q 674 948 693 929 q 654 1003 654 967 q 677 1074 654 1043 q 749 1104 700 1104 q 799 1085 779 1104 q 818 1029 818 1067 q 797 960 819 990 q 724 929 774 929 z "},"ǽ":{"ha":1242,"x_min":58,"x_max":1207,"o":"m 58 211 q 78 347 58 276 q 135 484 97 418 q 229 604 172 550 q 360 690 286 658 q 526 721 435 721 q 633 711 582 721 q 735 682 683 701 q 849 631 788 663 q 747 460 788 556 q 707 260 707 365 q 724 167 707 207 q 774 106 742 126 q 854 85 806 85 q 934 101 899 85 q 1001 147 969 118 q 1061 208 1032 175 q 1099 224 1079 228 q 1135 204 1119 219 q 1155 172 1151 189 q 1140 136 1158 156 q 1043 40 1093 75 q 942 -11 993 4 q 839 -26 892 -26 q 698 10 756 -26 q 612 109 640 46 q 583 251 583 172 q 605 401 583 328 q 658 536 626 474 q 719 644 690 599 l 740 554 q 642 595 696 579 q 518 611 589 611 q 376 574 439 611 q 271 476 314 536 q 206 347 228 415 q 185 214 185 278 q 194 145 185 174 q 224 102 204 117 q 274 88 244 88 q 360 119 314 88 q 454 210 406 151 q 553 353 503 269 q 657 539 604 436 l 750 522 q 605 257 672 363 q 478 90 538 151 q 363 2 418 28 q 253 -24 308 -24 q 108 41 157 -24 q 58 211 58 106 m 1207 554 q 1175 451 1207 497 q 1088 369 1143 406 q 962 307 1033 333 q 810 263 890 281 q 647 238 729 246 l 661 335 q 774 353 715 342 q 888 382 833 365 q 987 422 943 399 q 1056 475 1031 446 q 1081 540 1081 504 q 1056 594 1081 578 q 985 611 1031 611 q 869 597 924 611 q 761 546 814 582 l 743 657 q 859 704 797 688 q 1003 721 921 721 q 1153 676 1100 721 q 1207 554 1207 632 m 724 854 q 693 868 711 854 q 675 897 675 882 q 678 913 675 906 q 688 929 681 919 l 853 1144 q 874 1165 864 1160 q 894 1171 883 1171 q 926 1161 908 1171 q 956 1136 943 1151 q 969 1106 969 1121 q 965 1088 969 1094 q 951 1072 960 1081 l 761 874 q 724 854 742 854 z "},"à":{"ha":865,"x_min":60,"x_max":829,"o":"m 243 -24 q 146 5 188 -24 q 82 88 104 33 q 60 215 60 142 q 77 351 60 281 q 130 488 94 422 q 217 606 165 553 q 335 690 268 658 q 485 721 401 721 q 572 709 528 721 q 657 676 615 697 l 657 682 q 678 709 664 703 q 717 715 692 715 q 770 703 758 715 q 775 665 782 690 l 643 147 q 636 111 636 125 q 642 90 636 97 q 660 83 649 83 q 689 92 675 83 q 717 117 703 101 q 747 154 732 133 q 769 169 757 167 q 799 161 782 172 q 824 134 819 149 q 821 106 829 119 q 783 51 808 81 q 721 -1 757 21 q 638 -22 685 -22 q 568 -5 593 -22 q 533 40 543 13 q 525 101 524 68 q 532 165 526 133 q 534 179 533 172 q 535 194 535 186 q 436 71 486 119 q 338 -1 386 22 q 243 -24 289 -24 m 185 232 q 195 155 185 188 q 227 105 206 122 q 278 88 249 88 q 381 132 326 88 q 493 262 436 176 q 604 468 550 347 l 632 578 q 551 604 589 597 q 479 611 513 611 q 375 588 422 611 q 292 524 328 564 q 233 433 257 483 q 197 331 210 383 q 185 232 185 279 m 575 861 q 557 867 567 861 q 538 890 547 874 l 411 1092 q 403 1108 407 1101 q 400 1124 400 1115 q 413 1151 400 1138 q 444 1174 425 1165 q 481 1182 463 1182 q 525 1143 510 1182 l 619 928 q 625 915 624 921 q 626 904 626 910 q 609 873 626 885 q 575 861 592 861 z "},"ā":{"ha":865,"x_min":60,"x_max":829,"o":"m 243 -24 q 146 5 188 -24 q 82 88 104 33 q 60 215 60 142 q 77 351 60 281 q 130 488 94 422 q 217 606 165 553 q 335 690 268 658 q 485 721 401 721 q 572 709 528 721 q 657 676 615 697 l 657 682 q 678 709 664 703 q 717 715 692 715 q 770 703 758 715 q 775 665 782 690 l 643 147 q 636 111 636 125 q 642 90 636 97 q 660 83 649 83 q 689 92 675 83 q 717 117 703 101 q 747 154 732 133 q 769 169 757 167 q 799 161 782 172 q 824 134 819 149 q 821 106 829 119 q 783 51 808 81 q 721 -1 757 21 q 638 -22 685 -22 q 568 -5 593 -22 q 533 40 543 13 q 525 101 524 68 q 532 165 526 133 q 534 179 533 172 q 535 194 535 186 q 436 71 486 119 q 338 -1 386 22 q 243 -24 289 -24 m 185 232 q 195 155 185 188 q 227 105 206 122 q 278 88 249 88 q 381 132 326 88 q 493 262 436 176 q 604 468 550 347 l 632 578 q 551 604 589 597 q 479 611 513 611 q 375 588 422 611 q 292 524 328 564 q 233 433 257 483 q 197 331 210 383 q 185 232 185 279 m 382 953 q 349 969 356 953 q 349 1011 343 986 q 365 1056 353 1040 q 400 1071 376 1071 l 763 1071 q 794 1054 789 1071 q 796 1011 800 1038 q 779 968 790 983 q 743 953 768 953 l 382 953 z "},"ą":{"ha":865,"x_min":60,"x_max":829,"o":"m 243 -24 q 146 5 188 -24 q 82 88 104 33 q 60 215 60 142 q 77 351 60 281 q 130 488 94 422 q 217 606 165 553 q 335 690 268 658 q 485 721 401 721 q 572 709 528 721 q 657 676 615 697 l 657 682 q 678 709 664 703 q 717 715 692 715 q 770 703 758 715 q 775 665 782 690 l 643 147 q 636 111 636 125 q 642 90 636 97 q 660 83 649 83 q 689 92 675 83 q 717 117 703 101 q 747 154 732 133 q 769 169 757 167 q 799 161 782 172 q 824 134 819 149 q 821 106 829 119 q 783 51 808 81 q 721 -1 757 21 q 638 -22 685 -22 q 568 -5 593 -22 q 533 40 543 13 q 525 101 524 68 q 532 165 526 133 q 534 179 533 172 q 535 194 535 186 q 436 71 486 119 q 338 -1 386 22 q 243 -24 289 -24 m 185 232 q 195 155 185 188 q 227 105 206 122 q 278 88 249 88 q 381 132 326 88 q 493 262 436 176 q 604 468 550 347 l 632 578 q 551 604 589 597 q 479 611 513 611 q 375 588 422 611 q 292 524 328 564 q 233 433 257 483 q 197 331 210 383 q 185 232 185 279 m 521 -340 q 451 -317 476 -340 q 425 -250 425 -293 q 443 -180 425 -215 q 494 -109 461 -144 q 574 -36 528 -74 q 678 43 621 1 l 764 42 l 764 33 q 681 -37 719 -3 q 613 -101 642 -71 q 567 -158 583 -132 q 550 -204 550 -183 q 558 -227 550 -219 q 579 -235 565 -235 q 628 -218 604 -235 q 683 -172 651 -201 q 706 -162 692 -164 q 736 -174 721 -160 q 751 -199 747 -185 q 747 -226 756 -212 q 685 -285 724 -260 q 603 -326 646 -311 q 521 -340 560 -340 z "},"å":{"ha":865,"x_min":60,"x_max":829,"o":"m 243 -24 q 146 5 188 -24 q 82 88 104 33 q 60 215 60 142 q 77 351 60 281 q 130 488 94 422 q 217 606 165 553 q 335 690 268 658 q 485 721 401 721 q 572 709 528 721 q 657 676 615 697 l 657 682 q 678 709 664 703 q 717 715 692 715 q 770 703 758 715 q 775 665 782 690 l 643 147 q 636 111 636 125 q 642 90 636 97 q 660 83 649 83 q 689 92 675 83 q 717 117 703 101 q 747 154 732 133 q 769 169 757 167 q 799 161 782 172 q 824 134 819 149 q 821 106 829 119 q 783 51 808 81 q 721 -1 757 21 q 638 -22 685 -22 q 568 -5 593 -22 q 533 40 543 13 q 525 101 524 68 q 532 165 526 133 q 534 179 533 172 q 535 194 535 186 q 436 71 486 119 q 338 -1 386 22 q 243 -24 289 -24 m 185 232 q 195 155 185 188 q 227 105 206 122 q 278 88 249 88 q 381 132 326 88 q 493 262 436 176 q 604 468 550 347 l 632 578 q 551 604 589 597 q 479 611 513 611 q 375 588 422 611 q 292 524 328 564 q 233 433 257 483 q 197 331 210 383 q 185 232 185 279 m 550 835 q 428 878 472 835 q 383 999 383 921 q 411 1099 383 1054 q 486 1169 439 1143 q 592 1194 533 1194 q 717 1153 672 1194 q 763 1033 763 1111 q 735 933 763 978 q 660 861 708 888 q 550 835 611 835 m 556 918 q 610 934 586 918 q 648 976 633 950 q 663 1032 663 1001 q 644 1092 663 1072 q 586 1111 625 1111 q 535 1096 558 1111 q 499 1055 513 1081 q 485 999 485 1029 q 503 939 485 960 q 556 918 521 918 z "},"ã":{"ha":865,"x_min":60,"x_max":835,"o":"m 243 -24 q 146 5 188 -24 q 82 88 104 33 q 60 215 60 142 q 77 351 60 281 q 130 488 94 422 q 217 606 165 553 q 335 690 268 658 q 485 721 401 721 q 572 709 528 721 q 657 676 615 697 l 657 682 q 678 709 664 703 q 717 715 692 715 q 770 703 758 715 q 775 665 782 690 l 643 147 q 636 111 636 125 q 642 90 636 97 q 660 83 649 83 q 689 92 675 83 q 717 117 703 101 q 747 154 732 133 q 769 169 757 167 q 799 161 782 172 q 824 134 819 149 q 821 106 829 119 q 783 51 808 81 q 721 -1 757 21 q 638 -22 685 -22 q 568 -5 593 -22 q 533 40 543 13 q 525 101 524 68 q 532 165 526 133 q 534 179 533 172 q 535 194 535 186 q 436 71 486 119 q 338 -1 386 22 q 243 -24 289 -24 m 185 232 q 195 155 185 188 q 227 105 206 122 q 278 88 249 88 q 381 132 326 88 q 493 262 436 176 q 604 468 550 347 l 632 578 q 551 604 589 597 q 479 611 513 611 q 375 588 422 611 q 292 524 328 564 q 233 433 257 483 q 197 331 210 383 q 185 232 185 279 m 347 889 q 304 928 303 889 q 346 1067 310 1021 q 443 1113 382 1113 q 521 1097 485 1113 q 588 1062 557 1082 q 644 1026 618 1042 q 693 1011 669 1011 q 719 1028 708 1011 q 736 1079 731 1044 q 793 1115 742 1115 q 826 1106 817 1115 q 833 1078 835 1097 q 794 939 828 988 q 694 890 761 890 q 615 906 651 890 q 549 941 579 921 q 494 976 519 961 q 444 992 468 992 q 415 975 426 992 q 400 924 404 958 q 384 898 397 907 q 347 889 371 889 z "},"ắ":{"ha":865,"x_min":60,"x_max":847,"o":"m 243 -24 q 146 5 188 -24 q 82 88 104 33 q 60 215 60 142 q 77 351 60 281 q 130 488 94 422 q 217 606 165 553 q 335 690 268 658 q 485 721 401 721 q 572 709 528 721 q 657 676 615 697 l 657 682 q 678 709 664 703 q 717 715 692 715 q 770 703 758 715 q 775 665 782 690 l 643 147 q 636 111 636 125 q 642 90 636 97 q 660 83 649 83 q 689 92 675 83 q 717 117 703 101 q 747 154 732 133 q 769 169 757 167 q 799 161 782 172 q 824 134 819 149 q 821 106 829 119 q 783 51 808 81 q 721 -1 757 21 q 638 -22 685 -22 q 568 -5 593 -22 q 533 40 543 13 q 525 101 524 68 q 532 165 526 133 q 534 179 533 172 q 535 194 535 186 q 436 71 486 119 q 338 -1 386 22 q 243 -24 289 -24 m 185 232 q 195 155 185 188 q 227 105 206 122 q 278 88 249 88 q 381 132 326 88 q 493 262 436 176 q 604 468 550 347 l 632 578 q 551 604 589 597 q 479 611 513 611 q 375 588 422 611 q 292 524 328 564 q 233 433 257 483 q 197 331 210 383 q 185 232 185 279 m 547 858 q 388 931 440 858 q 353 1136 336 1003 q 368 1165 356 1156 q 404 1175 381 1175 q 440 1164 428 1175 q 453 1136 453 1153 q 481 1022 451 1063 q 564 981 510 981 q 672 1026 626 981 q 739 1131 717 1071 q 760 1164 749 1156 q 793 1172 771 1172 q 834 1160 821 1172 q 840 1128 847 1147 q 774 973 814 1032 q 678 886 735 914 q 547 858 622 858 m 572 1161 q 542 1175 560 1161 q 524 1204 524 1189 q 526 1220 524 1213 q 536 1236 529 1228 l 701 1451 q 722 1472 713 1467 q 743 1478 732 1478 q 774 1468 757 1478 q 805 1443 792 1458 q 818 1413 818 1428 q 813 1394 818 1401 q 800 1381 808 1388 l 610 1182 q 572 1161 590 1161 z "},"ặ":{"ha":865,"x_min":60,"x_max":844,"o":"m 243 -24 q 146 5 188 -24 q 82 88 104 33 q 60 215 60 142 q 77 351 60 281 q 130 488 94 422 q 217 606 165 553 q 335 690 268 658 q 485 721 401 721 q 572 709 528 721 q 657 676 615 697 l 657 682 q 678 709 664 703 q 717 715 692 715 q 770 703 758 715 q 775 665 782 690 l 643 147 q 636 111 636 125 q 642 90 636 97 q 660 83 649 83 q 689 92 675 83 q 717 117 703 101 q 747 154 732 133 q 769 169 757 167 q 799 161 782 172 q 824 134 819 149 q 821 106 829 119 q 783 51 808 81 q 721 -1 757 21 q 638 -22 685 -22 q 568 -5 593 -22 q 533 40 543 13 q 525 101 524 68 q 532 165 526 133 q 534 179 533 172 q 535 194 535 186 q 436 71 486 119 q 338 -1 386 22 q 243 -24 289 -24 m 185 232 q 195 155 185 188 q 227 105 206 122 q 278 88 249 88 q 381 132 326 88 q 493 262 436 176 q 604 468 550 347 l 632 578 q 551 604 589 597 q 479 611 513 611 q 375 588 422 611 q 292 524 328 564 q 233 433 257 483 q 197 331 210 383 q 185 232 185 279 m 263 -324 q 213 -305 232 -324 q 193 -249 193 -286 q 217 -179 193 -210 q 289 -149 240 -149 q 339 -167 319 -149 q 358 -222 358 -186 q 335 -293 358 -262 q 263 -324 313 -324 m 546 858 q 387 931 439 858 q 351 1136 335 1003 q 367 1165 354 1156 q 401 1175 379 1175 q 438 1164 425 1175 q 450 1136 450 1153 q 478 1022 449 1063 q 563 981 508 981 q 669 1026 624 981 q 738 1131 715 1071 q 758 1164 747 1156 q 792 1172 769 1172 q 831 1160 818 1172 q 839 1128 844 1147 q 772 973 813 1032 q 676 886 732 914 q 546 858 621 858 z "},"ằ":{"ha":865,"x_min":60,"x_max":847,"o":"m 243 -24 q 146 5 188 -24 q 82 88 104 33 q 60 215 60 142 q 77 351 60 281 q 130 488 94 422 q 217 606 165 553 q 335 690 268 658 q 485 721 401 721 q 572 709 528 721 q 657 676 615 697 l 657 682 q 678 709 664 703 q 717 715 692 715 q 770 703 758 715 q 775 665 782 690 l 643 147 q 636 111 636 125 q 642 90 636 97 q 660 83 649 83 q 689 92 675 83 q 717 117 703 101 q 747 154 732 133 q 769 169 757 167 q 799 161 782 172 q 824 134 819 149 q 821 106 829 119 q 783 51 808 81 q 721 -1 757 21 q 638 -22 685 -22 q 568 -5 593 -22 q 533 40 543 13 q 525 101 524 68 q 532 165 526 133 q 534 179 533 172 q 535 194 535 186 q 436 71 486 119 q 338 -1 386 22 q 243 -24 289 -24 m 185 232 q 195 155 185 188 q 227 105 206 122 q 278 88 249 88 q 381 132 326 88 q 493 262 436 176 q 604 468 550 347 l 632 578 q 551 604 589 597 q 479 611 513 611 q 375 588 422 611 q 292 524 328 564 q 233 433 257 483 q 197 331 210 383 q 185 232 185 279 m 547 858 q 388 931 440 858 q 353 1136 336 1003 q 368 1165 356 1156 q 404 1175 381 1175 q 440 1164 428 1175 q 453 1136 453 1153 q 481 1022 451 1063 q 564 981 510 981 q 672 1026 626 981 q 739 1131 717 1071 q 760 1164 749 1156 q 793 1172 771 1172 q 834 1160 821 1172 q 840 1128 847 1147 q 774 973 814 1032 q 678 886 735 914 q 547 858 622 858 m 636 1163 q 618 1169 628 1163 q 597 1192 608 1175 l 472 1394 q 463 1410 467 1403 q 460 1425 460 1417 q 473 1453 460 1440 q 505 1476 486 1467 q 540 1485 524 1485 q 586 1444 569 1485 l 681 1229 q 685 1217 683 1222 q 686 1206 686 1211 q 669 1174 686 1186 q 636 1163 653 1163 z "},"ẳ":{"ha":865,"x_min":60,"x_max":847,"o":"m 243 -24 q 146 5 188 -24 q 82 88 104 33 q 60 215 60 142 q 77 351 60 281 q 130 488 94 422 q 217 606 165 553 q 335 690 268 658 q 485 721 401 721 q 572 709 528 721 q 657 676 615 697 l 657 682 q 678 709 664 703 q 717 715 692 715 q 770 703 758 715 q 775 665 782 690 l 643 147 q 636 111 636 125 q 642 90 636 97 q 660 83 649 83 q 689 92 675 83 q 717 117 703 101 q 747 154 732 133 q 769 169 757 167 q 799 161 782 172 q 824 134 819 149 q 821 106 829 119 q 783 51 808 81 q 721 -1 757 21 q 638 -22 685 -22 q 568 -5 593 -22 q 533 40 543 13 q 525 101 524 68 q 532 165 526 133 q 534 179 533 172 q 535 194 535 186 q 436 71 486 119 q 338 -1 386 22 q 243 -24 289 -24 m 185 232 q 195 155 185 188 q 227 105 206 122 q 278 88 249 88 q 381 132 326 88 q 493 262 436 176 q 604 468 550 347 l 632 578 q 551 604 589 597 q 479 611 513 611 q 375 588 422 611 q 292 524 328 564 q 233 433 257 483 q 197 331 210 383 q 185 232 185 279 m 549 858 q 390 931 442 858 q 354 1136 338 1003 q 369 1165 357 1156 q 404 1175 382 1175 q 440 1164 428 1175 q 453 1136 453 1153 q 481 1022 451 1063 q 565 981 511 981 q 672 1026 626 981 q 740 1131 717 1071 q 761 1164 750 1156 q 794 1172 772 1172 q 834 1160 821 1172 q 840 1128 847 1147 q 775 973 815 1032 q 679 886 735 914 q 549 858 624 858 m 635 1456 q 736 1426 699 1456 q 774 1346 774 1397 q 753 1278 774 1308 q 693 1219 733 1247 q 660 1191 669 1203 q 650 1165 651 1179 l 649 1140 q 633 1115 647 1124 q 601 1105 619 1106 q 567 1111 582 1104 q 550 1136 553 1118 l 544 1175 q 554 1234 542 1210 q 594 1278 567 1258 q 628 1308 618 1294 q 639 1331 639 1321 q 630 1349 639 1343 q 604 1356 621 1356 q 568 1350 588 1356 q 528 1335 549 1344 q 496 1333 510 1326 q 472 1361 482 1340 q 492 1419 457 1399 q 558 1447 524 1438 q 635 1456 593 1456 z "},"ẵ":{"ha":865,"x_min":60,"x_max":900,"o":"m 243 -24 q 146 5 188 -24 q 82 88 104 33 q 60 215 60 142 q 77 351 60 281 q 130 488 94 422 q 217 606 165 553 q 335 690 268 658 q 485 721 401 721 q 572 709 528 721 q 657 676 615 697 l 657 682 q 678 709 664 703 q 717 715 692 715 q 770 703 758 715 q 775 665 782 690 l 643 147 q 636 111 636 125 q 642 90 636 97 q 660 83 649 83 q 689 92 675 83 q 717 117 703 101 q 747 154 732 133 q 769 169 757 167 q 799 161 782 172 q 824 134 819 149 q 821 106 829 119 q 783 51 808 81 q 721 -1 757 21 q 638 -22 685 -22 q 568 -5 593 -22 q 533 40 543 13 q 525 101 524 68 q 532 165 526 133 q 534 179 533 172 q 535 194 535 186 q 436 71 486 119 q 338 -1 386 22 q 243 -24 289 -24 m 185 232 q 195 155 185 188 q 227 105 206 122 q 278 88 249 88 q 381 132 326 88 q 493 262 436 176 q 604 468 550 347 l 632 578 q 551 604 589 597 q 479 611 513 611 q 375 588 422 611 q 292 524 328 564 q 233 433 257 483 q 197 331 210 383 q 185 232 185 279 m 546 858 q 387 931 439 858 q 351 1136 335 1003 q 367 1165 354 1156 q 401 1175 379 1175 q 438 1164 425 1175 q 450 1136 450 1153 q 478 1022 449 1063 q 563 981 508 981 q 669 1026 624 981 q 738 1131 715 1071 q 758 1164 747 1156 q 792 1172 769 1172 q 831 1160 818 1172 q 839 1128 844 1147 q 772 973 813 1032 q 676 886 732 914 q 546 858 621 858 m 413 1219 q 371 1258 368 1219 q 412 1397 376 1351 q 508 1443 447 1443 q 587 1428 551 1443 q 653 1392 622 1413 q 710 1357 683 1372 q 760 1342 736 1342 q 785 1358 774 1342 q 801 1410 797 1375 q 858 1446 808 1446 q 891 1437 882 1446 q 899 1408 900 1428 q 860 1269 893 1318 q 760 1221 828 1221 q 681 1236 717 1221 q 615 1272 646 1251 q 559 1307 585 1292 q 510 1322 533 1322 q 482 1306 493 1322 q 467 1254 471 1289 q 450 1228 464 1238 q 413 1219 436 1219 z "},"ấ":{"ha":865,"x_min":60,"x_max":1035,"o":"m 243 -24 q 146 5 188 -24 q 82 88 104 33 q 60 215 60 142 q 77 351 60 281 q 130 488 94 422 q 217 606 165 553 q 335 690 268 658 q 485 721 401 721 q 572 709 528 721 q 657 676 615 697 l 657 682 q 678 709 664 703 q 717 715 692 715 q 770 703 758 715 q 775 665 782 690 l 643 147 q 636 111 636 125 q 642 90 636 97 q 660 83 649 83 q 689 92 675 83 q 717 117 703 101 q 747 154 732 133 q 769 169 757 167 q 799 161 782 172 q 824 134 819 149 q 821 106 829 119 q 783 51 808 81 q 721 -1 757 21 q 638 -22 685 -22 q 568 -5 593 -22 q 533 40 543 13 q 525 101 524 68 q 532 165 526 133 q 534 179 533 172 q 535 194 535 186 q 436 71 486 119 q 338 -1 386 22 q 243 -24 289 -24 m 185 232 q 195 155 185 188 q 227 105 206 122 q 278 88 249 88 q 381 132 326 88 q 493 262 436 176 q 604 468 550 347 l 632 578 q 551 604 589 597 q 479 611 513 611 q 375 588 422 611 q 292 524 328 564 q 233 433 257 483 q 197 331 210 383 q 185 232 185 279 m 347 847 q 316 863 331 847 q 301 894 301 878 q 306 913 301 906 q 317 926 311 919 l 526 1136 q 561 1160 543 1153 q 603 1167 579 1167 q 638 1158 622 1167 q 661 1132 653 1149 l 790 918 q 797 902 796 908 q 799 889 799 896 q 778 860 799 874 q 746 847 758 847 q 724 853 732 847 q 710 868 717 860 l 581 1026 l 385 868 q 367 854 376 861 q 347 847 358 847 m 789 1063 q 758 1076 776 1063 q 740 1106 740 1090 q 743 1121 740 1114 q 753 1138 746 1128 l 918 1353 q 939 1374 929 1368 q 960 1379 949 1379 q 991 1369 974 1379 q 1022 1344 1008 1360 q 1035 1314 1035 1329 q 1030 1296 1035 1303 q 1017 1281 1025 1289 l 826 1082 q 789 1063 807 1063 z "},"ậ":{"ha":865,"x_min":60,"x_max":829,"o":"m 243 -24 q 146 5 188 -24 q 82 88 104 33 q 60 215 60 142 q 77 351 60 281 q 130 488 94 422 q 217 606 165 553 q 335 690 268 658 q 485 721 401 721 q 572 709 528 721 q 657 676 615 697 l 657 682 q 678 709 664 703 q 717 715 692 715 q 770 703 758 715 q 775 665 782 690 l 643 147 q 636 111 636 125 q 642 90 636 97 q 660 83 649 83 q 689 92 675 83 q 717 117 703 101 q 747 154 732 133 q 769 169 757 167 q 799 161 782 172 q 824 134 819 149 q 821 106 829 119 q 783 51 808 81 q 721 -1 757 21 q 638 -22 685 -22 q 568 -5 593 -22 q 533 40 543 13 q 525 101 524 68 q 532 165 526 133 q 534 179 533 172 q 535 194 535 186 q 436 71 486 119 q 338 -1 386 22 q 243 -24 289 -24 m 185 232 q 195 155 185 188 q 227 105 206 122 q 278 88 249 88 q 381 132 326 88 q 493 262 436 176 q 604 468 550 347 l 632 578 q 551 604 589 597 q 479 611 513 611 q 375 588 422 611 q 292 524 328 564 q 233 433 257 483 q 197 331 210 383 q 185 232 185 279 m 263 -324 q 213 -305 232 -324 q 193 -249 193 -286 q 217 -179 193 -210 q 289 -149 240 -149 q 339 -167 319 -149 q 358 -222 358 -186 q 335 -293 358 -262 q 263 -324 313 -324 m 347 847 q 316 863 331 847 q 301 894 301 878 q 306 913 301 906 q 317 926 311 919 l 526 1136 q 561 1160 543 1153 q 603 1167 579 1167 q 638 1158 622 1167 q 661 1132 653 1149 l 790 918 q 797 902 796 908 q 799 889 799 896 q 778 860 799 874 q 746 847 758 847 q 724 853 732 847 q 710 868 717 860 l 581 1026 l 385 868 q 367 854 376 861 q 347 847 358 847 z "},"ầ":{"ha":865,"x_min":60,"x_max":882,"o":"m 243 -24 q 146 5 188 -24 q 82 88 104 33 q 60 215 60 142 q 77 351 60 281 q 130 488 94 422 q 217 606 165 553 q 335 690 268 658 q 485 721 401 721 q 572 709 528 721 q 657 676 615 697 l 657 682 q 678 709 664 703 q 717 715 692 715 q 770 703 758 715 q 775 665 782 690 l 643 147 q 636 111 636 125 q 642 90 636 97 q 660 83 649 83 q 689 92 675 83 q 717 117 703 101 q 747 154 732 133 q 769 169 757 167 q 799 161 782 172 q 824 134 819 149 q 821 106 829 119 q 783 51 808 81 q 721 -1 757 21 q 638 -22 685 -22 q 568 -5 593 -22 q 533 40 543 13 q 525 101 524 68 q 532 165 526 133 q 534 179 533 172 q 535 194 535 186 q 436 71 486 119 q 338 -1 386 22 q 243 -24 289 -24 m 185 232 q 195 155 185 188 q 227 105 206 122 q 278 88 249 88 q 381 132 326 88 q 493 262 436 176 q 604 468 550 347 l 632 578 q 551 604 589 597 q 479 611 513 611 q 375 588 422 611 q 292 524 328 564 q 233 433 257 483 q 197 331 210 383 q 185 232 185 279 m 347 847 q 316 863 331 847 q 301 894 301 878 q 306 913 301 906 q 317 926 311 919 l 526 1136 q 561 1160 543 1153 q 603 1167 579 1167 q 638 1158 622 1167 q 661 1132 653 1149 l 790 918 q 797 902 796 908 q 799 889 799 896 q 778 860 799 874 q 746 847 758 847 q 724 853 732 847 q 710 868 717 860 l 581 1026 l 385 868 q 367 854 376 861 q 347 847 358 847 m 831 1069 q 813 1076 822 1069 q 793 1099 803 1082 l 667 1300 q 658 1317 661 1310 q 654 1332 654 1324 q 667 1360 654 1346 q 699 1382 681 1374 q 735 1390 718 1390 q 781 1351 764 1390 l 875 1136 q 881 1124 879 1129 q 882 1113 882 1118 q 865 1081 882 1093 q 831 1069 847 1069 z "}}}
